<svg width="14" height="23" viewBox="0 0 14 23" fill="none" xmlns="http://www.w3.org/2000/svg">
<path d="M13.5012 4.0431C13.8483 5.24588 14.016 6.49382 13.9988 7.74612C14.0003 9.18518 13.8394 10.6198 13.5192 12.0223C13.2134 13.4103 12.7458 14.7571 12.1259 16.0347C11.5345 17.2581 10.7961 18.404 9.92727 19.4466C9.10836 20.4253 8.12916 21.2561 7.03195 21.9032C6.15971 22.4641 5.15329 22.7784 4.11851 22.813C3.3045 22.8118 2.51913 22.5108 1.91084 21.9668C1.2338 21.3159 0.745854 20.4918 0.499375 19.5831C0.148504 18.378 -0.0192563 17.1265 0.00175498 15.8709C-0.00658355 13.005 0.630637 10.1744 1.86561 7.59145C2.45696 6.36594 3.19862 5.21972 4.07328 4.17957C4.88962 3.19829 5.8693 2.36707 6.9686 1.72301C7.83822 1.16365 8.8413 0.849431 9.87298 0.81318C10.6915 0.804271 11.4832 1.10647 12.0897 1.65933C12.7667 2.31027 13.2547 3.13436 13.5012 4.0431ZM10.5335 12.3954C10.7024 11.4955 10.7872 10.5817 10.7868 9.66588C10.7941 8.83056 10.7061 7.99715 10.5244 7.18202C10.3954 6.5833 10.1358 6.02085 9.76441 5.53522C9.61699 5.34677 9.43399 5.18947 9.22593 5.07237C9.01786 4.95526 8.78881 4.88066 8.55198 4.85285C7.99171 4.81566 7.43496 4.96603 6.9686 5.28047C6.34253 5.64403 5.79501 6.12968 5.35812 6.70891C4.87683 7.33217 4.4868 8.02155 4.19997 8.75604C3.8669 9.56815 3.61826 10.4127 3.45804 11.2763C3.29588 12.177 3.21411 13.0904 3.21373 14.0058C3.20305 14.8383 3.29117 15.669 3.47615 16.4805C3.60082 17.0846 3.85733 17.6533 4.22714 18.1455C4.36915 18.3362 4.54826 18.4959 4.75358 18.6148C4.95891 18.7336 5.18609 18.8093 5.4214 18.837C5.99496 18.8681 6.56317 18.7117 7.041 18.3912C7.65238 18.0291 8.18723 17.55 8.61532 16.9809C9.11322 16.3477 9.51846 15.6461 9.8187 14.8974C10.1495 14.093 10.3892 13.2537 10.5335 12.3954Z" fill="#6D278E"/>
</svg>
