<svg width="12" height="24" viewBox="0 0 12 24" fill="none" xmlns="http://www.w3.org/2000/svg">
<path d="M10.9277 0.812988V3.99267L4.12074 7.81362L3.49944 12.5876L3.69134 12.5342C4.04834 12.008 4.45191 11.5132 4.89741 11.0556C5.40617 10.5302 5.991 10.0801 6.63339 9.71965C7.24796 9.35197 7.93677 9.11803 8.65266 9.03383C9.24053 8.96853 9.83463 9.08374 10.3521 9.36338C10.8847 9.67564 11.3033 10.1429 11.549 10.6994C11.872 11.4452 12.0248 12.2506 11.9967 13.0596C11.9923 14.0224 11.8446 14.9795 11.5582 15.9009C11.2649 16.8587 10.8506 17.7772 10.3247 18.6352C9.78916 19.5064 9.15477 20.3161 8.43338 21.0489C7.71692 21.7764 6.90235 22.4056 6.01209 22.9193C5.41497 23.2595 4.77228 23.5173 4.10245 23.6853C3.52669 23.8351 2.92324 23.8534 2.33904 23.7387C1.79436 23.6219 1.29798 23.3489 0.913689 22.9549C0.457877 22.4471 0.143293 21.8338 0 21.1736L2.92381 18.2522C2.96246 18.582 3.0781 18.8988 3.26182 19.1782C3.44554 19.4576 3.6925 19.6924 3.98372 19.8643C4.31123 19.9883 4.66613 20.0272 5.01369 19.9772C5.36125 19.9272 5.68955 19.7901 5.96641 19.5793C6.37371 19.353 6.7434 19.0677 7.06285 18.7332C7.41075 18.3849 7.71725 17.9995 7.97654 17.5842C8.22226 17.1711 8.41842 16.7318 8.56126 16.2749C8.69805 15.8268 8.76885 15.362 8.77144 14.8944C8.78278 14.515 8.7079 14.1379 8.55217 13.79C8.43773 13.5135 8.23616 13.2796 7.97654 13.122C7.70384 12.9575 7.37948 12.8942 7.06285 12.9439C6.66609 13.0088 6.28503 13.1446 5.93898 13.3447C5.421 13.6416 4.9628 14.0279 4.58673 14.4847C4.20067 14.9459 3.86392 15.4443 3.5817 15.9721L0.447699 16.1324L1.44364 6.15698L10.9277 0.812988Z" fill="#6D278E"/>
</svg>
