<svg width="11" height="25" viewBox="0 0 11 25" fill="none" xmlns="http://www.w3.org/2000/svg">
<path d="M5.32286 1.7832C6.01242 1.3381 6.77485 1.02739 7.57247 0.866414C8.14296 0.751963 8.73367 0.822396 9.26408 1.06811C9.74048 1.31505 10.1215 1.72243 10.3446 2.22327C10.621 2.84644 10.7543 3.52732 10.7343 4.2127C10.7175 5.5119 10.4651 6.79627 9.99034 7.99905C9.47378 9.34605 8.8671 10.6541 8.17472 11.9137L6.12882 15.5809C5.57971 16.5435 4.97745 17.6345 4.29548 18.8355L4.39291 18.9547L11 15.0583V18.3221L0.14171 24.813V21.43C1.02738 19.7798 1.91305 18.2396 2.72786 16.8461L3.75524 15.0125L4.72947 13.2614C5.03059 12.7297 5.2963 12.2346 5.53543 11.7946C5.77456 11.3545 5.96055 11.0153 6.0934 10.7678L6.76651 9.40174C6.94509 9.03928 7.10185 8.66574 7.23591 8.28325C7.35136 7.9577 7.44313 7.62367 7.51046 7.28395C7.57263 6.98252 7.60527 6.67537 7.60789 6.36716C7.66564 6.09973 7.6392 5.8202 7.53242 5.56946C7.42565 5.31871 7.24415 5.10992 7.01449 4.97364C6.72732 4.87907 6.42211 4.85887 6.12563 4.91481C5.82916 4.97076 5.55048 5.10113 5.31401 5.29451C4.61889 5.70296 4.04353 6.29854 3.64895 7.01809C3.27663 7.67688 3.00477 8.39122 2.84299 9.13587L0 9.43841C0.149265 8.77354 0.353731 8.12326 0.611113 7.49481C0.90897 6.7561 1.27684 6.04977 1.70933 5.38619C2.17545 4.66953 2.70629 4.00032 3.29469 3.38759C3.89985 2.76303 4.58175 2.22361 5.32286 1.7832Z" fill="#6D278E"/>
</svg>
