<svg width="4" height="3" viewBox="0 0 4 3" fill="none" xmlns="http://www.w3.org/2000/svg">
<path d="M3.39164 1.10459C4.18189 1.49362 4.20825 2.12953 3.43556 2.51856C2.99892 2.71199 2.51401 2.81299 2.02188 2.81299C1.52975 2.81299 1.04487 2.71199 0.608227 2.51856C-0.190802 2.12953 -0.199599 1.49362 0.564308 1.10459C1.0016 0.912953 1.48625 0.812988 1.97799 0.812988C2.46973 0.812988 2.95436 0.912953 3.39164 1.10459ZM1.21409 2.21183C1.46034 2.3183 1.73258 2.37377 2.00872 2.37377C2.28486 2.37377 2.55711 2.3183 2.80336 2.21183C3.23361 1.98739 3.22483 1.63576 2.80336 1.4188C2.56021 1.30812 2.28879 1.25023 2.01312 1.25023C1.73744 1.25023 1.466 1.30812 1.22285 1.4188C0.792602 1.63576 0.810163 1.98739 1.22285 2.21183" fill="#2E2793"/>
</svg>
