<svg width="15" height="23" viewBox="0 0 15 23" fill="none" xmlns="http://www.w3.org/2000/svg">
<path d="M14.4659 4.03383C14.8373 5.2398 15.0169 6.49071 14.9988 7.74599C14.998 10.612 14.3127 13.4413 12.9933 16.0256C12.3648 17.2515 11.5738 18.3978 10.6392 19.4375C9.75915 20.4192 8.70748 21.2531 7.5293 21.9031C6.59618 22.4585 5.52335 22.7724 4.41948 22.813C3.54644 22.8101 2.70503 22.5057 2.05561 21.9577C1.33091 21.3087 0.805557 20.4884 0.53462 19.583C0.159649 18.3778 -0.0199942 17.1264 0.00176391 15.8709C0.0039069 14.435 0.176119 13.0038 0.515225 11.6037C0.845522 10.2136 1.34618 8.86412 2.00718 7.58222C2.63351 6.35795 3.4247 5.21432 4.36135 4.17941C5.23635 3.19543 6.28904 2.36387 7.47118 1.72283C8.39963 1.15805 9.47531 0.843344 10.581 0.812988C11.4555 0.814488 12.2993 1.11532 12.9546 1.65914C13.6695 2.31389 14.1904 3.13236 14.4659 4.03383ZM11.3076 12.368C11.4861 11.4524 11.5769 10.5237 11.5789 9.59297C11.5817 8.75788 11.4875 7.925 11.2979 7.1091C11.1547 6.51029 10.8737 5.94818 10.4745 5.46229C10.3166 5.27383 10.1207 5.11653 9.89787 4.99942C9.67509 4.88231 9.42986 4.80771 9.17627 4.7799C8.57772 4.75492 7.98557 4.90428 7.48088 5.20753C6.8146 5.57641 6.22933 6.06122 5.75642 6.63598C5.23165 7.268 4.80441 7.96636 4.4873 8.71042C4.12415 9.52036 3.85771 10.3656 3.69288 11.2307C3.50723 12.1482 3.41961 13.0809 3.43131 14.0148C3.41566 14.8475 3.51004 15.6787 3.71227 16.4896C3.83723 17.0962 4.1127 17.6667 4.51636 18.1546C4.66853 18.3444 4.86051 18.5029 5.08047 18.6202C5.30042 18.7376 5.54368 18.8114 5.79518 18.837C6.40521 18.8708 7.01041 18.7175 7.51964 18.4002C8.17687 18.038 8.75272 17.559 9.21503 16.99C9.73921 16.3511 10.1723 15.6506 10.5035 14.9065C10.8647 14.0888 11.1343 13.2381 11.3076 12.368Z" fill="#6D278E"/>
</svg>
