<svg width="4" height="4" viewBox="0 0 4 4" fill="none" xmlns="http://www.w3.org/2000/svg">
<path d="M3.39165 1.25102C4.1819 1.83539 4.20824 2.77937 3.43556 3.37497C2.99827 3.66283 2.51363 3.81299 2.02189 3.81299C1.53015 3.81299 1.04551 3.66283 0.60822 3.37497C-0.190809 2.7906 -0.199592 1.83539 0.564315 1.25102C1.0016 0.963165 1.48624 0.812988 1.97798 0.812988C2.46972 0.812988 2.95436 0.963165 3.39165 1.25102ZM1.21408 2.90298C1.46033 3.06291 1.73258 3.14624 2.00872 3.14624C2.28486 3.14624 2.5571 3.06291 2.80336 2.90298C3.2336 2.56585 3.22482 2.03766 2.80336 1.71176C2.55824 1.55368 2.28759 1.47133 2.01311 1.47133C1.73864 1.47133 1.46797 1.55368 1.22286 1.71176C1.12956 1.75902 1.04952 1.84109 0.993119 1.9473C0.936715 2.05351 0.906555 2.17896 0.906555 2.30738C0.906555 2.4358 0.936715 2.56124 0.993119 2.66745C1.04952 2.77365 1.12956 2.85573 1.22286 2.90298" fill="#2E2793"/>
</svg>
