<svg width="12" height="8" viewBox="0 0 12 8" fill="none" xmlns="http://www.w3.org/2000/svg">
<path d="M10.1708 1.82874C12.5538 3.19646 12.6197 5.42603 10.3026 6.79375C8.99129 7.46359 7.53833 7.81299 6.06414 7.81299C4.58995 7.81299 3.13698 7.46359 1.82563 6.79375C-0.557354 5.42603 -0.613881 3.19646 1.69375 1.82874C3.00578 1.16112 4.45848 0.812988 5.93226 0.812988C7.40603 0.812988 8.85873 1.16112 10.1708 1.82874ZM6.05471 7.2715C7.30311 7.30134 8.53744 7.00412 9.63388 6.40966C10.0415 6.22305 10.3897 5.92865 10.6406 5.55859C10.8914 5.18853 11.0351 4.75705 11.0561 4.31125C11.0025 3.85867 10.8321 3.42758 10.5614 3.05988C10.2907 2.69219 9.92908 2.40039 9.51149 2.21283C8.39866 1.62568 7.15414 1.32913 5.8946 1.35098C4.65231 1.32225 3.4243 1.6195 2.33423 2.21283C1.92602 2.40224 1.57723 2.69838 1.32508 3.06962C1.07292 3.44086 0.9269 3.87325 0.902595 4.32061C0.955078 4.77239 1.12517 5.20273 1.39608 5.56911C1.66698 5.93548 2.02935 6.22521 2.44731 6.40966C3.55467 7.00321 4.79698 7.30325 6.05471 7.28088" fill="#93277C"/>
</svg>
