<svg width="13" height="22" viewBox="0 0 13 22" fill="none" xmlns="http://www.w3.org/2000/svg">
<path d="M12.5362 3.90353C12.8626 5.05325 13.0184 6.24748 12.9983 7.44549C12.9988 8.81518 12.8523 10.1807 12.5614 11.517C12.2721 12.8409 11.8351 14.1256 11.2592 15.3454C10.7172 16.5169 10.031 17.6111 9.21773 18.6009C8.45973 19.5372 7.55007 20.3303 6.52933 20.9449C5.72152 21.4778 4.79039 21.7776 3.83258 21.813C3.07377 21.806 2.34288 21.5162 1.77428 20.997C1.15115 20.3713 0.699035 19.5867 0.463694 18.7225C0.137854 17.5756 -0.0179263 16.3843 0.00163814 15.1892C0.000670092 13.8195 0.147157 12.4539 0.438466 11.1177C0.73022 9.79171 1.16714 8.50438 1.74069 7.28054C2.28383 6.1124 2.96993 5.02121 3.78218 4.03375C4.54342 3.09505 5.45571 2.29916 6.47893 1.68112C7.28291 1.14654 8.21183 0.846577 9.16732 0.812997C9.92619 0.811199 10.6591 1.09866 11.2256 1.62035C11.8556 2.24386 12.3087 3.03333 12.5362 3.90353ZM9.80582 11.8556C9.9593 10.9966 10.0353 10.1247 10.0327 9.25119C10.0435 8.45397 9.96167 7.65829 9.789 6.8812C9.67108 6.30927 9.42989 5.77218 9.08333 5.3099C8.94645 5.13008 8.77653 4.97999 8.58333 4.86825C8.39013 4.75651 8.17745 4.68533 7.95755 4.6588C7.43849 4.63496 6.92499 4.77747 6.48734 5.06682C5.9077 5.41613 5.39973 5.87913 4.99195 6.42978C4.53717 7.03455 4.16409 7.70043 3.88299 8.40911C3.57725 9.18527 3.34649 9.99076 3.19408 10.8138C3.04136 11.6905 2.96543 12.5796 2.96723 13.4703C2.9578 14.2646 3.03962 15.0572 3.2109 15.8316C3.32666 16.408 3.56479 16.9506 3.90816 17.4203C4.04106 17.6024 4.20888 17.7542 4.40114 17.8662C4.5934 17.9782 4.80597 18.0481 5.02554 18.0714C5.55398 18.0981 6.07719 17.9523 6.52098 17.6547C7.09131 17.2987 7.59038 16.8331 7.99119 16.283C8.44567 15.6765 8.82128 15.011 9.10851 14.3037C9.42581 13.5251 9.65965 12.7129 9.80582 11.8816" fill="#6D278E"/>
</svg>
