<svg width="15" height="24" viewBox="0 0 15 24" fill="none" xmlns="http://www.w3.org/2000/svg">
<path d="M14.4637 4.18984C14.8453 5.44532 15.0253 6.75142 14.9971 8.0612C15.0036 9.56594 14.831 11.0663 14.4831 12.5318C14.1557 13.9786 13.6576 15.3832 12.9991 16.7171C12.3685 17.998 11.5767 19.1963 10.6421 20.2841C9.76173 21.3074 8.71258 22.1787 7.53831 22.8618C6.60408 23.4424 5.52998 23.7705 4.42481 23.813C3.549 23.8132 2.70353 23.4984 2.04845 22.9284C1.32266 22.2478 0.799578 21.3863 0.535349 20.4362C0.15921 19.1764 -0.0206431 17.868 0.00188124 16.5554C-0.00511098 15.0537 0.167423 13.5565 0.51595 12.0943C0.848215 10.6414 1.34939 9.23076 2.00966 7.88999C2.63903 6.61135 3.43098 5.41601 4.36661 4.33252C5.24174 3.30662 6.29195 2.43762 7.47042 1.76429C8.4034 1.17352 9.48352 0.844555 10.5936 0.813096C11.466 0.806344 12.3096 1.1183 12.9603 1.6882C13.6829 2.37341 14.2024 3.23798 14.4637 4.18984ZM11.3017 12.8933C11.4874 11.9531 11.5784 10.9973 11.5733 10.0397C11.5857 9.16304 11.4913 8.28808 11.292 7.43341C11.1505 6.79166 10.8619 6.18991 10.4481 5.6737C10.1411 5.27157 9.68433 5.00485 9.17751 4.93177C8.57704 4.89433 7.98066 5.0514 7.48012 5.37883C6.81091 5.76157 6.22442 6.26887 5.75362 6.87221C5.22857 7.53485 4.79784 8.26444 4.4733 9.04093C4.10342 9.89689 3.83021 10.79 3.65855 11.7043C3.47465 12.6639 3.38372 13.6385 3.38697 14.6149C3.37235 15.4849 3.46352 16.3534 3.65855 17.2022C3.7922 17.8337 4.06717 18.4282 4.4636 18.9429C4.77644 19.34 5.23663 19.5999 5.74392 19.6658C6.37832 19.711 7.00993 19.547 7.53831 19.1997C8.19446 18.8184 8.77053 18.3181 9.23571 17.7253C9.7605 17.0574 10.1942 16.3251 10.5257 15.5471C10.8888 14.6936 11.1555 13.8037 11.3211 12.8933" fill="#6D278E"/>
</svg>
