<svg width="15" height="24" viewBox="0 0 15 24" fill="none" xmlns="http://www.w3.org/2000/svg">
<path d="M14.4656 4.18986C14.8375 5.44732 15.0172 6.75199 14.9987 8.06122C15.0003 9.56569 14.828 11.0655 14.4849 12.5318C14.1544 13.982 13.6535 15.3897 12.9921 16.7266C12.361 18.007 11.5697 19.2052 10.6366 20.2936C9.75659 21.3142 8.70799 22.1823 7.53464 22.8618C6.60015 23.4482 5.52193 23.7768 4.4133 23.813C3.54087 23.8135 2.69882 23.4986 2.04806 22.9284C1.32271 22.2478 0.799937 21.3863 0.535866 20.4362C0.155181 19.1774 -0.0246663 17.8682 0.00271536 16.5554C-0.00621831 13.5592 0.676481 10.5998 1.99959 7.89951C2.63189 6.61759 3.42659 5.41912 4.36483 4.33253C5.23944 3.30664 6.28902 2.43764 7.46678 1.76431C8.39847 1.17952 9.47312 0.851016 10.5784 0.813117C11.455 0.805674 12.3026 1.12136 12.9534 1.69773C13.6757 2.38064 14.1979 3.2413 14.4656 4.18986ZM11.3054 12.8933C11.4864 11.9525 11.5773 10.9971 11.5769 10.0397C11.5847 9.16641 11.4904 8.29512 11.2958 7.44294C11.1607 6.81417 10.8787 6.22478 10.4718 5.72128C10.1551 5.32554 9.69153 5.06902 9.18255 5.00789C8.58373 4.96974 7.98847 5.12328 7.48617 5.44543C6.81543 5.82955 6.22897 6.34036 5.76071 6.94832C5.22902 7.60634 4.79797 8.33694 4.48117 9.11704C4.12433 9.96607 3.85794 10.849 3.68628 11.7518C3.50965 12.7091 3.42205 13.6802 3.42455 14.653C3.41312 15.5233 3.5075 16.3919 3.70568 17.2402C3.83924 17.8718 4.11405 18.4663 4.51025 18.9809C4.66239 19.1803 4.85429 19.3472 5.07427 19.4715C5.29424 19.5958 5.53769 19.6748 5.78979 19.7038C6.40467 19.7399 7.01452 19.5761 7.52495 19.2377C8.17997 18.8592 8.753 18.3583 9.21163 17.7634C9.74507 17.1014 10.1792 16.3679 10.5009 15.5852C10.8714 14.7336 11.1413 13.8432 11.3054 12.9313" fill="#6D278E"/>
</svg>
