<svg width="16" height="5" viewBox="0 0 16 5" fill="none" xmlns="http://www.w3.org/2000/svg">
<path d="M15.8624 4.38009C15.8999 4.39445 15.9327 4.41909 15.957 4.45122C15.9813 4.48335 15.9962 4.52169 16 4.56191C16 4.70909 15.7936 4.81299 15.5529 4.81299L0.49867 4.42338C0.399886 4.42409 0.302432 4.4003 0.214938 4.35411C0.180079 4.33706 0.150041 4.31149 0.127514 4.27973C0.104988 4.24797 0.0907222 4.21103 0.0860066 4.17229L0 1.07273C0 0.934201 0.189189 0.812989 0.421322 0.812989C0.529301 0.81281 0.635628 0.839582 0.73082 0.890911C0.766171 0.907291 0.796674 0.932681 0.819292 0.96457C0.841911 0.996458 0.85583 1.03374 0.859751 1.07273L0.937151 3.92987L15.5529 4.30217C15.6615 4.29679 15.7691 4.3239 15.8624 4.38009Z" fill="#932B27"/>
</svg>
