<svg width="29" height="18" viewBox="0 0 29 18" fill="none" xmlns="http://www.w3.org/2000/svg">
<path d="M27.5056 9.02562C29.4514 10.1964 29.5064 12.0905 27.6157 13.2612L21.659 16.9353C20.5822 17.512 19.3878 17.813 18.1758 17.813C16.9639 17.813 15.7695 17.512 14.6927 16.9353L8.46979 13.2136L0.457144 12.7853C0.349752 12.8098 0.237698 12.7999 0.135898 12.7568C0.0930911 12.7295 0.0557126 12.6939 0.0257627 12.6521C-0.0384853 12.5569 0.0257633 12.4427 0.126724 12.3665L3.4768 10.2915L2.32951 9.60624C0.374533 8.43549 0.328646 6.54137 2.21937 5.37063L8.17608 1.68707C9.25196 1.11266 10.4446 0.812988 11.6547 0.812988C12.8647 0.812988 14.0573 1.11266 15.1332 1.68707L27.5056 9.02562ZM20.9982 16.545L26.9549 12.8615C27.2763 12.7079 27.5513 12.4664 27.7503 12.1628C27.9492 11.8592 28.0645 11.5052 28.0838 11.1387C28.0402 10.767 27.9049 10.4132 27.6911 10.1114C27.4773 9.80964 27.1921 9.57011 26.8631 9.41587L14.5366 2.03925C13.6594 1.55296 12.6768 1.30723 11.6822 1.32538C10.7018 1.30374 9.73323 1.54994 8.87364 2.03925L2.88939 5.71329C2.56792 5.86682 2.29293 6.10838 2.094 6.41195C1.89508 6.71551 1.77976 7.0696 1.76046 7.43608C1.80235 7.80838 1.93692 8.16297 2.15095 8.46502C2.36497 8.76708 2.65108 9.00619 2.98117 9.15888L4.45888 10.0441C4.55066 10.1012 4.59655 10.1678 4.58737 10.244C4.58788 10.2856 4.57691 10.3265 4.55578 10.3619C4.53465 10.3973 4.50421 10.4257 4.46805 10.4438L1.48511 12.2809L8.68089 12.6616C8.77942 12.6687 8.87586 12.6945 8.96541 12.7377L15.3076 16.545C16.1849 17.0313 17.1675 17.277 18.1621 17.2589C19.1424 17.2805 20.111 17.0343 20.9706 16.545" fill="#2E2793"/>
</svg>
