<svg width="26" height="16" viewBox="0 0 26 16" fill="none" xmlns="http://www.w3.org/2000/svg">
<path d="M23.7311 12.5272C23.7606 12.5429 23.7853 12.5662 23.8025 12.5946C23.8197 12.623 23.8287 12.6555 23.8287 12.6887C23.8287 12.7218 23.8197 12.7543 23.8025 12.7827C23.7853 12.8112 23.7606 12.8345 23.7311 12.8501L21.0825 14.4213C20.9967 14.4604 20.9033 14.4807 20.8088 14.4807C20.7143 14.4807 20.621 14.4604 20.5351 14.4213L18.5045 13.6532C17.7045 13.9382 16.8801 14.1514 16.0414 14.2904L15.6265 15.6084C15.5815 15.6794 15.5168 15.736 15.44 15.7716C15.3633 15.8072 15.2778 15.8202 15.1938 15.8091H11.3711C11.2639 15.8109 11.1579 15.787 11.0621 15.7393C11.0061 15.712 10.9622 15.6655 10.9385 15.6084L10.4883 14.3864C9.5437 14.2576 8.61287 14.0443 7.70728 13.7492L5.94158 14.4213C5.85261 14.4603 5.75637 14.4804 5.65906 14.4804C5.56175 14.4804 5.46551 14.4603 5.37654 14.4213L2.61321 12.8414C2.46312 12.7541 2.42785 12.6232 2.54262 12.5185L3.67264 11.5059C3.18713 11.0283 2.79504 10.466 2.51611 9.84752L0.432589 9.66422C0.345262 9.65675 0.260739 9.6299 0.185364 9.58566C0.148227 9.57134 0.116464 9.54607 0.0943526 9.51328C0.0722412 9.48049 0.0608932 9.44176 0.0618061 9.40236L0 7.19403C0 7.0631 0.141233 6.95837 0.361946 6.94091L2.57791 6.73142C2.8618 6.1517 3.25423 5.63043 3.73445 5.1952L2.33074 4.11285C2.29892 4.09803 2.27199 4.07458 2.25315 4.04521C2.2343 4.01585 2.22427 3.98178 2.22427 3.947C2.22427 3.91222 2.2343 3.87817 2.25315 3.8488C2.27199 3.81944 2.29892 3.79597 2.33074 3.78116L4.9793 2.21003C5.06976 2.17085 5.16742 2.15061 5.26618 2.15061C5.36495 2.15061 5.46265 2.17085 5.55312 2.21003L7.65431 3.08288C8.44199 2.84392 9.24804 2.66876 10.0645 2.55916L10.4353 1.03166C10.4353 0.900735 10.6472 0.813449 10.8679 0.813449H14.6818C14.7932 0.809044 14.9035 0.836305 14.9996 0.892003C15.0606 0.919621 15.1081 0.969767 15.1321 1.03166L15.6177 2.64645C16.3575 2.76718 17.0866 2.94519 17.7983 3.17888L20.0849 2.21003C20.1739 2.17106 20.2701 2.15092 20.3674 2.15092C20.4647 2.15092 20.5609 2.17106 20.6499 2.21003L23.3956 3.78116C23.5545 3.86844 23.581 4.00811 23.4574 4.10412L21.8152 5.43959C22.1786 5.79397 22.4906 6.19639 22.7423 6.6354L25.5762 6.96709C25.6563 6.97059 25.7347 6.99144 25.8057 7.02819C25.8415 7.04538 25.8724 7.07117 25.8956 7.10319C25.9187 7.1352 25.9334 7.17244 25.9382 7.21149L26 9.42854C26 9.55074 25.8587 9.65549 25.6557 9.68168L23.0071 9.99591C22.8107 10.4608 22.5394 10.8912 22.2037 11.2703L23.7311 12.5272ZM20.6411 13.915L22.804 12.6407L21.3562 11.4187C21.3343 11.4033 21.3165 11.3831 21.3042 11.3595C21.2919 11.336 21.2854 11.3099 21.2854 11.2834C21.2854 11.2569 21.2919 11.2308 21.3042 11.2072C21.3165 11.1837 21.3343 11.1634 21.3562 11.1481L21.4445 11.0608C21.7788 10.6824 22.042 10.2478 22.2214 9.77769V9.70786C22.2506 9.65573 22.2926 9.61166 22.3435 9.57965C22.3944 9.54763 22.4526 9.5287 22.5127 9.52456L25.1613 9.21033V7.41225L22.6098 7.1242H22.495C22.3873 7.12197 22.2815 7.09509 22.1861 7.04565C22.135 7.0189 22.0945 6.97583 22.0713 6.92345L22.0183 6.83616C21.7852 6.40724 21.4875 6.0158 21.1355 5.67526L21.0207 5.57052C20.997 5.55352 20.9777 5.53121 20.9644 5.50542C20.9511 5.47962 20.9441 5.45109 20.9441 5.42213C20.9441 5.39318 20.9511 5.36464 20.9644 5.33885C20.9777 5.31306 20.997 5.29075 21.0207 5.27375L22.6098 3.98192L20.4027 2.71627L18.1867 3.65896C18.0278 3.72031 17.8513 3.72031 17.6923 3.65896L17.4981 3.58913C16.8333 3.3681 16.1512 3.2017 15.4587 3.09161L15.2204 3.04796C15.1524 3.0396 15.0865 3.01889 15.0261 2.98687C14.969 2.9542 14.923 2.90562 14.8937 2.84721L14.4169 1.28479H11.3535L10.9915 2.76865C10.9915 2.8734 10.8326 2.95195 10.6472 2.97813H10.4265C9.6608 3.07934 8.90487 3.24283 8.16638 3.46693L7.94567 3.5455C7.79423 3.59806 7.62917 3.59806 7.47773 3.5455L5.44718 2.67264L3.31069 3.92954L4.6791 5.01189C4.70281 5.02889 4.72211 5.0512 4.73541 5.07699C4.74872 5.10278 4.75567 5.13132 4.75567 5.16027C4.75567 5.18923 4.74872 5.21778 4.73541 5.24357C4.72211 5.26936 4.70281 5.29166 4.6791 5.30866L4.57317 5.40467C4.11152 5.81029 3.73634 6.30289 3.4696 6.85362L3.39896 7.002C3.36309 7.05993 3.31234 7.10741 3.25185 7.13961C3.19137 7.17181 3.12329 7.18758 3.05463 7.18531L0.926984 7.38606L0.979953 9.13178L2.98404 9.3238C3.07044 9.32995 3.15458 9.35372 3.23121 9.39364C3.28718 9.42093 3.33114 9.46748 3.35483 9.52456L3.39896 9.6555C3.65452 10.2361 4.02354 10.7612 4.48485 11.2004L4.63497 11.3401C4.65505 11.3547 4.67136 11.3738 4.68261 11.3957C4.69386 11.4177 4.69969 11.442 4.69969 11.4667C4.69969 11.4913 4.69386 11.5156 4.68261 11.5376C4.67136 11.5596 4.65505 11.5786 4.63497 11.5932L3.54903 12.5708L5.77383 13.8452L7.44244 13.1993C7.58318 13.1551 7.73428 13.1551 7.87502 13.1993C7.96827 13.2254 8.05969 13.2574 8.14871 13.2953C8.98294 13.5648 9.83975 13.7605 10.709 13.8801H10.912C10.9982 13.8876 11.0821 13.9113 11.1593 13.95C11.2152 13.9772 11.2591 14.0238 11.2828 14.0809L11.7242 15.268H14.8142L15.2292 14.0023C15.2292 13.9063 15.3793 13.8365 15.5382 13.8103H15.7677C16.5591 13.6738 17.3363 13.4663 18.0896 13.1906L18.2397 13.1295C18.4002 13.0769 18.5736 13.0769 18.7341 13.1295L20.7029 13.8801" fill="#93277C"/>
</svg>
