<svg width="19" height="13" viewBox="0 0 19 13" fill="none" xmlns="http://www.w3.org/2000/svg">
<path d="M16.1092 2.57239C19.8782 4.90875 19.9752 8.70773 16.321 11.0536C12.6667 13.3995 6.61162 13.3995 2.87792 11.0536C-0.855782 8.70773 -0.988201 4.91825 2.66606 2.57239C6.32032 0.226522 12.3401 0.226522 16.1092 2.57239ZM9.63035 12.2503C11.7428 12.2999 13.8305 11.753 15.6855 10.6642C17.3449 9.60048 18.1481 8.20436 18.1216 6.80824C18.0952 5.41212 17.239 4.0255 15.4736 3.00927C13.5886 1.90063 11.4694 1.33466 9.32141 1.36621C7.20614 1.32747 5.11741 1.87707 3.25746 2.96178C1.59804 4.02549 0.803634 5.42161 0.830114 6.76075C0.856594 8.09989 1.71279 9.553 3.47813 10.6167C5.37738 11.7063 7.50498 12.2524 9.65683 12.2028" fill="#632793"/>
</svg>
