<svg width="4" height="3" viewBox="0 0 4 3" fill="none" xmlns="http://www.w3.org/2000/svg">
<path d="M3.39453 1.105C4.18542 1.49458 4.20298 2.13139 3.43846 2.52098C3.00081 2.71288 2.51579 2.81299 2.02366 2.81299C1.53152 2.81299 1.04648 2.71288 0.608843 2.52098C-0.182046 2.13139 -0.208412 1.49458 0.564902 1.105C1.00254 0.913095 1.48758 0.812988 1.97971 0.812988C2.47185 0.812988 2.95689 0.913095 3.39453 1.105ZM1.21519 2.20632C1.46011 2.31717 1.73318 2.37514 2.01047 2.37514C2.28777 2.37514 2.56082 2.31717 2.80574 2.20632C3.23634 1.98905 3.22755 1.63693 2.80574 1.41217C2.5617 1.30322 2.29035 1.2463 2.01487 1.2463C1.7394 1.2463 1.46801 1.30322 1.22398 1.41217C0.793381 1.62944 0.802168 1.98156 1.22398 2.19883" fill="#2E2793"/>
</svg>
