<svg width="12" height="22" viewBox="0 0 12 22" fill="none" xmlns="http://www.w3.org/2000/svg">
<path d="M5.8529 1.74737C6.5402 1.34479 7.29398 1.0523 8.08343 0.88185C8.6564 0.764609 9.25269 0.797545 9.80706 0.977057C10.3053 1.17263 10.7068 1.53728 10.9316 1.99837C11.2216 2.53349 11.3612 3.12937 11.3371 3.72941C11.3379 4.2507 11.2761 4.77042 11.1528 5.27869C11.0347 5.76338 10.8744 6.23814 10.6734 6.69814C10.489 7.13035 10.2606 7.54483 9.99139 7.93583C9.76001 8.28796 9.50123 8.62354 9.21715 8.93983V9.15621C9.56988 9.09836 9.93214 9.11914 10.2748 9.21686C10.6174 9.31458 10.9308 9.48651 11.1896 9.7188C11.4873 10.0527 11.7107 10.4391 11.8469 10.8553C11.983 11.2715 12.029 11.7091 11.9823 12.1423C11.9769 12.9709 11.8371 13.794 11.5675 14.583C11.2768 15.429 10.8743 16.2373 10.3693 16.9892C9.84713 17.781 9.22849 18.5129 8.52587 19.1703C7.79667 19.8423 6.97894 20.4241 6.09255 20.9013C5.46454 21.2494 4.78836 21.5144 4.08319 21.6889C3.51491 21.8344 2.91813 21.8522 2.34116 21.7409C1.79959 21.6261 1.30595 21.3642 0.921715 20.9879C0.478322 20.5305 0.161756 19.9776 0 19.378L3.05087 16.4006C3.09713 16.7053 3.22098 16.995 3.41193 17.2451C3.60288 17.4952 3.85529 17.6984 4.14772 17.8374C4.48126 17.9111 4.82787 17.916 5.16364 17.8518C5.4994 17.7875 5.81634 17.6556 6.09255 17.4652C6.44975 17.2657 6.78074 17.0275 7.07877 16.7555C7.3874 16.4727 7.66246 16.1592 7.89911 15.8207C8.1256 15.4835 8.31111 15.1235 8.45214 14.7475C8.59376 14.3903 8.66555 14.0121 8.66412 13.6309C8.66412 12.8433 8.3876 12.3673 7.853 12.2202C7.4625 12.1643 7.06408 12.1823 6.68106 12.273C6.29804 12.3636 5.93814 12.5252 5.62247 12.7481L4.15694 13.5444V10.3247L5.50264 9.59763C5.84952 9.40837 6.17394 9.18496 6.47043 8.93118C6.78456 8.67653 7.06329 8.38574 7.3 8.06566C7.54262 7.75015 7.73512 7.4032 7.87146 7.03569C8.00003 6.66447 8.05622 6.27451 8.03736 5.88455C8.07243 5.65689 8.03515 5.42457 7.93022 5.21671C7.82528 5.00886 7.65734 4.83471 7.44745 4.7161C7.17061 4.64446 6.87978 4.63454 6.59813 4.68713C6.31649 4.73973 6.05183 4.85338 5.82525 5.01903C5.13234 5.38613 4.55396 5.91731 4.14772 6.55966C3.78545 7.13386 3.51525 7.75504 3.34583 8.40321L0.359482 8.70614C0.739412 7.40639 1.34679 6.17499 2.15681 5.06231C2.62487 4.41505 3.15892 3.81212 3.75139 3.26203C4.37903 2.67375 5.08545 2.1646 5.8529 1.74737Z" fill="#6D278E"/>
</svg>
