<svg width="25" height="16" viewBox="0 0 25 16" fill="none" xmlns="http://www.w3.org/2000/svg">
<path d="M23.8439 6.65503C24.7898 7.2115 25.153 7.98535 24.9418 8.69833C24.9418 8.84615 24.6885 8.9331 24.452 8.90701C24.3749 8.89978 24.3002 8.87609 24.2324 8.83745C24.1311 8.77659 24.0804 8.69833 24.1057 8.61139C24.2747 8.04622 23.996 7.44627 23.2612 7.01152L14.4189 1.79457C13.777 1.45159 13.0645 1.27255 12.3413 1.27255C11.6181 1.27255 10.9056 1.45159 10.2637 1.79457L1.69164 7.01152C0.568399 7.70711 0.593741 8.82876 1.75076 9.52435L10.5931 14.7848C11.2377 15.1237 11.9511 15.3004 12.6749 15.3004C13.3987 15.3004 14.1121 15.1237 14.7567 14.7848L18.0926 12.7328C18.1843 12.6854 18.2855 12.6607 18.3882 12.6607C18.4908 12.6607 18.5921 12.6854 18.6838 12.7328C18.8527 12.8371 18.8612 12.9936 18.6838 13.0893L15.3479 15.1413C14.5206 15.5826 13.6024 15.813 12.6707 15.813C11.7389 15.813 10.8207 15.5826 9.99344 15.1413L1.15112 9.92432C-0.352163 9.05483 -0.385924 7.58539 1.06669 6.68981L9.63875 1.47286C10.4683 1.03908 11.3855 0.812988 12.3159 0.812988C13.2463 0.812988 14.1636 1.03908 14.9932 1.47286L23.8439 6.65503Z" fill="#932B27"/>
</svg>
