<svg width="35" height="35" viewBox="0 0 35 35" fill="none" xmlns="http://www.w3.org/2000/svg">
<path d="M11.9893 34.7563C10.3643 34.7563 8.98926 33.3813 8.98926 31.7563V28.0063C8.98926 26.3813 10.3643 25.0063 11.9893 25.0063H12.9893L3.61426 16.0063C1.86426 15.3813 0.114258 14.7563 0.114258 12.6313C0.114258 6.38135 7.61426 0.256348 17.2393 0.256348C26.8643 0.256348 34.3643 6.38135 34.3643 12.6313C34.3643 14.7563 32.6143 15.3813 30.8643 16.0063L21.4893 25.0063H22.4893C24.1143 25.0063 25.4893 26.3813 25.4893 28.0063V31.7563C25.4893 33.3813 24.1143 34.7563 22.4893 34.7563H11.9893ZM17.2393 14.5063C20.3643 14.5063 28.2393 14.2563 31.4893 12.5063C30.8643 7.38135 24.6143 3.25635 17.2393 3.25635C9.86426 3.25635 3.61426 7.38135 2.98926 12.5063C6.23926 14.2563 14.1143 14.5063 17.2393 14.5063ZM16.4893 17.5063C13.8643 17.5063 12.2393 17.3813 12.2393 17.3813L16.4893 25.1313V17.5063ZM6.36426 16.6313L14.2393 24.1313L10.4893 17.2563C8.61426 17.1313 6.36426 16.6313 6.36426 16.6313ZM17.9893 17.5063V25.1313L22.2393 17.3813C22.2393 17.3813 20.6143 17.5063 17.9893 17.5063ZM28.1143 16.6313C28.1143 16.6313 25.8643 17.1313 23.9893 17.2563L20.2393 24.1313L28.1143 16.6313ZM22.4893 31.7563V28.0063H11.9893V31.7563H22.4893Z" fill="#6D278E"/>
</svg>
