<svg width="28" height="27" viewBox="0 0 28 27" fill="none" xmlns="http://www.w3.org/2000/svg">
<g clip-path="url(#clip0_1234_4471)">
<path d="M21.1802 8.55L14.9927 4.9725C14.4752 4.66875 13.8227 4.66875 13.3052 4.9725L7.11768 8.55C6.60018 8.85375 6.27393 9.405 6.27393 10.0125V17.1562C6.27393 17.7638 6.60018 18.315 7.11768 18.6187L13.3052 22.1962C13.8227 22.5 14.4752 22.5 14.9927 22.1962L21.1802 18.6187C21.6977 18.315 22.0239 17.7638 22.0239 17.1562V10.0125C22.0239 9.405 21.6977 8.85375 21.1802 8.55ZM8.52393 16.83V11.6325L13.0239 14.2425V19.4288L8.52393 16.83ZM14.1489 12.2963L9.64893 9.68625L14.1489 7.0875L18.6489 9.68625L14.1489 12.2963ZM15.2739 19.4288V14.2425L19.7739 11.6325V16.83L15.2739 19.4288ZM8.52393 2.25H4.58643C3.65268 2.25 2.89893 3.00375 2.89893 3.9375V7.875H5.14893V4.5H8.52393V2.25ZM19.7739 2.25H23.7114C24.6452 2.25 25.3989 3.00375 25.3989 3.9375V7.875H23.1489V4.5H19.7739V2.25ZM8.52393 24.75H4.58643C3.65268 24.75 2.89893 23.9963 2.89893 23.0625V19.125H5.14893V22.5H8.52393V24.75ZM19.7739 24.75H23.7114C24.6452 24.75 25.3989 23.9963 25.3989 23.0625V19.125H23.1489V22.5H19.7739V24.75Z" fill="#6D278E"/>
</g>
<defs>
<clipPath id="clip0_1234_4471">
<rect width="27" height="27" fill="white" transform="translate(0.648926)"/>
</clipPath>
</defs>
</svg>
