<svg width="1439" height="977" viewBox="0 0 1439 977" fill="none" xmlns="http://www.w3.org/2000/svg">
<g opacity="0.05">
<path opacity="0.5" d="M1121.37 494.146L1172.19 688.303L1175.16 680.365L1251.06 500.32L1248.36 495.268L1123.55 491.58L1121.37 494.146Z" fill="url(#paint0_linear_1234_5494)"/>
<path opacity="0.33" d="M947.56 424.309L1012.87 455.539L950.258 556.286L948.803 555.243L943.587 426.353L947.56 424.309Z" fill="url(#paint1_linear_1234_5494)"/>
<path opacity="0.23" d="M754.767 333.384L815.413 403.462L768.837 445.436L766.927 439.743L753.524 334.747L754.767 333.384Z" fill="url(#paint2_linear_1234_5494)"/>
<path d="M210.05 386.022C209.48 387.373 209.302 388.951 209.547 390.463C209.793 391.975 210.445 393.318 211.384 394.241L193.797 436.175L269.998 492.061C269.615 493.386 269.607 494.85 269.974 496.183C270.342 497.516 271.061 498.629 271.999 499.317C272.941 500.002 274.038 500.216 275.09 499.922C276.142 499.628 277.079 498.844 277.73 497.714L401.144 588.237L553.304 699.809L554.335 700.57L553.425 702.655L554.971 701.452L555.214 702.054L555.487 701.412L556.851 702.415L671.744 786.604L671.229 788.208L672.593 787.206L672.897 787.446L673.291 786.925L754.131 728.794C754.976 730.615 756.319 731.935 757.881 732.48C759.443 733.025 761.104 732.752 762.518 731.72C763.932 730.687 764.99 728.973 765.472 726.934C765.955 724.896 765.825 722.69 765.108 720.776L829.089 674.672C829.441 675.255 829.873 675.744 830.363 676.115C831.33 676.806 832.463 676.966 833.518 676.561C834.574 676.156 835.466 675.218 836.003 673.951L944.953 719.693C944.673 721.633 944.923 723.64 945.658 725.359C946.392 727.077 947.565 728.396 948.966 729.079C950.366 729.762 951.905 729.766 953.308 729.09C954.711 728.413 955.887 727.101 956.627 725.386C956.746 725.09 956.847 724.782 956.93 724.464L1125.25 788.609C1125.14 789.738 1125.29 790.886 1125.68 791.901C1126.07 792.917 1126.68 793.754 1127.43 794.301C1128.39 795.054 1129.52 795.292 1130.6 794.965C1131.69 794.638 1132.63 793.771 1133.24 792.545C1133.85 791.32 1134.08 789.83 1133.88 788.387C1133.68 786.944 1133.06 785.659 1132.17 784.8L1169.64 695.479C1171.07 696.287 1172.68 696.367 1174.15 695.702C1175.62 695.037 1176.85 693.676 1177.6 691.88C1178.36 690.085 1178.58 687.983 1178.23 685.982C1177.88 683.981 1176.98 682.222 1175.71 681.046L1250.21 503.447C1251.64 504.255 1253.24 504.334 1254.71 503.67C1256.18 503.005 1257.41 501.643 1258.17 499.848C1258.92 498.053 1259.15 495.951 1258.8 493.95C1258.45 491.949 1257.55 490.19 1256.28 489.014L1319.17 339.076C1320.59 339.885 1322.2 339.964 1323.67 339.3C1325.14 338.635 1326.37 337.273 1327.12 335.478C1327.88 333.682 1328.1 331.581 1327.75 329.58C1327.4 327.579 1326.5 325.82 1325.23 324.644L1374.9 206.217C1375.58 206.524 1376.32 206.568 1377.02 206.343C1377.72 206.118 1378.35 205.633 1378.85 204.946C1379.35 204.259 1379.69 203.397 1379.84 202.463C1379.98 201.529 1379.92 200.56 1379.66 199.671C1379.4 198.782 1378.95 198.009 1378.37 197.442C1377.79 196.876 1377.1 196.54 1376.38 196.474C1375.66 196.408 1374.95 196.614 1374.31 197.069C1373.68 197.524 1373.16 198.208 1372.81 199.041C1372.43 199.904 1372.28 200.899 1372.35 201.888L1227.11 252.241C1226.7 251.131 1226.01 250.24 1225.17 249.715C1224.31 249.11 1223.32 248.908 1222.37 249.141C1221.42 249.375 1220.55 250.031 1219.92 251.001C1219.28 251.971 1218.91 253.197 1218.88 254.479C1218.84 255.761 1219.13 257.021 1219.71 258.054L1183.93 307.966L1041.8 187.696C1042.5 185.931 1042.64 183.872 1042.18 181.974C1041.73 180.076 1040.73 178.492 1039.39 177.573C1038.06 176.653 1036.5 176.472 1035.07 177.07C1033.63 177.668 1032.43 178.995 1031.74 180.76C1031.24 181.947 1031 183.291 1031.03 184.648C1031.07 186.004 1031.39 187.321 1031.95 188.457L941.314 287.28C940.627 286.36 939.787 285.666 938.861 285.254C937.935 284.841 936.949 284.722 935.981 284.905C935.014 285.088 934.093 285.569 933.291 286.309C932.49 287.049 931.831 288.026 931.368 289.164C930.81 290.527 930.548 292.067 930.61 293.614L756.587 329.695C756.311 328.54 755.701 327.575 754.889 327.009C754.461 326.685 753.988 326.477 753.497 326.399C753.007 326.32 752.51 326.372 752.035 326.551C751.561 326.731 751.118 327.034 750.733 327.443C750.348 327.852 750.029 328.359 749.795 328.934C749.65 329.256 749.547 329.608 749.492 329.976L713.105 325.566L647.092 181.241C647.833 180.487 648.439 179.525 648.864 178.424C649.289 177.323 649.524 176.111 649.552 174.875C649.579 173.639 649.398 172.411 649.023 171.279C648.647 170.147 648.085 169.14 647.379 168.33C646.672 167.52 645.838 166.928 644.937 166.597C644.036 166.265 643.091 166.203 642.17 166.414C641.248 166.626 640.374 167.105 639.61 167.818C638.846 168.531 638.212 169.46 637.753 170.537C637.418 171.348 637.193 172.23 637.085 173.143L491.536 160.033C491.475 158.957 491.213 157.918 490.773 157.009C490.334 156.1 489.732 155.348 489.019 154.822C488.458 154.41 487.841 154.149 487.203 154.053C486.565 153.958 485.92 154.029 485.303 154.264C484.686 154.498 484.11 154.891 483.609 155.421C483.107 155.95 482.689 156.604 482.379 157.347C482.037 158.138 481.831 159.017 481.773 159.924C481.715 160.831 481.808 161.744 482.045 162.599L400.598 217.643L375.703 16.3898C376.711 16.0304 377.636 15.3459 378.394 14.3977C379.153 13.4495 379.721 12.2672 380.049 10.9568C380.377 9.64651 380.453 8.24913 380.272 6.89001C380.091 5.53088 379.657 4.25253 379.01 3.16958C378.363 2.08663 377.522 1.23295 376.564 0.685117C375.606 0.137278 374.56 -0.0875876 373.52 0.0306736C372.48 0.148935 371.479 0.606629 370.605 1.36271C369.732 2.1188 369.014 3.14962 368.517 4.36275C367.75 6.16163 367.521 8.2748 367.875 10.2858C368.229 12.2968 369.139 14.0597 370.427 15.2272L297.288 189.179L296.439 191.264L282.127 225.661L281.46 227.265L216.023 383.136C214.933 382.567 213.723 382.547 212.622 383.079C211.521 383.611 210.606 384.658 210.05 386.022ZM399.355 218.605L358.177 246.668C357.748 245.875 357.201 245.207 356.57 244.704C356.183 244.445 355.776 244.243 355.357 244.103L374.005 16.911H374.369L399.355 218.605ZM349.898 247.029C349.286 248.493 349.127 250.213 349.455 251.829C349.783 253.444 350.573 254.828 351.657 255.689L340.953 288.282C339.581 287.703 338.098 287.788 336.769 288.523L299.411 194.27L349.959 246.869L349.898 247.029ZM416.609 393.439C416.225 394.343 415.978 395.337 415.881 396.365L308.356 392.036L337.163 304.238C338.201 304.654 339.303 304.714 340.364 304.413C341.425 304.111 342.41 303.458 343.227 302.514L417.094 392.517C416.942 392.797 416.76 393.078 416.639 393.399L416.609 393.439ZM342.136 289.204L352.84 256.571C353.913 256.983 355.061 256.884 356.084 256.29L361.391 267.716L418.276 391.073L417.973 391.434L344.077 301.392C344.265 301.125 344.428 300.829 344.562 300.51C344.995 299.549 345.277 298.483 345.391 297.375C345.505 296.267 345.449 295.14 345.225 294.062C345.001 292.983 344.615 291.976 344.089 291.1C343.564 290.224 342.91 289.497 342.166 288.964L342.136 289.204ZM513.975 602.429L461.031 578.455L405.177 553.038L421.885 405.947C422.928 406.031 423.97 405.769 424.917 405.185L515.127 600.706C514.693 601.114 514.314 601.615 514.005 602.189L513.975 602.429ZM630.051 546.303C630.394 545.479 630.63 544.585 630.748 543.657L716.834 550.392L742.609 552.477C742.654 553.165 742.777 553.841 742.973 554.482L673.988 607.681L629.414 547.546C629.682 547.076 629.906 546.564 630.081 546.022L630.051 546.303ZM715.743 663.768C716.221 662.627 716.376 661.3 716.182 660.022C715.988 658.744 715.456 657.599 714.681 656.792L746.187 558.17C746.525 558.276 746.87 558.343 747.218 558.37L757.922 715.925C756.944 716.191 756.022 716.738 755.223 717.529L715.743 663.968V663.768ZM910.657 511.184C911.4 509.409 911.625 507.335 911.289 505.355C910.954 503.376 910.082 501.627 908.838 500.44L940.283 429.48C941.009 429.913 941.791 430.158 942.587 430.202L946.347 510.903L948.288 552.798C947.659 553.003 947.063 553.356 946.529 553.84L910.142 511.906L910.657 511.184ZM1065.88 560.615C1066.43 559.287 1066.69 557.787 1066.64 556.276C1066.59 554.764 1066.24 553.299 1065.61 552.036L1118.1 495.629C1118.31 495.913 1118.56 496.156 1118.82 496.351C1119.65 496.929 1120.6 497.126 1121.52 496.912L1153.91 620.791L1169.46 680.164C1168.89 680.533 1168.36 681.005 1167.89 681.568L1065.46 561.297C1065.62 561.087 1065.77 560.859 1065.91 560.615H1065.88ZM1141.69 379.928C1142.27 378.494 1142.54 376.865 1142.44 375.238H1143.2L1229.08 354.631C1229.55 356.753 1230.64 358.54 1232.11 359.603C1233.14 360.382 1234.32 360.731 1235.51 360.605L1251.06 487.811C1249.91 488.181 1248.86 488.973 1248.03 490.096L1200.3 440.705L1141.54 380.249L1141.69 379.928ZM1246.39 494.627L1166.73 492.141L1124.83 490.858C1124.75 490.02 1124.53 489.218 1124.17 488.52C1123.81 487.822 1123.33 487.249 1122.77 486.849C1122.57 486.688 1122.35 486.567 1122.13 486.488L1130.71 421.863L1135.71 384.178C1136.63 384.251 1137.54 384.063 1138.39 383.627C1139.25 383.191 1140.02 382.518 1140.66 381.652L1247.3 491.299C1247.3 491.299 1247.3 491.54 1247.15 491.66C1246.75 492.573 1246.49 493.581 1246.39 494.627ZM942.436 297.262C942.436 297.022 942.587 296.781 942.678 296.501L1082.65 354.591L1118.79 486.889C1118.54 487.066 1118.31 487.281 1118.1 487.531L985.373 344.328L942.163 297.824L942.436 297.262ZM1084.29 355.273L1129.25 373.995L1130.01 374.316C1129.74 376.038 1129.89 377.831 1130.43 379.437C1130.98 381.043 1131.89 382.379 1133.04 383.256C1133.45 383.558 1133.89 383.788 1134.35 383.937L1129.41 421.422L1120.89 486.248C1120.62 486.208 1120.36 486.208 1120.1 486.248L1084.29 355.273ZM1064.82 550.673C1064.41 550.128 1063.95 549.656 1063.45 549.27C1062.57 548.617 1061.58 548.258 1060.56 548.223C1059.55 548.188 1058.54 548.478 1057.63 549.069L1044.2 520.405L982.583 389.069L940.707 299.788C940.904 299.582 941.086 299.354 941.253 299.106L1086.07 455.458L1117.25 489.054C1116.9 489.859 1116.71 490.771 1116.71 491.7C1116.71 492.629 1116.9 493.542 1117.25 494.346L1102.09 510.703L1064.82 550.673ZM966.573 358.24L1008.33 447.32L1011.36 453.775L949.016 423.948C949.345 422.178 949.227 420.314 948.679 418.642C948.132 416.969 947.185 415.58 945.983 414.687C945.128 414.06 944.171 413.716 943.194 413.684L937.978 301.432C938.568 301.322 939.14 301.092 939.676 300.75L966.573 358.24ZM1054.3 558.691L950.532 610.808L949.986 565.346C950.756 565.226 951.493 564.865 952.136 564.293C952.779 563.721 953.31 562.955 953.685 562.059C954.12 561.061 954.33 559.921 954.292 558.771L1054.11 557.368C1054.14 557.817 1054.2 558.26 1054.3 558.691ZM952.564 554.121L1012.91 456.862L1056.57 549.951C1055.88 550.64 1055.31 551.515 1054.9 552.517C1054.49 553.523 1054.23 554.627 1054.14 555.764L954.08 557.168C953.799 555.985 953.274 554.93 952.564 554.121ZM951.411 553.199C950.855 552.876 950.259 552.686 949.653 552.637L946.984 495.709L943.952 430.081C944.878 429.913 945.763 429.463 946.536 428.768C947.309 428.072 947.95 427.15 948.409 426.072C948.409 426.072 948.409 425.792 948.409 425.671L1011.66 455.899L951.411 553.199ZM907.747 499.558C906.623 498.886 905.374 498.665 904.156 498.921C902.938 499.178 901.804 499.901 900.894 501.001L847.465 439.222C847.465 439.222 847.616 439.021 847.647 438.901C848.009 438.057 848.207 437.106 848.223 436.135L936.735 423.627C937.06 425.619 937.922 427.386 939.161 428.598L907.747 499.558ZM612.949 311.494C612.644 312.212 612.45 313.002 612.378 313.819C612.306 314.636 612.358 315.464 612.53 316.255C612.702 317.046 612.991 317.783 613.38 318.425C613.77 319.067 614.252 319.6 614.798 319.993C615.357 320.415 615.977 320.674 616.618 320.755L618.073 364.413L620.499 438.26L619.801 438.54L549.392 290.206L572.164 262.384L613.161 310.933L612.949 311.494ZM510.063 338.315L548.391 291.529L618.71 439.462L618.437 439.823L510.639 347.094C511.173 345.706 511.402 344.147 511.3 342.596C511.199 341.044 510.77 339.561 510.063 338.315ZM509.881 348.578L575.864 405.346L617.679 441.427C617.388 442.321 617.291 443.304 617.398 444.267C617.505 445.229 617.812 446.134 618.285 446.879L592.45 487.33L509.548 349.219C509.672 349.018 509.783 348.803 509.881 348.578ZM617.952 320.515C618.432 320.436 618.896 320.232 619.316 319.913L679.355 429.48L744.034 547.265L743.731 547.706L624.896 445.476C625.293 444.281 625.339 442.933 625.025 441.695C624.711 440.457 624.059 439.418 623.198 438.781C622.748 438.447 622.254 438.229 621.742 438.139L617.952 320.515ZM620.378 318.871C620.473 318.785 620.555 318.676 620.62 318.55L652.914 346.613L762.258 442.429C761.498 444.348 761.336 446.584 761.806 448.659C762.277 450.734 763.342 452.483 764.775 453.534C765.059 453.734 765.352 453.908 765.654 454.055L760.529 480.595L748.036 545.18C747.053 545.028 746.058 545.28 745.186 545.902L681.114 429.279L620.378 318.871ZM766.958 454.697C768.21 454.955 769.491 454.71 770.637 453.996C771.783 453.281 772.741 452.129 773.386 450.688C773.883 449.454 774.144 448.077 774.144 446.679L793.187 443.993L839.096 437.538C839.23 438.227 839.456 438.879 839.763 439.462L750.614 547.065C750.373 546.815 750.12 546.587 749.856 546.383L749.31 546.103L753.1 526.458L766.958 454.697ZM773.386 442.67L815.414 404.544L839.672 432.607C839.604 432.721 839.543 432.842 839.49 432.968C839.138 433.804 838.94 434.738 838.914 435.694L773.962 444.875C773.855 444.075 773.65 443.303 773.356 442.589L773.386 442.67ZM815.505 402.339L756.284 333.905L844.584 376.12L815.505 402.339ZM846.161 376.681L936.796 419.979C936.676 420.635 936.615 421.308 936.614 421.983L848.102 434.451C847.954 433.616 847.679 432.83 847.293 432.14C846.907 431.451 846.419 430.873 845.858 430.442C845.023 429.832 844.068 429.574 843.119 429.703C842.17 429.832 841.274 430.341 840.551 431.164L816.536 403.381L846.161 376.681ZM898.892 508.097L752.13 549.711C751.98 549.202 751.787 548.718 751.554 548.267L840.703 440.665C840.919 440.898 841.152 441.099 841.4 441.267C842.229 441.879 843.18 442.139 844.125 442.01C845.069 441.881 845.96 441.369 846.676 440.545L900.014 502.284C900.014 502.524 899.741 502.765 899.62 503.046C898.988 504.56 898.733 506.3 898.892 508.017V508.097ZM713.559 655.99C712.979 655.722 712.361 655.622 711.749 655.699C711.137 655.775 710.544 656.024 710.012 656.431L674.959 608.924L743.64 555.925C744.018 556.537 744.469 557.065 744.974 557.488L713.559 655.99ZM708.071 662.284L558.883 698.566L673.776 609.886L708.981 657.554C708.802 657.844 708.64 658.153 708.496 658.476C708.028 659.614 707.878 660.934 708.071 662.204V662.284ZM630.839 541.612C630.804 540.187 630.49 538.798 629.926 537.582C629.363 536.366 628.57 535.365 627.625 534.677C626.806 534.075 625.892 533.732 624.956 533.675L622.167 448.523C622.959 448.295 623.679 447.749 624.229 446.959L743.033 549.19C742.88 549.669 742.759 550.166 742.669 550.673L685.056 545.982L630.839 541.612ZM623.622 533.594C622.76 533.771 621.934 534.181 621.196 534.797L608.461 513.629L593.299 488.453L619.347 447.761C619.802 448.07 620.295 448.273 620.802 448.362L623.622 533.594ZM618.589 544.419L590.024 561.297L521.677 601.868C521.563 601.624 521.431 601.396 521.283 601.187L554.638 549.069L592.481 489.896L597.15 497.633L620.226 535.96C619.787 536.515 619.409 537.149 619.104 537.844C618.683 538.866 618.43 539.995 618.362 541.156C618.294 542.317 618.413 543.483 618.71 544.579L618.589 544.419ZM520.282 599.864C519.72 599.467 519.099 599.235 518.463 599.182L507.243 372.391L506.212 351.504C507.027 351.304 507.808 350.91 508.517 350.342L591.723 488.573L520.282 599.864ZM516.977 599.142C516.706 599.212 516.442 599.319 516.189 599.463L425.978 404.063C426.667 403.364 427.244 402.492 427.676 401.497C428.107 400.442 428.362 399.277 428.425 398.081C428.488 396.885 428.357 395.685 428.04 394.561L483.986 357.959L499.693 347.696C500.252 348.875 501.022 349.853 501.937 350.542C502.803 351.168 503.77 351.511 504.757 351.544L516.977 599.142ZM425.22 390.031C424.178 389.258 422.986 388.909 421.794 389.029L408.907 284.794L483.167 330.657L499.056 340.48C498.552 342.277 498.552 344.254 499.056 346.052L445.87 380.931L427.404 392.958C426.87 391.759 426.12 390.753 425.22 390.031ZM420.49 389.269L419.459 389.791L386.104 317.227L357.419 255.007C357.814 254.592 358.152 254.09 358.419 253.524L407.603 283.872L420.49 389.269ZM399.567 220.249L407.178 281.787L373.823 261.181L358.844 251.92C359.17 250.619 359.17 249.213 358.844 247.911L399.567 220.249ZM503.483 335.228C502.674 335.48 501.912 335.944 501.24 336.591C500.569 337.238 500.001 338.056 499.572 338.996L408.603 282.87L400.78 219.607L482.803 164.042C483.218 164.865 483.781 165.54 484.441 166.007C485.152 166.542 485.957 166.818 486.776 166.809L503.483 335.228ZM519.797 231.394L547.664 290.006L509.123 337.032C508.784 336.653 508.419 336.317 508.032 336.03C507.054 335.295 505.941 334.934 504.818 334.987L498.753 273.208L488.14 166.528C488.387 166.425 488.63 166.305 488.868 166.167L519.797 231.394ZM489.959 165.205L571.133 261.422L548.634 288.883L522.314 233.479L489.929 165.325L489.959 165.205ZM638.298 179.357L572.164 260.139L490.869 163.922C490.96 163.785 491.041 163.637 491.112 163.481C491.345 162.903 491.509 162.281 491.597 161.637L637.146 174.746C637.169 176.408 637.583 178.019 638.329 179.357H638.298ZM641.331 182.203L617.679 308.287C616.399 308.132 615.124 308.65 614.131 309.73L573.226 261.301L639.329 180.64C639.66 181.044 640.026 181.394 640.421 181.682L641.331 182.203ZM711.679 325.245L621.742 314.22C621.707 313.156 621.466 312.121 621.041 311.215C620.616 310.309 620.022 309.563 619.316 309.049L618.801 308.768L642.453 182.644C643.663 182.854 644.894 182.604 646 181.923L711.679 325.245ZM764.138 439.944C763.741 440.32 763.384 440.765 763.077 441.267L668.651 358.56L621.439 317.187C621.577 316.8 621.688 316.397 621.772 315.984L712.529 327.089L764.138 439.944ZM766.23 438.54C765.897 438.665 765.573 438.826 765.26 439.021L714.166 327.29L749.431 331.62C749.472 332.445 749.668 333.244 750.002 333.944C750.336 334.644 750.796 335.223 751.342 335.629C751.886 336.038 752.504 336.246 753.131 336.23L766.23 438.54ZM754.435 335.829C754.81 335.631 755.166 335.375 755.496 335.067L814.474 403.221L772.719 441.106C772.244 440.322 771.656 439.668 770.991 439.182C769.948 438.409 768.756 438.06 767.564 438.18L754.435 335.829ZM931.459 297.182L846.04 374.637L756.83 332.021C756.845 331.78 756.845 331.539 756.83 331.299L930.852 295.218C930.959 295.899 931.132 296.56 931.368 297.182H931.459ZM936.705 301.512L941.617 406.869L941.951 413.684C941.024 413.87 940.141 414.326 939.365 415.02C938.588 415.713 937.939 416.626 937.463 417.693C937.451 417.827 937.451 417.961 937.463 418.094L904.35 402.299L847.707 375.238L932.338 298.465C932.821 299.23 933.407 299.868 934.067 300.349C934.839 300.984 935.71 301.382 936.614 301.512H936.705ZM1082.25 352.547L943.163 294.857C943.486 292.69 943.148 290.442 942.223 288.603L1032.92 189.58C1033.26 190.042 1033.64 190.434 1034.07 190.742C1035.3 191.65 1036.74 191.907 1038.1 191.464L1082.25 352.547ZM1039.47 190.783L1132.1 369.545C1131.51 370.174 1131.02 370.95 1130.65 371.83C1130.57 372.064 1130.49 372.305 1130.44 372.552L1083.74 353.188L1039.38 190.863L1039.47 190.783ZM1183.14 309.129L1140.02 369.264C1139.78 369.014 1139.53 368.787 1139.26 368.583C1138.33 367.902 1137.29 367.544 1136.23 367.544C1135.17 367.544 1134.12 367.902 1133.2 368.583L1040.56 189.78C1040.79 189.506 1041 189.212 1041.2 188.898L1183.14 309.129ZM1184.26 310.091L1229.53 348.417C1229.03 349.762 1228.8 351.252 1228.86 352.747L1205.03 358.48L1142.23 373.514C1141.99 372.382 1141.56 371.339 1140.96 370.467L1184.26 310.091ZM1233.5 344.088C1232.22 344.563 1231.09 345.559 1230.26 346.934L1185.2 308.768L1220.83 259.096L1221.16 259.417C1221.79 259.877 1222.5 260.112 1223.22 260.099L1233.5 344.088ZM1224.41 259.898C1225.18 259.575 1225.86 258.962 1226.38 258.134L1315.8 328.052C1315.35 329.3 1315.15 330.681 1315.22 332.061L1241.21 349.941C1240.99 348.882 1240.6 347.894 1240.08 347.039C1239.56 346.184 1238.91 345.479 1238.17 344.97C1237.13 344.214 1235.94 343.866 1234.75 343.967L1224.41 259.898ZM1323.96 324.043C1322.66 323.322 1321.22 323.196 1319.86 323.682C1318.51 324.169 1317.31 325.241 1316.47 326.729L1227.17 256.531C1227.42 255.704 1227.52 254.812 1227.47 253.925L1372.72 203.571C1372.96 204.273 1373.32 204.89 1373.78 205.375L1323.96 324.043ZM1255.03 488.413C1254.15 487.91 1253.2 487.677 1252.24 487.731L1236.69 360.565C1238.1 360.065 1239.34 358.925 1240.19 357.344C1241.04 355.762 1241.44 353.838 1241.33 351.905L1315.59 333.905C1316 335.703 1316.85 337.269 1318.01 338.355L1255.03 488.413ZM1174.5 680.405C1173.27 679.726 1171.91 679.571 1170.61 679.964L1169.55 675.955L1122.67 496.792C1123.36 496.301 1123.93 495.564 1124.31 494.667C1124.52 494.156 1124.67 493.599 1124.74 493.023L1225.2 496.15L1246.42 496.832C1246.5 498.048 1246.79 499.225 1247.25 500.279C1247.72 501.333 1248.36 502.237 1249.12 502.925L1174.5 680.405ZM957.324 721.618L1015.94 712.397L1166.1 689.505C1166.41 691.544 1167.31 693.341 1168.61 694.517L1131.16 783.838C1130.2 783.367 1129.14 783.367 1128.17 783.837C1127.2 784.307 1126.39 785.217 1125.89 786.404C1125.9 786.537 1125.9 786.671 1125.89 786.805L957.567 722.66C957.553 722.189 957.513 721.72 957.445 721.257L957.324 721.618ZM955.656 716.085L1056.63 563.742L1057.18 564.263C1058.33 565.106 1059.66 565.446 1060.97 565.238C1062.28 565.029 1063.51 564.282 1064.48 563.101L1166.92 683.372C1166.92 683.612 1166.64 683.853 1166.52 684.133C1166.01 685.359 1165.75 686.741 1165.76 688.142L957.173 719.894C957.01 718.36 956.527 716.916 955.778 715.725L955.656 716.085ZM951.593 713.399L950.441 613.174L1054.63 560.655C1054.89 561.334 1055.23 561.956 1055.63 562.5L1029.77 601.547L954.777 714.762L954.231 714.241C953.462 713.622 952.606 713.213 951.715 713.039L951.593 713.399ZM836.367 670.703L949.228 613.494L950.411 713.079C949.436 713.212 948.499 713.644 947.672 714.34C946.846 715.036 946.153 715.976 945.65 717.088C945.557 717.32 945.475 717.562 945.407 717.809L836.458 672.267C836.529 671.626 836.508 670.973 836.397 670.342L836.367 670.703ZM836.67 668.699L945.438 563.221C945.849 563.998 946.388 564.642 947.014 565.105C947.517 565.458 948.06 565.702 948.622 565.827L949.167 612.011L836.67 668.699ZM834.972 667.616L902.531 515.033C903.655 515.704 904.903 515.926 906.121 515.669C907.339 515.413 908.473 514.69 909.384 513.589L945.559 555.444L945.104 556.326C944.772 557.136 944.573 558.03 944.521 558.949C944.469 559.868 944.564 560.791 944.801 561.658L835.245 667.937L834.972 667.616ZM830.029 667.295L795.734 618.546L751.281 556.005L751.766 555.083C752.236 553.973 752.437 552.7 752.342 551.435L899.165 509.701C899.586 511.308 900.369 512.707 901.409 513.71L853.59 621.713L834.002 666.373C833.364 666.006 832.665 665.865 831.974 665.963C831.283 666.062 830.623 666.397 830.06 666.935L830.029 667.295ZM759.226 716.125L748.582 558.41C749.204 558.214 749.791 557.86 750.311 557.368L794.733 619.949L829.089 668.338C828.954 668.551 828.832 668.779 828.725 669.019C828.45 669.696 828.284 670.441 828.237 671.207C828.19 671.972 828.263 672.743 828.452 673.469L764.259 719.373C763.705 718.308 762.98 717.418 762.137 716.767C761.247 716.145 760.262 715.802 759.256 715.765L759.226 716.125ZM711.589 666.654C712.158 666.751 712.736 666.695 713.289 666.488C713.841 666.282 714.356 665.929 714.803 665.451L754.222 718.892C753.966 719.286 753.742 719.717 753.555 720.175C753.098 721.27 752.834 722.488 752.782 723.737C752.729 724.986 752.89 726.235 753.252 727.391L673.867 784.439L711.589 666.654ZM557.215 700.771L708.556 663.968C708.918 664.826 709.454 665.534 710.103 666.013H710.315L689.817 730.157L672.29 785.001L557.215 700.771ZM557.215 697.924L578.957 648.293L622.136 549.671C623.179 550.299 624.333 550.538 625.472 550.362C626.61 550.185 627.69 549.599 628.595 548.668L672.927 608.804L557.215 697.924ZM520.676 610.006C521.224 609.516 521.672 608.855 521.98 608.082C522.273 607.408 522.458 606.663 522.526 605.891C522.594 605.119 522.542 604.337 522.374 603.592L588.387 564.304L619.043 546.143C619.473 547.153 620.062 548.028 620.772 548.708L577.35 647.852L555.214 698.406L520.676 610.006ZM401.387 586.474L404.995 554.682L513.52 604.073C513.376 605.094 513.437 606.148 513.697 607.128C513.958 608.109 514.408 608.982 515.004 609.659C515.599 610.337 516.319 610.797 517.091 610.991C517.863 611.186 518.66 611.109 519.403 610.768L553.668 698.165L401.387 586.474ZM281.126 498.275L403.721 554L400.143 585.471L281.126 498.275ZM278.458 492.382L373.611 430.121L416.821 402.058C417.377 403.254 418.162 404.235 419.095 404.905C419.55 405.251 420.04 405.507 420.551 405.666L403.903 552.397L278.579 495.188C278.738 494.229 278.696 493.231 278.458 492.301V492.382ZM307.841 393.8L415.851 398.049C415.906 398.817 416.039 399.572 416.245 400.294L277.882 490.738C277.533 490.083 277.09 489.524 276.578 489.094L307.841 393.8ZM272.06 489.014L217.691 393.599C218.023 393.186 218.308 392.714 218.54 392.196C218.798 391.557 218.972 390.866 219.056 390.151L306.416 393.679L275.365 488.413C274.254 488.016 273.069 488.202 272.06 488.934V489.014ZM212.536 395.042C213.198 395.373 213.907 395.512 214.613 395.45C215.319 395.388 216.007 395.126 216.63 394.682L270.999 489.976C270.871 490.145 270.759 490.334 270.665 490.537L195.586 435.453L212.536 395.042ZM282.461 228.387L334.009 291.249C333.831 291.54 333.668 291.848 333.524 292.171C333.121 293.123 332.864 294.172 332.767 295.256C332.671 296.34 332.737 297.439 332.963 298.489C333.188 299.539 333.568 300.52 334.081 301.376C334.593 302.232 335.228 302.946 335.95 303.476L306.931 391.915L218.995 388.387C218.921 387.515 218.71 386.672 218.375 385.913C218.041 385.154 217.591 384.495 217.054 383.978L282.461 228.387ZM297.288 192.907L335.525 289.124C335.29 289.329 335.067 289.556 334.858 289.805L283.128 226.824L297.288 192.907ZM371.579 15.9889C371.942 16.1911 372.318 16.352 372.701 16.47L354.053 243.702C352.839 243.745 351.681 244.389 350.808 245.506L298.228 190.823L371.579 15.9889Z" fill="url(#paint3_linear_1234_5494)"/>
<path opacity="0.25" d="M1223.92 258.494L1235.08 350.622L1229.68 353.348L1137.71 375.277L1139.05 372.11L1221.71 256.33L1223.92 258.494Z" fill="url(#paint4_linear_1234_5494)"/>
<path opacity="0.45" d="M937.281 299.147L942.618 420.259L938.524 419.738L846.161 375.559L932.581 296.661L937.281 299.147Z" fill="url(#paint5_linear_1234_5494)"/>
<path opacity="0.29" d="M642.422 179.717L616.647 316.305L620.256 315.262L712.68 326.127L645.727 179.557L642.422 179.717Z" fill="url(#paint6_linear_1234_5494)"/>
<path opacity="0.23" d="M624.168 538.325L621.621 445.917L623.501 445.155L746.005 550.753L743.67 552.035L628.716 542.374L624.168 538.325Z" fill="url(#paint7_linear_1234_5494)"/>
<path opacity="0.48" d="M505.059 349.099L517.915 603.191L515.945 600.385L424.279 402.459L427.19 394.12L500.086 346.613L505.059 349.099Z" fill="url(#paint8_linear_1234_5494)"/>
<path opacity="0.3" d="M340.407 292.292L353.446 251.159L356.144 254.807L419.61 392.197L417.912 392.317L342.954 301.072L340.407 292.292Z" fill="url(#paint9_linear_1234_5494)"/>
<path opacity="0.69" d="M373.55 14.6255L354.326 245.906L358.207 247.63L400.022 219.086L375.097 15.2669L373.55 14.6255Z" fill="url(#paint10_linear_1234_5494)"/>
<path opacity="0.34" d="M714.014 662.645L759.377 724.464L753.798 728.233L672.896 786.364L711.588 664.289L714.014 662.645Z" fill="url(#paint11_linear_1234_5494)"/>
<path opacity="0.2" d="M1063.85 552.116L1119.73 493.143L1121.92 496.03L1171.1 682.409L1168.1 683.411L1064.42 561.136L1063.85 552.116Z" fill="url(#paint12_linear_1234_5494)"/>
<path opacity="0.59" d="M712.709 661.683L756.768 720.856L758.83 716.646L747.884 556.085L746.155 556.205L712.709 661.683Z" fill="url(#paint13_linear_1234_5494)"/>
<path d="M1438.42 159.793L1439 158.751C1391.97 113.409 1335.9 85.1048 1271.98 74.5611C1214.82 65.3002 1151.39 69.3093 1078.07 87.4301C942.648 120.625 799.1 194.832 660.282 266.634C549.725 323.802 445.294 377.804 353.598 406.388C250.712 438.46 178.938 433.85 127.693 391.755C74.628 348.137 44.7601 264.108 36.5123 134.857H35.542C43.9717 264.549 74.0216 348.859 127.359 392.717C178.908 434.973 250.773 439.703 353.961 407.511C445.718 378.886 550.18 324.885 660.798 267.676C799.585 195.914 943.072 121.707 1078.37 88.5526C1231.93 50.988 1349.76 74.2404 1438.42 159.793Z" fill="url(#paint14_linear_1234_5494)"/>
<path d="M1437.94 162.318L1438.49 161.316C1345.76 72.7564 1224.95 48.7825 1069.15 87.9908C932.369 122.508 788.912 199.041 650.215 273.088C542.478 330.617 440.715 384.939 351.324 414.125C251.259 446.879 180.788 443.311 129.967 402.9C76.751 360.645 45.8825 277.778 35.6637 149.489H34.6934C44.9728 278.299 75.9627 361.567 129.452 404.062C180.546 444.634 251.077 448.162 351.566 415.408C441.018 386.182 542.812 331.82 650.579 274.29C789.245 200.284 932.581 123.751 1069.34 89.3137C1224.86 50.1055 1345.43 73.9992 1437.94 162.318Z" fill="url(#paint15_linear_1234_5494)"/>
<path d="M1437.43 164.884L1438 163.842C1221.59 -40.6185 912.873 129.444 640.514 279.623C535.536 337.473 436.411 392.116 349.263 421.943C251.654 455.298 182.7 452.813 132.243 413.925C78.9662 373.153 47.0363 291.289 34.9679 163.802H33.9976C46.1267 291.73 78.0869 373.875 131.728 415.048C182.428 453.935 251.624 456.461 349.476 423.066C436.684 393.279 535.87 338.595 640.847 280.705C912.994 130.767 1221.47 -39.2955 1437.43 164.884Z" fill="url(#paint16_linear_1234_5494)"/>
<path d="M1436.94 167.41L1437.48 166.408C1212.25 -44.5874 903.501 131.168 631.081 286.197C528.833 344.408 432.255 399.412 347.29 429.801C252.198 463.797 184.578 462.194 134.455 425.271C80.9352 385.701 48.1563 305 34.3898 178.274H33.4194C47.3679 305.32 80.2984 386.423 134.091 426.233C184.457 463.477 252.35 464.96 347.654 430.843C432.558 400.455 529.318 345.451 631.597 287.2C903.743 132.451 1212.13 -42.9437 1436.94 167.41Z" fill="url(#paint17_linear_1234_5494)"/>
<path d="M1436.43 169.975L1436.97 168.933C1332.81 72.2349 1204.4 46.2163 1044.41 89.3534L1042.99 89.7543C902.35 128.081 759.864 211.829 622.047 292.852C522.436 351.383 428.345 406.708 345.473 437.658C252.806 472.296 186.491 471.895 136.701 436.415C83.0292 398.169 49.28 318.429 33.6031 192.666L32.6328 192.907C48.4007 319.071 82.3015 399.091 136.276 437.457C186.278 473.098 252.867 473.538 345.776 438.82C428.709 407.831 522.831 352.506 622.471 293.934C760.197 213.072 902.654 129.444 1043.23 91.0372L1044.66 90.6764C1204.33 47.4992 1332.48 73.3173 1436.43 169.975Z" fill="url(#paint18_linear_1234_5494)"/>
<path d="M1435.94 172.541L1436.48 171.499C1328.02 71.6342 1196.51 45.2548 1034.44 90.3964C892.676 130.046 750.675 216.24 613.313 299.628C516.28 358.52 424.644 414.125 343.804 445.676C253.503 480.956 188.4 481.758 138.974 447.681C85.09 410.758 50.4007 332.101 32.8439 207.139L31.8735 207.38C49.4911 332.702 84.3622 411.84 138.488 448.763C188.157 482.84 253.503 482.239 344.046 446.879C424.948 415.288 516.644 359.643 613.707 300.71C885.338 135.899 1193.21 -50.9619 1435.94 172.541Z" fill="url(#paint19_linear_1234_5494)"/>
<path d="M1435.42 175.067L1435.97 174.024C1323.53 71.3129 1189.42 44.1718 1025.98 91.0373C883.155 132.01 735.362 224.658 604.944 306.402C413.911 426.232 248.682 529.705 141.218 458.745C87.1828 423.265 51.6748 345.691 32.1773 221.651L31.2373 221.932C50.6439 346.212 86.4854 424.228 140.793 460.028C190.159 492.541 254.261 490.938 342.561 454.937C421.4 422.865 510.822 366.738 605.338 307.565C876.454 137.462 1183.65 -54.9715 1435.42 175.067Z" fill="url(#paint20_linear_1234_5494)"/>
<path d="M1434.94 177.552L1435.45 176.51C1318.98 70.8723 1182.32 43.0496 1017.61 91.5588C873.816 133.894 726.69 229.149 596.878 313.178C410.879 433.449 250.259 537.683 143.492 470.011C89.2752 435.734 52.524 359.201 31.48 236.044L30.54 236.325C51.766 359.883 88.5778 436.776 143.098 471.174C183.003 496.39 230.367 497.794 283.674 483.401C373.551 459.106 480.409 389.951 597.303 314.3C867.63 139.387 1174.04 -58.9801 1434.94 177.552Z" fill="url(#paint21_linear_1234_5494)"/>
<path d="M278.883 493.464C367.941 469.41 473.707 398.691 589.57 321.076C858.988 141.151 1164.52 -62.9889 1434.39 180.199L1434.94 179.116C1314.38 70.5918 1175.13 42.248 1009.3 92.2807C864.598 135.979 718.2 233.799 589.116 320.114C408.149 441.106 251.805 545.581 145.675 481.317C91.2764 448.362 53.6458 373.073 30.6915 250.597L29.7515 250.918C52.7968 373.594 90.5789 449.365 145.281 482.479C183.761 505.732 228.669 507.014 278.883 493.464Z" fill="url(#paint22_linear_1234_5494)"/>
<path d="M274.487 503.486C362.726 479.432 467.34 407.269 582.142 328.171C837.217 152.135 1154.64 -66.9986 1433.91 182.724L1434.39 181.561C1309.77 70.1502 1168.04 41.2451 1001.08 92.8012C855.532 137.863 709.983 238.329 581.626 326.928C405.512 448.522 253.382 553.519 148.011 492.461C93.4298 460.83 54.8289 386.382 30.0552 264.949L29.1152 265.27C53.9799 387.104 92.793 461.712 147.617 493.784C184.58 515.112 227.184 516.275 274.487 503.486Z" fill="url(#paint23_linear_1234_5494)"/>
<path d="M270.423 513.549C357.874 489.936 461.456 416.21 575.015 335.148C828.908 154.18 1144.87 -71.0069 1433.42 185.29L1433.97 184.248C1305.22 69.8703 1161.06 40.2035 993.045 93.5636C846.768 139.988 702.158 243.06 574.591 334.105C403.176 456.3 255.11 561.858 150.345 503.888C95.5515 473.579 56.0106 400.214 29.4175 279.623L28.4775 279.983C55.1616 400.976 94.9147 474.582 149.981 505.05C185.458 524.614 225.879 525.576 270.423 513.549Z" fill="url(#paint24_linear_1234_5494)"/>
<path d="M266.693 523.692C353.416 500.279 455.634 424.99 568.223 342.123C820.75 156.225 1135.05 -75.016 1432.91 187.856L1433.45 186.773C1300.61 69.5095 1153.94 39.2012 985.07 94.205C838.095 142.033 694.517 247.751 567.768 341.041C400.992 463.877 256.747 569.956 152.619 515.073C97.6132 486.248 57.0716 413.765 28.6895 294.015L27.7495 294.376C56.2529 414.647 96.9764 487.09 152.255 516.235C186.368 534.356 224.726 535.038 266.693 523.692Z" fill="url(#paint25_linear_1234_5494)"/>
<path d="M263.267 533.875C349.262 510.663 450.267 433.85 561.703 349.139C812.776 158.309 1125.1 -79.025 1432.42 190.382L1432.94 189.339C1295.97 69.0685 1146.87 38.2391 977.156 94.8064C829.575 144.037 686.997 252.441 561.097 348.057C398.749 471.575 258.445 578.215 154.772 526.338C99.5541 498.676 58.0423 427.395 27.8711 308.528L26.9614 308.929C57.2842 428.197 98.9477 499.718 154.317 527.541C187.308 543.938 223.696 544.579 263.267 533.875Z" fill="url(#paint26_linear_1234_5494)"/>
<path d="M260.113 544.138C345.472 521.086 445.233 442.75 555.487 356.195C804.892 160.394 1115.28 -83.3146 1431.81 192.947L1432.36 191.865C1291.21 68.7478 1139.75 37.1968 969.271 95.6484C821.205 146.082 679.78 257.132 555.032 355.113C396.838 479.392 260.204 586.554 157.197 537.563C101.767 511.184 59.2853 440.986 27.416 322.92L26.5063 323.361C58.5878 441.788 101.282 512.267 156.894 538.766C188.278 553.72 222.846 554.401 260.113 544.138Z" fill="url(#paint27_linear_1234_5494)"/>
<path d="M257.232 554.401C341.984 531.509 440.503 451.609 549.544 363.21C797.159 162.438 1105.36 -87.4046 1431.36 195.472L1431.88 194.43C1286.63 68.3461 1132.8 36.1536 961.66 96.0886C813.079 148.206 672.775 261.822 549.028 362.168C394.988 487.049 261.932 594.972 159.472 548.828C103.829 523.772 60.3767 454.616 26.5669 337.392L25.6875 337.873C59.5884 455.458 103.253 524.854 159.108 550.031C189.309 563.621 222.088 563.902 257.232 554.401Z" fill="url(#paint28_linear_1234_5494)"/>
<path d="M254.593 564.785C338.769 542.054 436.045 460.55 543.872 370.307C789.487 164.524 1095.38 -91.5329 1430.9 197.919L1431.45 196.836C1281.96 67.8258 1125.8 35.032 954.048 96.6107C804.982 150.011 665.982 266.433 543.357 369.224C393.29 494.867 263.69 603.392 161.775 560.094C105.921 536.361 61.4675 468.247 25.8686 351.865L24.9893 352.346C60.6792 469.089 105.345 537.443 161.442 561.297C190.37 573.565 221.481 573.725 254.593 564.785Z" fill="url(#paint29_linear_1234_5494)"/>
<path d="M252.199 575.208C335.86 552.597 431.862 469.57 538.477 377.362C782.15 166.608 1085.41 -95.703 1430.42 200.604L1430.94 199.522C1085.41 -97.1864 781.847 165.525 537.961 376.32C391.775 502.724 265.511 611.93 164.081 571.359C107.984 548.948 62.5608 481.877 25.1728 366.337L24.2935 366.818C61.8027 482.759 107.438 550.031 163.778 572.562C191.463 583.627 220.967 583.627 252.199 575.208Z" fill="url(#paint30_linear_1234_5494)"/>
<path d="M250.017 585.672C333.192 563.181 427.951 478.55 533.353 384.418C774.843 168.693 1075.43 -99.7518 1429.91 203.13L1430.42 202.088C1075.4 -101.275 774.54 167.45 532.868 383.376C390.351 510.623 267.392 620.51 166.447 582.625C110.077 561.537 63.8048 495.509 24.3852 380.81L23.5059 381.331C62.9255 496.391 109.441 562.66 166.023 583.867C192.586 593.77 220.574 593.609 250.017 585.672Z" fill="url(#paint31_linear_1234_5494)"/>
<path d="M248.015 596.175C330.826 573.845 424.311 487.571 528.47 391.474C767.686 170.777 1065.43 -103.881 1429.42 205.616L1429.94 204.533C1065.4 -105.404 767.292 169.535 527.924 390.432C389.106 518.721 269.21 629.089 168.69 593.93C112.138 574.126 64.7438 509.139 23.7777 395.283L22.9287 395.804C64.0161 510.061 111.592 575.248 168.478 595.133C193.767 603.993 220.3 603.672 248.015 596.175Z" fill="url(#paint32_linear_1234_5494)"/>
<path d="M246.196 606.759C328.674 584.508 420.916 496.591 523.831 398.53C760.652 172.862 1055.36 -107.971 1428.9 208.221L1429.42 207.179C1263.13 66.3818 1098.02 31.0623 924.668 99.1757C774.418 158.189 640.998 285.315 523.285 397.487C387.955 526.337 271.091 637.788 170.995 605.195C114.201 586.713 65.8361 522.769 23.081 409.755L22.2319 410.316C65.1083 523.692 113.685 587.876 170.813 606.438C195.607 613.994 221.366 614.104 246.196 606.759Z" fill="url(#paint33_linear_1234_5494)"/>
<path d="M244.559 617.423C326.764 595.213 417.762 505.651 519.435 405.546C753.769 174.947 1045.38 -112.06 1428.33 210.787L1428.84 209.705C1258.52 65.9812 1091.14 30.0203 917.542 99.7373C767.172 160.153 635.268 290.006 518.858 404.423C386.954 534.356 273.032 646.609 173.3 616.501C116.293 599.342 66.9279 536.32 22.3837 424.068L21.5347 424.629C66.2001 537.202 115.778 600.304 173.149 617.543C196.682 624.286 221.038 624.245 244.559 617.423Z" fill="url(#paint34_linear_1234_5494)"/>
<path d="M243.072 628.087C324.943 605.957 414.82 514.712 515.279 412.562C746.976 176.991 1035.35 -116.149 1427.9 213.353L1428.42 212.271C1253.67 65.6207 1084.29 28.9782 910.537 100.339C760.075 162.118 629.718 294.616 514.703 411.56C386.074 542.374 274.972 655.268 175.604 627.766C118.354 611.73 67.9883 550.072 21.6855 438.701L20.8364 439.302C67.2909 551.034 117.869 613.093 175.483 629.009C197.82 634.861 220.831 634.547 243.072 628.087Z" fill="url(#paint35_linear_1234_5494)"/>
<path d="M241.738 638.831C323.609 616.742 412.122 523.772 511.368 419.538C740.335 178.996 1025.34 -120.198 1427.39 215.879L1427.9 214.837C1248.97 65.3001 1077.46 27.976 903.745 100.9C753.253 164.042 624.502 299.227 510.883 418.535C385.225 550.392 276.943 664.088 177.939 639.072C120.326 624.519 69.0801 563.742 20.9882 453.133L20.1392 453.775C68.413 564.704 119.962 625.722 177.818 640.315C198.99 645.396 220.713 644.892 241.738 638.831Z" fill="url(#paint36_linear_1234_5494)"/>
<path d="M240.555 649.656C322.426 627.566 409.635 532.833 507.638 426.473C733.937 181.121 1015.3 -124.247 1426.9 218.445L1427.42 217.362C1244.24 65.0192 1070.67 26.9335 896.77 101.421C746.278 165.926 619.165 303.837 507.001 425.511C384.649 558.41 279.095 672.948 180.243 650.377C122.63 637.147 70.1714 577.373 20.2904 467.606L19.4717 468.287C69.5043 578.375 122.054 638.35 180.182 651.62C200.222 655.975 220.702 655.308 240.555 649.656Z" fill="url(#paint37_linear_1234_5494)"/>
<path d="M239.493 660.48C321.364 638.43 407.329 541.893 504.15 433.408C727.447 183.165 1005.29 -128.296 1426.39 220.93L1426.9 219.888C1239.51 64.4576 1063.91 25.8506 890.189 101.942C739.728 167.77 614.252 308.327 503.634 432.366C384.132 566.428 281.005 681.848 182.577 661.642C124.448 649.775 71.2318 591.043 19.5922 482.238L18.7734 482.92C70.595 592.206 124.115 651.299 182.516 663.085C201.474 666.727 220.771 665.844 239.493 660.48Z" fill="url(#paint38_linear_1234_5494)"/>
<path d="M238.523 671.385C320.394 649.295 405.298 551.114 500.845 440.265C721.14 185.17 995.318 -132.305 1425.9 223.537L1426.39 222.454C1234.81 64.1378 1057.21 24.8894 883.609 102.464C733.269 169.655 609.522 312.898 500.39 439.222C383.708 574.447 283.067 690.709 184.912 672.949C126.632 662.365 72.3236 604.795 18.8646 496.551L18.0762 497.273C71.6868 605.717 126.207 663.568 184.851 674.191C202.732 677.306 220.884 676.357 238.523 671.385Z" fill="url(#paint39_linear_1234_5494)"/>
<path d="M237.705 682.369C319.577 660.239 403.359 560.053 497.753 447.079C714.986 187.174 985.344 -136.274 1425.3 226.102L1425.81 225.019C1230.02 63.7761 1050.45 23.8462 876.97 102.984C726.721 171.459 604.732 317.387 497.117 446.157C383.406 582.223 285.161 699.728 187.248 684.253C128.695 674.992 73.3863 618.545 18.3201 511.023L17.5317 511.745C72.9314 619.387 128.452 676.115 187.339 685.496C204.146 688.048 221.154 686.992 237.705 682.369Z" fill="url(#paint40_linear_1234_5494)"/>
<path d="M236.947 693.354C319.061 671.184 401.63 569.074 494.842 453.855C708.951 189.259 975.398 -140.243 1424.9 228.627L1425.39 227.545C1225.26 63.4154 1043.87 22.8441 870.481 103.466C720.444 173.223 600.244 321.837 494.206 452.932C383.194 590.202 287.313 708.708 189.583 695.559C130.757 687.541 74.3565 632.016 17.471 525.496L16.7129 526.217C73.8713 633.058 130.393 688.864 189.553 696.802C205.391 698.867 221.376 697.704 236.947 693.354Z" fill="url(#paint41_linear_1234_5494)"/>
<path d="M236.31 704.419C318.666 682.169 400.052 578.175 492.112 460.59C703.007 191.143 965.451 -144.172 1424.39 231.193L1424.9 230.111C1220.71 63.0948 1037.16 21.8019 864.112 103.907C714.287 174.947 595.907 326.207 491.445 459.668C383.072 598.139 289.465 717.769 191.917 706.744C132.848 700.129 75.5382 645.566 16.7727 539.848L16.0146 540.61C74.9621 646.609 132.454 701.372 191.887 707.987C206.747 709.635 221.71 708.434 236.31 704.419Z" fill="url(#paint42_linear_1234_5494)"/>
<path d="M235.763 715.524C318.454 693.194 398.688 587.235 489.565 467.245C697.185 193.108 955.565 -148.06 1423.87 233.679L1424.39 232.597C1216.07 62.7745 1030.67 20.8 857.835 104.348C708.283 176.511 591.722 330.577 488.868 466.363C383.041 606.118 291.77 726.95 194.252 718.17C134.91 712.878 76.6296 659.318 16.075 554.402L15.2866 555.203C75.9322 660.4 134.516 714.121 194.191 719.573C208.123 720.711 222.108 719.348 235.763 715.524Z" fill="url(#paint43_linear_1234_5494)"/>
<path d="M235.279 726.789C318.364 704.338 397.476 596.375 487.171 473.94C691.485 195.032 945.681 -151.949 1423.39 236.285L1423.87 235.202C1211.34 62.4532 1024.16 19.7972 851.65 104.789C702.371 178.314 587.842 334.867 486.473 472.978C383.133 614.055 293.863 735.889 196.588 729.555C136.973 725.546 77.692 673.068 15.3787 569.194L14.6206 569.996C77.1158 674.11 136.579 726.789 196.557 730.798C209.541 731.631 222.552 730.284 235.279 726.789Z" fill="url(#paint44_linear_1234_5494)"/>
<path d="M234.885 737.935C318.425 715.364 396.384 605.356 484.927 480.395C601.973 315.263 735.727 126.558 923.273 75.924C1057.63 39.6022 1219.59 74.1199 1422.87 238.851L1423.39 237.768C1206.67 62.173 1017.67 18.7953 845.525 105.39C696.58 180.119 583.779 339.277 484.229 479.753C383.285 622.194 296.077 745.191 198.923 740.981C139.035 738.175 78.7837 686.699 14.6814 583.387L13.9233 584.188C78.2076 687.782 138.732 739.418 198.892 742.024C210.969 742.511 223.048 741.139 234.885 737.935Z" fill="url(#paint45_linear_1234_5494)"/>
<path d="M234.52 749.16C318.605 726.469 395.473 614.377 482.864 486.89C580.624 344.248 691.484 182.564 839.854 106.754C1011.24 19.1564 1201.79 63.1755 1422.26 241.377L1422.75 240.294C1202.03 61.8927 1011.21 17.8334 839.49 105.391C690.908 181.322 579.987 343.126 482.136 485.847C383.526 629.731 298.35 753.971 201.286 751.926C141.096 750.644 79.8437 700.21 13.9826 597.699L13.2549 598.501C79.2979 701.292 140.792 751.886 201.256 753.169C212.422 753.444 223.576 752.1 234.52 749.16Z" fill="url(#paint46_linear_1234_5494)"/>
<path d="M234.249 760.505C318.94 737.613 394.656 623.396 480.925 493.303C576.987 348.337 685.906 184.087 834.003 107.074C1004.93 18.1535 1197.24 62.9744 1421.96 243.942L1422.48 242.859C1197.48 61.6114 1004.87 16.8305 833.639 105.911C685.421 183.005 576.259 347.415 480.197 492.461C384.134 637.508 300.656 763.271 203.623 763.392C143.19 763.392 80.9066 714.04 13.2868 612.331L12.5591 613.173C80.3911 715.163 142.947 764.715 203.593 764.634C213.89 764.613 224.16 763.23 234.249 760.505Z" fill="url(#paint47_linear_1234_5494)"/>
<path d="M234.005 771.851C319.394 748.799 394.018 632.377 479.104 499.638C573.468 352.427 680.447 185.571 827.937 107.395C998.472 17.192 1192.54 62.6544 1421.38 246.508L1421.87 245.426C1192.75 61.2913 998.412 15.8289 827.664 106.232C679.871 184.489 572.801 351.465 478.376 498.796C383.951 646.128 302.959 772.412 205.987 774.898C145.341 776.301 81.9969 727.912 12.5578 627.005L11.8604 627.847C81.6027 729.035 144.977 777.544 205.926 776.181C215.367 775.897 224.768 774.447 234.005 771.851Z" fill="url(#paint48_linear_1234_5494)"/>
<path d="M233.853 783.237C319.969 759.984 393.472 641.357 477.435 505.892C570.193 356.395 675.079 186.974 822.235 107.715C992.043 16.1894 1187.93 62.4135 1420.87 249.034L1421.35 247.951C1188.14 61.2909 992.043 14.8664 821.872 106.553C674.473 185.932 569.404 355.473 476.677 505.09C384.739 653.424 305.323 781.713 208.321 786.003C147.311 788.729 83.0574 741.382 11.8595 641.277L11.1621 642.159C82.5419 742.385 147.069 790.012 208.26 787.246C216.862 786.888 225.425 785.547 233.853 783.237Z" fill="url(#paint49_linear_1234_5494)"/>
<path d="M233.612 794.702C320.577 771.209 392.958 650.377 475.769 512.106C566.737 360.364 669.835 188.337 816.385 107.996C985.707 15.2268 1183.29 62.2126 1420.26 251.599L1420.78 250.517C1183.56 60.8896 985.616 13.8637 816.112 106.833C669.198 187.294 566.101 359.402 475.132 511.304C385.225 661.281 307.69 790.933 210.688 797.308C149.405 801.317 84.1203 755.093 11.1637 655.749L10.4663 656.631C83.6351 756.255 149.132 802.68 210.748 798.55C218.432 798.033 226.075 796.746 233.612 794.702Z" fill="url(#paint50_linear_1234_5494)"/>
<path d="M233.613 806.208C321.549 782.475 392.777 659.278 474.436 518.2C563.585 364.213 664.62 189.58 810.837 108.237C979.553 14.2654 1178.77 61.9728 1419.87 254.125L1420.35 253.043C1178.99 60.6098 979.492 12.9424 810.443 107.074C664.014 188.658 562.888 363.331 473.678 517.438C385.894 669.06 310.117 800.035 213.054 808.614C151.468 814.026 85.213 768.764 10.4674 670.222L9.80029 671.104C84.7279 769.927 151.226 815.429 213.114 809.857C220.001 809.251 226.85 808.032 233.613 806.208Z" fill="url(#paint51_linear_1234_5494)"/>
<path d="M233.611 817.753C322.427 793.699 392.654 668.217 473.161 524.253C560.551 367.901 659.586 190.982 805.286 108.476C973.305 13.1819 1174.22 61.7713 1419.23 256.69L1419.75 255.608C1174.28 60.4884 973.123 11.9792 804.741 107.274C658.797 189.9 559.672 367.099 472.221 523.451C386.559 676.836 312.451 809.254 215.418 819.918C153.529 826.694 86.273 782.474 9.76866 684.694L9.10156 685.616C85.8182 783.637 153.317 827.976 215.478 821.161C221.568 820.498 227.623 819.36 233.611 817.753Z" fill="url(#paint52_linear_1234_5494)"/>
<path d="M233.611 829.34C323.457 805.086 392.593 676.997 471.978 530.187C644.181 211.469 858.532 -185.224 1418.96 259.257L1419.44 258.134C1169.89 60.2887 967.058 11.0178 799.312 107.515C653.763 191.183 556.73 370.908 471.098 529.465C387.286 684.534 314.966 818.476 217.782 831.225C155.62 839.243 87.3941 796.146 9.07042 699.167L8.40332 700.089C86.909 797.348 155.408 840.646 217.873 832.387C223.156 831.744 228.41 830.727 233.611 829.34Z" fill="url(#paint53_linear_1234_5494)"/>
<path d="M233.612 840.966C324.58 816.39 392.594 686.017 470.797 536.28C570.862 344.769 685.209 125.435 880.549 72.676C1014.58 36.5947 1186.81 78.6093 1418.41 261.982L1418.9 260.9C848.831 -190.236 638.755 212.19 470.009 535.558C388.137 692.431 317.485 827.896 220.21 842.73C157.745 852.191 88.4874 810.056 8.43527 713.84L7.70752 714.762C88.0629 810.978 157.502 853.314 220.24 843.772C224.728 843.05 229.155 842.168 233.612 840.966Z" fill="url(#paint54_linear_1234_5494)"/>
<path d="M233.611 852.672C325.731 827.776 392.684 694.877 469.765 541.893C551.636 379.046 644.757 194.51 788.851 108.918C954.868 10.496 1160.64 61.2904 1417.87 264.348L1418.35 263.265C839.247 -193.924 633.871 213.633 468.915 541.171C388.954 699.888 319.879 836.957 222.513 853.875C159.775 864.74 89.4867 823.647 7.67584 728.192L7.03906 729.154C89.0621 824.85 159.593 866.063 222.634 855.158C226.313 854.463 229.972 853.635 233.611 852.672Z" fill="url(#paint55_linear_1234_5494)"/>
<path d="M233.611 864.379C275.092 853.154 313.784 819.518 354.629 759.343C393.654 701.893 430.102 627.045 468.673 547.586C548.968 382.615 639.936 195.593 783.423 109.159C948.773 9.53449 1156.15 61.0505 1417.35 266.874L1417.84 265.791C1156.33 59.8478 948.713 8.21153 783.029 107.996C639.239 194.591 548.24 381.773 467.945 546.904C392.138 702.775 326.368 838.04 233.399 863.136C230.579 863.898 227.759 864.58 224.878 865.101C161.837 877.328 90.5481 837.238 6.97858 742.585L6.3418 743.547C90.1539 838.481 161.685 878.651 224.999 866.384C227.91 865.823 230.791 865.141 233.611 864.379Z" fill="url(#paint56_linear_1234_5494)"/>
<path d="M233.612 876.125C276.064 864.7 315.15 830.022 356.147 767.681C394.565 709.31 430.134 633.499 467.765 553.238C546.301 386.022 635.177 196.635 778.118 109.399C942.741 8.77232 1151.66 61.2906 1416.84 269.76L1417.35 268.678C1151.88 60.2081 942.65 7.6097 777.724 108.316C634.51 195.633 545.543 385.26 467.098 552.557C390.866 715.083 325.066 855.439 227.305 876.406C163.87 889.997 91.641 851.069 6.19142 757.057L5.58496 758.019C91.2468 852.191 163.87 891.159 227.548 877.689C229.519 877.208 231.611 876.687 233.612 876.125Z" fill="url(#paint57_linear_1234_5494)"/>
<path d="M233.794 887.952C277.155 876.246 316.666 840.525 357.783 775.98C395.626 716.646 430.315 639.954 466.945 558.771C543.662 389.47 630.506 197.598 772.841 109.399C936.584 7.81041 1147.24 61.0102 1416.35 272.085L1416.84 270.963C1147.42 59.6872 936.645 6.36716 772.447 108.277C629.93 196.716 542.904 388.908 466.187 558.21C429.466 639.352 394.777 715.965 357.025 775.258C314.786 841.528 274.274 877.248 229.67 887.792C165.992 902.746 92.7624 864.74 5.61476 771.53L5.0083 772.532C92.3985 865.903 165.931 903.988 229.852 888.794L233.794 887.952Z" fill="url(#paint58_linear_1234_5494)"/>
<path d="M233.852 899.819C278.215 887.792 318.15 851.069 359.389 784.278C396.625 723.943 430.496 646.368 466.307 564.223C552.969 365.656 651.276 140.589 835.244 76.7655C988.162 23.726 1177.89 88.4317 1415.83 274.531L1416.32 273.448C1292.18 176.269 1178.65 111.203 1078.92 80.0929C989.162 52.0298 907.109 50.5063 835.001 75.5227C650.548 139.667 552.211 364.814 465.488 563.622C429.677 645.686 395.746 723.221 358.661 783.477C317.028 850.868 276.79 887.711 231.972 899.017C168.082 915.334 93.7916 878.37 4.85494 786.002L4.27881 787.005C93.4277 879.613 168.022 916.657 232.154 900.26L233.852 899.819Z" fill="url(#paint59_linear_1234_5494)"/>
<path d="M233.947 911.727H234.553C279.704 899.299 319.881 861.453 361.029 792.658C397.689 731.36 430.772 652.864 465.643 569.797C549.788 369.546 645.154 142.755 827.606 77.3277C980.705 22.404 1172.95 87.7512 1415.35 277.098L1415.84 276.015C1289.21 177.112 1173.86 111.044 1072.95 79.5728C982.161 51.5096 899.531 50.1064 827.333 76.0047C644.517 141.592 549.03 368.664 464.794 569.115C429.892 652.182 396.901 730.599 360.271 791.857C319.275 860.371 279.249 898.056 234.371 910.444H233.765C169.693 927.763 94.5831 891.762 4.16061 800.436L3.58447 801.438C94.1283 893.044 169.602 929.126 233.947 911.727Z" fill="url(#paint60_linear_1234_5494)"/>
<path d="M234.126 923.633L236.946 922.871C282.188 909.481 322.123 870.754 362.665 800.716C398.779 738.375 430.951 658.997 465.034 574.927C546.693 373.313 639.269 144.839 820.083 77.8081C973.304 21.2006 1167.86 87.109 1414.83 279.623L1415.32 278.54C1286.27 177.954 1169.1 110.883 1067.03 79.2113C975.215 50.7472 892.07 49.9053 819.811 76.6455C638.632 143.757 545.935 372.512 464.064 574.446C430.011 658.636 397.869 737.814 361.785 800.074C321.547 869.631 281.733 908.318 236.643 921.628C172.147 940.711 95.8545 905.592 3.37008 814.948L2.79395 815.99C94.2777 905.712 169.933 940.992 234.126 923.633Z" fill="url(#paint61_linear_1234_5494)"/>
<path d="M234.308 935.619L239.342 934.136C284.826 919.824 324.397 880.054 364.332 808.934C399.931 745.551 431.254 665.21 464.397 580.139C543.691 377.042 633.477 146.883 812.775 78.4092C966.118 19.8373 1162.94 86.4272 1414.47 282.188L1414.96 281.106C1283.48 178.795 1164.46 110.722 1061.27 78.8101C967.27 49.7045 885.823 49.1834 812.624 77.2065C633.052 145.801 543.145 376.24 463.912 579.538C430.739 664.569 399.415 744.87 363.847 808.052C324.033 878.892 284.492 918.541 239.524 932.773C237.886 933.294 236.218 933.815 234.551 934.256C170.873 951.455 95.0659 917.098 3.18795 829.3L2.61182 830.342C94.2775 918.461 170.297 952.898 234.308 935.619Z" fill="url(#paint62_linear_1234_5494)"/>
<path d="M234.521 947.607C236.947 946.965 239.343 946.244 241.738 945.442C287.222 930.167 326.642 889.315 366.061 817.153C401.115 752.768 431.65 671.425 463.974 585.351C540.781 380.891 627.717 148.928 805.408 79.0511C958.75 18.6351 1157.79 85.9466 1413.86 284.834L1414.35 283.712C1280.41 179.678 1159.64 110.602 1055.36 78.4097C960.297 49.1037 878.456 48.8631 805.135 77.7281C627.141 147.806 539.872 379.929 463.094 584.71C430.71 670.663 400.387 752.006 365.243 816.351C326.066 888.514 286.737 929.045 241.496 944.199C176.484 966.048 98.0992 933.214 1.94571 843.973L1.3999 845.016C94.2785 931.25 170.601 964.886 234.521 947.607Z" fill="url(#paint63_linear_1234_5494)"/>
<path d="M234.703 959.674C237.735 958.792 241.01 957.83 244.133 956.707C289.618 940.671 329.037 898.737 367.759 825.211C402.267 759.744 431.983 677.438 463.458 590.322C537.9 384.298 622.228 150.812 798.191 79.4918C951.564 17.1916 1152.76 85.345 1413.32 287.28L1413.83 286.197C1277.38 180.519 1154.97 110.522 1049.54 78.0486C953.534 48.462 871.238 48.5421 797.857 78.0486C719.018 110.121 651.823 176.871 592.239 282.509C539.902 375.398 500.573 484.243 462.548 589.52C431.073 676.596 401.357 758.862 366.91 824.249C328.279 897.534 289.163 939.147 243.8 955.264C178.485 978.476 99.1299 946.684 1.21768 858.125L0.671875 859.167C94.1266 943.998 170.904 976.913 234.703 959.674Z" fill="url(#paint64_linear_1234_5494)"/>
<path d="M234.915 971.741C238.827 970.699 242.708 969.456 246.529 968.013C292.225 950.894 331.433 907.877 369.488 833.309C403.419 766.88 432.407 683.452 463.033 595.293C535.08 387.826 616.77 152.657 791.126 79.9731C944.407 16.1093 1147.75 84.7438 1412.74 289.846L1413.23 288.723C1274.62 181.562 1150.3 110.402 1043.84 77.688C946.803 47.8608 864.113 48.2216 790.823 78.7704C712.741 111.324 646.486 178.996 588.297 285.315C537.112 378.926 498.996 488.653 462.154 594.772C431.558 682.971 402.63 766.158 368.699 832.588C330.644 907.196 291.74 949.731 246.256 966.77C180.637 991.385 100.191 960.676 0.671786 872.838L0.125977 873.921C94.1266 956.827 171.177 988.94 234.915 971.741Z" fill="url(#paint65_linear_1234_5494)"/>
</g>
<defs>
<linearGradient id="paint0_linear_1234_5494" x1="1186.21" y1="491.58" x2="1186.21" y2="688.303" gradientUnits="userSpaceOnUse">
<stop stop-color="#9A47E9"/>
<stop offset="1" stop-color="#742BFA"/>
</linearGradient>
<linearGradient id="paint1_linear_1234_5494" x1="978.231" y1="424.309" x2="978.231" y2="556.286" gradientUnits="userSpaceOnUse">
<stop stop-color="#9A47E9"/>
<stop offset="1" stop-color="#742BFA"/>
</linearGradient>
<linearGradient id="paint2_linear_1234_5494" x1="784.468" y1="333.384" x2="784.468" y2="445.436" gradientUnits="userSpaceOnUse">
<stop stop-color="#9A47E9"/>
<stop offset="1" stop-color="#742BFA"/>
</linearGradient>
<linearGradient id="paint3_linear_1234_5494" x1="786.854" y1="0" x2="786.854" y2="795.108" gradientUnits="userSpaceOnUse">
<stop stop-color="#9A47E9"/>
<stop offset="1" stop-color="#742BFA"/>
</linearGradient>
<linearGradient id="paint4_linear_1234_5494" x1="1186.4" y1="256.33" x2="1186.4" y2="375.277" gradientUnits="userSpaceOnUse">
<stop stop-color="#9A47E9"/>
<stop offset="1" stop-color="#742BFA"/>
</linearGradient>
<linearGradient id="paint5_linear_1234_5494" x1="894.389" y1="296.661" x2="894.389" y2="420.259" gradientUnits="userSpaceOnUse">
<stop stop-color="#9A47E9"/>
<stop offset="1" stop-color="#742BFA"/>
</linearGradient>
<linearGradient id="paint6_linear_1234_5494" x1="664.664" y1="179.557" x2="664.664" y2="326.127" gradientUnits="userSpaceOnUse">
<stop stop-color="#9A47E9"/>
<stop offset="1" stop-color="#742BFA"/>
</linearGradient>
<linearGradient id="paint7_linear_1234_5494" x1="683.813" y1="445.155" x2="683.813" y2="552.035" gradientUnits="userSpaceOnUse">
<stop stop-color="#9A47E9"/>
<stop offset="1" stop-color="#742BFA"/>
</linearGradient>
<linearGradient id="paint8_linear_1234_5494" x1="471.097" y1="346.613" x2="471.097" y2="603.191" gradientUnits="userSpaceOnUse">
<stop stop-color="#9A47E9"/>
<stop offset="1" stop-color="#742BFA"/>
</linearGradient>
<linearGradient id="paint9_linear_1234_5494" x1="380.008" y1="251.159" x2="380.008" y2="392.317" gradientUnits="userSpaceOnUse">
<stop stop-color="#9A47E9"/>
<stop offset="1" stop-color="#742BFA"/>
</linearGradient>
<linearGradient id="paint10_linear_1234_5494" x1="377.174" y1="14.6255" x2="377.174" y2="247.63" gradientUnits="userSpaceOnUse">
<stop stop-color="#9A47E9"/>
<stop offset="1" stop-color="#742BFA"/>
</linearGradient>
<linearGradient id="paint11_linear_1234_5494" x1="716.137" y1="662.645" x2="716.137" y2="786.364" gradientUnits="userSpaceOnUse">
<stop stop-color="#9A47E9"/>
<stop offset="1" stop-color="#742BFA"/>
</linearGradient>
<linearGradient id="paint12_linear_1234_5494" x1="1117.47" y1="493.143" x2="1117.47" y2="683.411" gradientUnits="userSpaceOnUse">
<stop stop-color="#9A47E9"/>
<stop offset="1" stop-color="#742BFA"/>
</linearGradient>
<linearGradient id="paint13_linear_1234_5494" x1="735.77" y1="556.085" x2="735.77" y2="720.856" gradientUnits="userSpaceOnUse">
<stop stop-color="#9A47E9"/>
<stop offset="1" stop-color="#742BFA"/>
</linearGradient>
<linearGradient id="paint14_linear_1234_5494" x1="737.271" y1="69.749" x2="737.271" y2="428.512" gradientUnits="userSpaceOnUse">
<stop stop-color="#9A47E9"/>
<stop offset="1" stop-color="#742BFA"/>
</linearGradient>
<linearGradient id="paint15_linear_1234_5494" x1="736.59" y1="69.7842" x2="736.59" y2="437.515" gradientUnits="userSpaceOnUse">
<stop stop-color="#9A47E9"/>
<stop offset="1" stop-color="#742BFA"/>
</linearGradient>
<linearGradient id="paint16_linear_1234_5494" x1="736" y1="69.6089" x2="736" y2="446.307" gradientUnits="userSpaceOnUse">
<stop stop-color="#9A47E9"/>
<stop offset="1" stop-color="#742BFA"/>
</linearGradient>
<linearGradient id="paint17_linear_1234_5494" x1="735.452" y1="69.2305" x2="735.452" y2="455.347" gradientUnits="userSpaceOnUse">
<stop stop-color="#9A47E9"/>
<stop offset="1" stop-color="#742BFA"/>
</linearGradient>
<linearGradient id="paint18_linear_1234_5494" x1="734.802" y1="69.2187" x2="734.802" y2="464.528" gradientUnits="userSpaceOnUse">
<stop stop-color="#9A47E9"/>
<stop offset="1" stop-color="#742BFA"/>
</linearGradient>
<linearGradient id="paint19_linear_1234_5494" x1="734.179" y1="69.0889" x2="734.179" y2="473.868" gradientUnits="userSpaceOnUse">
<stop stop-color="#9A47E9"/>
<stop offset="1" stop-color="#742BFA"/>
</linearGradient>
<linearGradient id="paint20_linear_1234_5494" x1="733.604" y1="68.8281" x2="733.604" y2="483.237" gradientUnits="userSpaceOnUse">
<stop stop-color="#9A47E9"/>
<stop offset="1" stop-color="#742BFA"/>
</linearGradient>
<linearGradient id="paint21_linear_1234_5494" x1="732.997" y1="68.4854" x2="732.997" y2="492.586" gradientUnits="userSpaceOnUse">
<stop stop-color="#9A47E9"/>
<stop offset="1" stop-color="#742BFA"/>
</linearGradient>
<linearGradient id="paint22_linear_1234_5494" x1="732.345" y1="68.3848" x2="732.345" y2="502.16" gradientUnits="userSpaceOnUse">
<stop stop-color="#9A47E9"/>
<stop offset="1" stop-color="#742BFA"/>
</linearGradient>
<linearGradient id="paint23_linear_1234_5494" x1="731.754" y1="68.0918" x2="731.754" y2="511.756" gradientUnits="userSpaceOnUse">
<stop stop-color="#9A47E9"/>
<stop offset="1" stop-color="#742BFA"/>
</linearGradient>
<linearGradient id="paint24_linear_1234_5494" x1="731.223" y1="67.8989" x2="731.223" y2="521.414" gradientUnits="userSpaceOnUse">
<stop stop-color="#9A47E9"/>
<stop offset="1" stop-color="#742BFA"/>
</linearGradient>
<linearGradient id="paint25_linear_1234_5494" x1="730.601" y1="67.6626" x2="730.601" y2="531.226" gradientUnits="userSpaceOnUse">
<stop stop-color="#9A47E9"/>
<stop offset="1" stop-color="#742BFA"/>
</linearGradient>
<linearGradient id="paint26_linear_1234_5494" x1="729.949" y1="67.4155" x2="729.949" y2="541.04" gradientUnits="userSpaceOnUse">
<stop stop-color="#9A47E9"/>
<stop offset="1" stop-color="#742BFA"/>
</linearGradient>
<linearGradient id="paint27_linear_1234_5494" x1="729.434" y1="67.231" x2="729.434" y2="551.045" gradientUnits="userSpaceOnUse">
<stop stop-color="#9A47E9"/>
<stop offset="1" stop-color="#742BFA"/>
</linearGradient>
<linearGradient id="paint28_linear_1234_5494" x1="728.782" y1="66.9053" x2="728.782" y2="560.963" gradientUnits="userSpaceOnUse">
<stop stop-color="#9A47E9"/>
<stop offset="1" stop-color="#742BFA"/>
</linearGradient>
<linearGradient id="paint29_linear_1234_5494" x1="728.22" y1="66.5391" x2="728.22" y2="571.053" gradientUnits="userSpaceOnUse">
<stop stop-color="#9A47E9"/>
<stop offset="1" stop-color="#742BFA"/>
</linearGradient>
<linearGradient id="paint30_linear_1234_5494" x1="727.615" y1="66.5" x2="727.615" y2="581.225" gradientUnits="userSpaceOnUse">
<stop stop-color="#9A47E9"/>
<stop offset="1" stop-color="#742BFA"/>
</linearGradient>
<linearGradient id="paint31_linear_1234_5494" x1="726.964" y1="66.1255" x2="726.964" y2="591.474" gradientUnits="userSpaceOnUse">
<stop stop-color="#9A47E9"/>
<stop offset="1" stop-color="#742BFA"/>
</linearGradient>
<linearGradient id="paint32_linear_1234_5494" x1="726.432" y1="65.729" x2="726.432" y2="601.791" gradientUnits="userSpaceOnUse">
<stop stop-color="#9A47E9"/>
<stop offset="1" stop-color="#742BFA"/>
</linearGradient>
<linearGradient id="paint33_linear_1234_5494" x1="725.826" y1="65.6074" x2="725.826" y2="612.187" gradientUnits="userSpaceOnUse">
<stop stop-color="#9A47E9"/>
<stop offset="1" stop-color="#742BFA"/>
</linearGradient>
<linearGradient id="paint34_linear_1234_5494" x1="725.19" y1="65.3169" x2="725.19" y2="622.57" gradientUnits="userSpaceOnUse">
<stop stop-color="#9A47E9"/>
<stop offset="1" stop-color="#742BFA"/>
</linearGradient>
<linearGradient id="paint35_linear_1234_5494" x1="724.628" y1="65.0483" x2="724.628" y2="633.177" gradientUnits="userSpaceOnUse">
<stop stop-color="#9A47E9"/>
<stop offset="1" stop-color="#742BFA"/>
</linearGradient>
<linearGradient id="paint36_linear_1234_5494" x1="724.022" y1="64.7939" x2="724.022" y2="643.784" gradientUnits="userSpaceOnUse">
<stop stop-color="#9A47E9"/>
<stop offset="1" stop-color="#742BFA"/>
</linearGradient>
<linearGradient id="paint37_linear_1234_5494" x1="723.445" y1="64.5166" x2="723.445" y2="654.455" gradientUnits="userSpaceOnUse">
<stop stop-color="#9A47E9"/>
<stop offset="1" stop-color="#742BFA"/>
</linearGradient>
<linearGradient id="paint38_linear_1234_5494" x1="722.838" y1="64.1597" x2="722.838" y2="665.286" gradientUnits="userSpaceOnUse">
<stop stop-color="#9A47E9"/>
<stop offset="1" stop-color="#742BFA"/>
</linearGradient>
<linearGradient id="paint39_linear_1234_5494" x1="722.231" y1="63.9116" x2="722.231" y2="675.984" gradientUnits="userSpaceOnUse">
<stop stop-color="#9A47E9"/>
<stop offset="1" stop-color="#742BFA"/>
</linearGradient>
<linearGradient id="paint40_linear_1234_5494" x1="721.672" y1="63.6172" x2="721.672" y2="686.851" gradientUnits="userSpaceOnUse">
<stop stop-color="#9A47E9"/>
<stop offset="1" stop-color="#742BFA"/>
</linearGradient>
<linearGradient id="paint41_linear_1234_5494" x1="721.05" y1="63.3281" x2="721.05" y2="697.794" gradientUnits="userSpaceOnUse">
<stop stop-color="#9A47E9"/>
<stop offset="1" stop-color="#742BFA"/>
</linearGradient>
<linearGradient id="paint42_linear_1234_5494" x1="720.458" y1="63.0195" x2="720.458" y2="708.703" gradientUnits="userSpaceOnUse">
<stop stop-color="#9A47E9"/>
<stop offset="1" stop-color="#742BFA"/>
</linearGradient>
<linearGradient id="paint43_linear_1234_5494" x1="719.836" y1="62.7261" x2="719.836" y2="719.962" gradientUnits="userSpaceOnUse">
<stop stop-color="#9A47E9"/>
<stop offset="1" stop-color="#742BFA"/>
</linearGradient>
<linearGradient id="paint44_linear_1234_5494" x1="719.246" y1="62.436" x2="719.246" y2="731.037" gradientUnits="userSpaceOnUse">
<stop stop-color="#9A47E9"/>
<stop offset="1" stop-color="#742BFA"/>
</linearGradient>
<linearGradient id="paint45_linear_1234_5494" x1="718.655" y1="62.2021" x2="718.655" y2="742.12" gradientUnits="userSpaceOnUse">
<stop stop-color="#9A47E9"/>
<stop offset="1" stop-color="#742BFA"/>
</linearGradient>
<linearGradient id="paint46_linear_1234_5494" x1="718.002" y1="61.8052" x2="718.002" y2="753.204" gradientUnits="userSpaceOnUse">
<stop stop-color="#9A47E9"/>
<stop offset="1" stop-color="#742BFA"/>
</linearGradient>
<linearGradient id="paint47_linear_1234_5494" x1="717.518" y1="61.5464" x2="717.518" y2="764.634" gradientUnits="userSpaceOnUse">
<stop stop-color="#9A47E9"/>
<stop offset="1" stop-color="#742BFA"/>
</linearGradient>
<linearGradient id="paint48_linear_1234_5494" x1="716.865" y1="61.2202" x2="716.865" y2="776.209" gradientUnits="userSpaceOnUse">
<stop stop-color="#9A47E9"/>
<stop offset="1" stop-color="#742BFA"/>
</linearGradient>
<linearGradient id="paint49_linear_1234_5494" x1="716.257" y1="60.98" x2="716.257" y2="787.359" gradientUnits="userSpaceOnUse">
<stop stop-color="#9A47E9"/>
<stop offset="1" stop-color="#742BFA"/>
</linearGradient>
<linearGradient id="paint50_linear_1234_5494" x1="715.622" y1="60.623" x2="715.622" y2="798.803" gradientUnits="userSpaceOnUse">
<stop stop-color="#9A47E9"/>
<stop offset="1" stop-color="#742BFA"/>
</linearGradient>
<linearGradient id="paint51_linear_1234_5494" x1="715.078" y1="60.3159" x2="715.078" y2="810.312" gradientUnits="userSpaceOnUse">
<stop stop-color="#9A47E9"/>
<stop offset="1" stop-color="#742BFA"/>
</linearGradient>
<linearGradient id="paint52_linear_1234_5494" x1="714.424" y1="60.0137" x2="714.424" y2="821.841" gradientUnits="userSpaceOnUse">
<stop stop-color="#9A47E9"/>
<stop offset="1" stop-color="#742BFA"/>
</linearGradient>
<linearGradient id="paint53_linear_1234_5494" x1="713.923" y1="59.7061" x2="713.923" y2="833.378" gradientUnits="userSpaceOnUse">
<stop stop-color="#9A47E9"/>
<stop offset="1" stop-color="#742BFA"/>
</linearGradient>
<linearGradient id="paint54_linear_1234_5494" x1="713.303" y1="59.4634" x2="713.303" y2="845.087" gradientUnits="userSpaceOnUse">
<stop stop-color="#9A47E9"/>
<stop offset="1" stop-color="#742BFA"/>
</linearGradient>
<linearGradient id="paint55_linear_1234_5494" x1="712.695" y1="59.0552" x2="712.695" y2="856.866" gradientUnits="userSpaceOnUse">
<stop stop-color="#9A47E9"/>
<stop offset="1" stop-color="#742BFA"/>
</linearGradient>
<linearGradient id="paint56_linear_1234_5494" x1="712.089" y1="58.7812" x2="712.089" y2="868.533" gradientUnits="userSpaceOnUse">
<stop stop-color="#9A47E9"/>
<stop offset="1" stop-color="#742BFA"/>
</linearGradient>
<linearGradient id="paint57_linear_1234_5494" x1="711.469" y1="58.791" x2="711.469" y2="880.278" gradientUnits="userSpaceOnUse">
<stop stop-color="#9A47E9"/>
<stop offset="1" stop-color="#742BFA"/>
</linearGradient>
<linearGradient id="paint58_linear_1234_5494" x1="710.922" y1="58.1943" x2="710.922" y2="892.038" gradientUnits="userSpaceOnUse">
<stop stop-color="#9A47E9"/>
<stop offset="1" stop-color="#742BFA"/>
</linearGradient>
<linearGradient id="paint59_linear_1234_5494" x1="710.299" y1="57.8374" x2="710.299" y2="904.025" gradientUnits="userSpaceOnUse">
<stop stop-color="#9A47E9"/>
<stop offset="1" stop-color="#742BFA"/>
</linearGradient>
<linearGradient id="paint60_linear_1234_5494" x1="709.711" y1="57.5103" x2="709.711" y2="915.963" gradientUnits="userSpaceOnUse">
<stop stop-color="#9A47E9"/>
<stop offset="1" stop-color="#742BFA"/>
</linearGradient>
<linearGradient id="paint61_linear_1234_5494" x1="709.057" y1="57.207" x2="709.057" y2="927.918" gradientUnits="userSpaceOnUse">
<stop stop-color="#9A47E9"/>
<stop offset="1" stop-color="#742BFA"/>
</linearGradient>
<linearGradient id="paint62_linear_1234_5494" x1="708.784" y1="56.5776" x2="708.784" y2="939.94" gradientUnits="userSpaceOnUse">
<stop stop-color="#9A47E9"/>
<stop offset="1" stop-color="#742BFA"/>
</linearGradient>
<linearGradient id="paint63_linear_1234_5494" x1="707.875" y1="56.2534" x2="707.875" y2="951.996" gradientUnits="userSpaceOnUse">
<stop stop-color="#9A47E9"/>
<stop offset="1" stop-color="#742BFA"/>
</linearGradient>
<linearGradient id="paint64_linear_1234_5494" x1="707.253" y1="55.8887" x2="707.253" y2="964.109" gradientUnits="userSpaceOnUse">
<stop stop-color="#9A47E9"/>
<stop offset="1" stop-color="#742BFA"/>
</linearGradient>
<linearGradient id="paint65_linear_1234_5494" x1="706.677" y1="55.585" x2="706.677" y2="976.232" gradientUnits="userSpaceOnUse">
<stop stop-color="#9A47E9"/>
<stop offset="1" stop-color="#742BFA"/>
</linearGradient>
</defs>
</svg>
