<svg width="27" height="27" viewBox="0 0 27 27" fill="none" xmlns="http://www.w3.org/2000/svg">
<path d="M26.962 0.749721C26.9432 0.41246 26.6753 0.144097 26.3381 0.125307C26.3366 0.125307 26.3357 0.125307 26.3337 0.124825C26.2489 0.120971 26.0133 0.111816 25.6525 0.111816C24.4667 0.111816 22.0746 0.211549 19.3804 0.876917C15.9813 1.71718 13.2316 3.16885 11.2076 5.19386C10.3321 6.06929 9.55499 7.09167 8.89733 8.23258L8.84964 8.31545L8.81783 8.37037L8.77254 8.32556L7.81424 7.36726C7.69187 7.2444 7.52082 7.17358 7.34641 7.17358C7.24764 7.17358 7.15273 7.19478 7.06456 7.23669L0.888351 10.1617C0.650341 10.2749 0.501942 10.5187 0.510614 10.7828L0.83583 20.2087C0.844985 20.4718 1.0088 20.704 1.25404 20.8004C1.33064 20.8312 1.41255 20.8466 1.49638 20.8466C1.67321 20.8466 1.83894 20.7777 1.96373 20.6525L7.31269 15.3035L7.34738 15.2693L7.38206 15.3035L9.0809 17.0023L9.11511 17.037L9.0809 17.0717L3.73194 22.4207C3.60715 22.545 3.53826 22.7107 3.53826 22.888C3.53826 23.0653 3.60667 23.2306 3.73194 23.3554C3.85624 23.4801 4.02199 23.549 4.19881 23.549C4.37563 23.549 4.54137 23.4806 4.66663 23.3554L10.0156 18.0059L10.0503 17.9717L10.085 18.0059L11.7833 19.7047L11.8175 19.7394L11.7833 19.7741L6.43485 25.1231C6.24791 25.3091 6.19009 25.5875 6.28645 25.8323C6.38329 26.0775 6.61552 26.2418 6.87907 26.251L16.3045 26.5757C16.3127 26.5762 16.3195 26.5762 16.3257 26.5762H16.3277C16.5816 26.5762 16.8157 26.4278 16.9246 26.198L19.8501 20.0223C19.9691 19.7703 19.9166 19.4691 19.72 19.2721L18.7617 18.3143L18.7169 18.2695L18.7718 18.2372L18.8542 18.1895C19.9961 17.5323 21.0185 16.7552 21.8934 15.8792C23.1808 14.5914 24.248 12.9899 25.0651 11.119C25.7136 9.63606 26.208 7.9806 26.5342 6.19793C27.068 3.27966 26.9745 0.999776 26.962 0.74924V0.749721ZM6.75091 13.9708L6.74657 13.9906L6.74368 14.0046L6.73356 14.0147L2.18439 18.5638L2.10538 18.6424L2.10152 18.5306L1.84906 11.2024L1.8481 11.1706L1.877 11.1571L7.17923 8.64596L7.21055 8.63103L7.23464 8.65512L8.16355 9.58403L8.18716 9.60764L8.17318 9.63847L8.15246 9.68473C7.56515 10.974 7.09395 12.4161 6.75187 13.9708H6.75091ZM18.4413 19.9086L15.9297 25.2108L15.9162 25.2397L15.8844 25.2387L8.55621 24.9858L8.44444 24.9819L8.52297 24.9029L13.0721 20.3542L13.0818 20.3446L13.0953 20.3417L13.116 20.3369C14.6722 19.9943 16.1142 19.5231 17.4026 18.9363L17.4479 18.9156L17.4792 18.9016L17.5028 18.9252L18.4322 19.8541L18.4563 19.8782L18.4413 19.9095V19.9086ZM25.6534 1.48254V1.55626C25.6472 2.38447 25.584 4.06211 25.2261 5.99846C24.9307 7.59997 24.487 9.1003 23.9069 10.4566C23.1432 12.2421 22.1512 13.7521 20.9587 14.945C19.9667 15.9371 18.7641 16.7894 17.3838 17.4788L17.3761 17.4827H17.3746L17.3732 17.4836C17.3375 17.4976 17.3019 17.5159 17.2672 17.5366L17.2662 17.5376H17.2648L17.2585 17.5415C16.002 18.1558 14.5797 18.6462 13.0293 19.0018L12.9898 19.011L12.9637 19.0167L12.9449 18.9979L11.0187 17.0722L10.9845 17.0375L11.0187 17.0028L13.7674 14.2541C13.8922 14.1298 13.9611 13.9641 13.9611 13.7868C13.9611 13.6095 13.8926 13.4442 13.7674 13.3194C13.6436 13.1946 13.4778 13.1258 13.3005 13.1258C13.1232 13.1258 12.958 13.1942 12.8332 13.3194L10.0845 16.0681L10.0498 16.1023L10.0151 16.0681L8.08887 14.1424L8.07008 14.1231L8.07634 14.0971L8.0855 14.0576C8.43962 12.5105 8.93009 11.0882 9.54487 9.83023L9.54584 9.82878L9.5468 9.82734L9.55017 9.82156C9.57233 9.7835 9.59064 9.74784 9.60365 9.71363V9.71219L9.60461 9.71074L9.60751 9.70448C10.2979 8.32316 11.1502 7.1201 12.1423 6.12807C13.977 4.29385 16.4915 2.96601 19.6164 2.18115C22.1425 1.54662 24.4065 1.44062 25.5306 1.43388H25.6043L25.6539 1.43292V1.48254H25.6534Z" fill="#6D278E"/>
<path d="M18.8259 5.30176C18.0353 5.30176 17.2923 5.60963 16.7335 6.169C16.1736 6.72789 15.8662 7.47083 15.8662 8.26146C15.8662 9.0521 16.1741 9.79504 16.7335 10.3539C17.2919 10.9133 18.0353 11.2207 18.8259 11.2207C19.6165 11.2207 20.3595 10.9128 20.9189 10.3539C21.4768 9.79552 21.7837 9.05258 21.7837 8.26146C21.7837 7.47035 21.4763 6.72644 20.9184 6.169C20.3595 5.60915 19.6165 5.30176 18.8259 5.30176ZM19.9842 9.41923C19.6748 9.72855 19.2634 9.89911 18.8259 9.89911C18.3884 9.89911 17.9775 9.72855 17.6677 9.41923C17.3584 9.10992 17.1883 8.69846 17.1883 8.26146C17.1883 7.82447 17.3588 7.41253 17.6681 7.10321C17.8223 6.94952 18.0006 6.82955 18.1991 6.74764C18.3971 6.66526 18.6081 6.62382 18.8259 6.62382C19.2629 6.62382 19.6744 6.7939 19.9842 7.10321C20.6226 7.7416 20.6226 8.78084 19.9842 9.41923Z" fill="#6D278E"/>
</svg>
