<svg width="36" height="37" viewBox="0 0 36 37" fill="none" xmlns="http://www.w3.org/2000/svg">
<path d="M9 17.1846C9 16.3561 9.67157 15.6846 10.5 15.6846H12C12.8284 15.6846 13.5 16.3561 13.5 17.1846C13.5 18.013 12.8284 18.6846 12 18.6846H10.5C9.67157 18.6846 9 18.013 9 17.1846Z" fill="#9A9B9F"/>
<path d="M15.75 17.1846C15.75 16.3561 16.4216 15.6846 17.25 15.6846H18.75C19.5784 15.6846 20.25 16.3561 20.25 17.1846C20.25 18.013 19.5784 18.6846 18.75 18.6846H17.25C16.4216 18.6846 15.75 18.013 15.75 17.1846Z" fill="#9A9B9F"/>
<path d="M24 15.6846C23.1716 15.6846 22.5 16.3561 22.5 17.1846C22.5 18.013 23.1716 18.6846 24 18.6846H25.5C26.3284 18.6846 27 18.013 27 17.1846C27 16.3561 26.3284 15.6846 25.5 15.6846H24Z" fill="#9A9B9F"/>
<path d="M9 22.4346C9 21.6061 9.67157 20.9346 10.5 20.9346H12C12.8284 20.9346 13.5 21.6061 13.5 22.4346C13.5 23.263 12.8284 23.9346 12 23.9346H10.5C9.67157 23.9346 9 23.263 9 22.4346Z" fill="#9A9B9F"/>
<path d="M17.25 20.9346C16.4216 20.9346 15.75 21.6061 15.75 22.4346C15.75 23.263 16.4216 23.9346 17.25 23.9346H18.75C19.5784 23.9346 20.25 23.263 20.25 22.4346C20.25 21.6061 19.5784 20.9346 18.75 20.9346H17.25Z" fill="#9A9B9F"/>
<path d="M22.5 22.4346C22.5 21.6061 23.1716 20.9346 24 20.9346H25.5C26.3284 20.9346 27 21.6061 27 22.4346C27 23.263 26.3284 23.9346 25.5 23.9346H24C23.1716 23.9346 22.5 23.263 22.5 22.4346Z" fill="#9A9B9F"/>
<path d="M10.5 26.1846C9.67157 26.1846 9 26.8561 9 27.6846C9 28.513 9.67157 29.1846 10.5 29.1846H12C12.8284 29.1846 13.5 28.513 13.5 27.6846C13.5 26.8561 12.8284 26.1846 12 26.1846H10.5Z" fill="#9A9B9F"/>
<path d="M15.75 27.6846C15.75 26.8561 16.4216 26.1846 17.25 26.1846H18.75C19.5784 26.1846 20.25 26.8561 20.25 27.6846C20.25 28.513 19.5784 29.1846 18.75 29.1846H17.25C16.4216 29.1846 15.75 28.513 15.75 27.6846Z" fill="#9A9B9F"/>
<path d="M24 26.1846C23.1716 26.1846 22.5 26.8561 22.5 27.6846C22.5 28.513 23.1716 29.1846 24 29.1846H25.5C26.3284 29.1846 27 28.513 27 27.6846C27 26.8561 26.3284 26.1846 25.5 26.1846H24Z" fill="#9A9B9F"/>
<path fill-rule="evenodd" clip-rule="evenodd" d="M13.5 5.18457C13.5 4.35614 12.8284 3.68457 12 3.68457C11.1716 3.68457 10.5 4.35614 10.5 5.18457H9C6.51472 5.18457 4.5 7.19929 4.5 9.68457V29.1846C4.5 31.6698 6.51472 33.6846 9 33.6846H27C29.4853 33.6846 31.5 31.6698 31.5 29.1846V9.68457C31.5 7.19929 29.4853 5.18457 27 5.18457H25.5C25.5 4.35614 24.8284 3.68457 24 3.68457C23.1716 3.68457 22.5 4.35614 22.5 5.18457H13.5ZM28.5 11.1846V9.68457C28.5 8.85614 27.8284 8.18457 27 8.18457H25.5C25.5 9.013 24.8284 9.68457 24 9.68457C23.1716 9.68457 22.5 9.013 22.5 8.18457H13.5C13.5 9.013 12.8284 9.68457 12 9.68457C11.1716 9.68457 10.5 9.013 10.5 8.18457H9C8.17157 8.18457 7.5 8.85614 7.5 9.68457V11.1846H28.5ZM7.5 14.1846V29.1846C7.5 30.013 8.17157 30.6846 9 30.6846H27C27.8284 30.6846 28.5 30.013 28.5 29.1846V14.1846H7.5Z" fill="#9A9B9F"/>
</svg>
