<svg width="24" height="24" viewBox="0 0 24 24" fill="none" xmlns="http://www.w3.org/2000/svg">
<g clip-path="url(#clip0_1234_4280)">
<path fill-rule="evenodd" clip-rule="evenodd" d="M0.260254 11.7981C0.260254 5.34424 5.51123 0.0947266 11.9644 0.0947266C18.4175 0.0947266 23.6685 5.34424 23.6685 11.7981C23.6685 18.252 18.4175 23.5015 11.9644 23.5015C5.51123 23.5015 0.260254 18.252 0.260254 11.7981ZM1.04126 11.7981C1.04126 17.8213 5.94115 22.722 11.9644 22.722C17.9876 22.722 22.8875 17.8213 22.8875 11.7981C22.8875 5.77489 17.9876 0.874271 11.9644 0.874271C5.94115 0.874271 1.04126 5.77489 1.04126 11.7981ZM14.2839 5.87883C15.443 6.06358 16.5516 6.38616 17.5854 6.824C17.5944 6.82756 17.6021 6.83351 17.6065 6.84181C19.4383 9.32861 20.3429 12.1338 20.0047 15.3632C20.0034 15.3769 19.9958 15.3893 19.9836 15.3976C18.5962 16.3381 17.2523 16.909 15.927 17.2874C15.9059 17.2933 15.8829 17.2862 15.8701 17.2696C15.5638 16.8763 15.2857 16.4616 15.0421 16.0262C15.0281 16.0006 15.0409 15.9697 15.0696 15.9596C15.5114 15.8058 15.9315 15.6216 16.3355 15.4036C16.3675 15.3864 16.3694 15.3442 16.34 15.324C16.2543 15.2652 16.1693 15.2034 16.0881 15.1416C16.0728 15.1303 16.0523 15.1279 16.035 15.1356C13.4118 16.2543 10.5379 16.2543 7.88339 15.1356C7.86612 15.1285 7.84565 15.1309 7.83096 15.1422C7.74977 15.204 7.66471 15.2652 7.57968 15.324C7.55028 15.3442 7.55284 15.3864 7.5848 15.4036C7.98887 15.6174 8.40893 15.8058 8.85007 15.9602C8.87883 15.9703 8.89227 16.0006 8.87819 16.0262C8.63973 16.4622 8.36161 16.8769 8.04961 17.2702C8.03618 17.2862 8.01382 17.2933 7.99271 17.2874C6.67375 16.909 5.32984 16.3381 3.94246 15.3976C3.93095 15.3893 3.92264 15.3763 3.92136 15.3626C3.63877 12.5693 4.21482 9.74089 6.31764 6.84122C6.32273 6.83351 6.33041 6.82756 6.33936 6.824C7.37382 6.38557 8.48244 6.06299 9.64093 5.87883C9.66204 5.87586 9.68313 5.88477 9.694 5.90199C9.83722 6.13605 10.0009 6.43607 10.1115 6.68141C11.3327 6.50913 12.573 6.50913 13.8197 6.68141C13.9303 6.44141 14.0882 6.13605 14.2308 5.90199C14.2417 5.88417 14.2628 5.87526 14.2839 5.87883ZM7.81689 12.1528C7.81689 12.9845 8.47541 13.6618 9.27461 13.6618C10.0866 13.6618 10.7323 12.9845 10.7323 12.1528C10.7451 11.3271 10.093 10.6439 9.27461 10.6439C8.46264 10.6439 7.81689 11.3211 7.81689 12.1528ZM13.2066 12.1528C13.2066 12.9845 13.8651 13.6618 14.6643 13.6618C15.4826 13.6618 16.122 12.9845 16.122 12.1528C16.1348 11.3271 15.4826 10.6439 14.6643 10.6439C13.8523 10.6439 13.2066 11.3211 13.2066 12.1528Z" fill="#6D278E"/>
</g>
<defs>
<clipPath id="clip0_1234_4280">
<rect width="23.3571" height="23.3571" fill="white" transform="translate(0.285645 0.119629)"/>
</clipPath>
</defs>
</svg>
