<svg width="38" height="35" viewBox="0 0 38 35" fill="none" xmlns="http://www.w3.org/2000/svg">
<path d="M8.06657 32.4193L10.352 30.7018L12.9535 31.9219L11.981 29.2827L13.9803 27.258L11.0957 27.3458L9.72868 24.8734L8.9187 27.5681L6.07324 28.0655L8.46102 29.6455L8.06657 32.4193ZM18.6655 35L19.7585 32.4018L22.6371 32.194L20.436 30.38L21.1256 27.653L18.6685 29.1306L16.2115 27.653L16.901 30.38L14.6939 32.194L17.5725 32.4018L18.6655 35ZM10.1532 15.3524C11.4902 14.8667 13.1974 14.2464 14.4259 13.5061C15.8351 14.776 16.7505 16.2214 16.8228 17.9769H20.5203C20.5926 16.2214 21.508 14.776 22.9172 13.5061C24.1457 14.2464 25.8529 14.8637 27.1899 15.3524C31.1283 16.7831 29.2043 19.396 26.9068 21.5963C24.7991 23.6123 21.8874 24.8587 18.6685 24.8587C15.4497 24.8587 12.541 23.6152 10.4303 21.5963C8.16593 19.4282 6.18766 16.7919 10.1532 15.3524ZM15.7689 11.7213C15.8291 11.2414 14.3717 9.42443 14.1068 8.54957C13.5347 7.67179 13.3329 6.26735 13.9562 5.3369C14.2061 4.96823 14.0977 4.30697 14.0977 3.80079C14.0977 -1.264 23.2303 -1.26985 23.2303 3.80079C23.2303 4.44157 23.0798 4.9302 23.4381 5.43346C24.0373 6.27612 23.7271 7.77128 23.2213 8.55543C22.8991 9.47124 21.3695 11.2063 21.4779 11.7271C21.5682 14.3224 15.7478 14.2376 15.7689 11.7213ZM37.1655 24.7388L35.398 22.5209L36.6536 19.9929L33.9347 20.9409L31.851 18.9981L31.9413 21.8011L29.397 23.1295L32.1702 23.9136L32.682 26.6786L34.305 24.3584L37.1655 24.7388ZM29.2645 32.4193L28.8761 29.6368L31.2638 28.0568L28.4214 27.5564L27.6144 24.8616L26.2474 27.3341L23.3598 27.2463L25.3591 29.271L24.3775 31.9161L26.9791 30.696L29.2645 32.4193ZM0.165527 24.7358L3.02905 24.3584L4.65503 26.6786L5.16992 23.9166L7.94312 23.1324L5.39876 21.804L5.4891 19.001L3.40243 20.9438L0.677409 19.9929L1.93302 22.5209L0.165527 24.7358Z" fill="#6D278E"/>
</svg>
