<svg width="24" height="24" viewBox="0 0 24 24" fill="none" xmlns="http://www.w3.org/2000/svg">
<g clip-path="url(#clip0_1234_4275)">
<path fill-rule="evenodd" clip-rule="evenodd" d="M0.224121 11.7981C0.224121 5.34424 5.4751 0.0947266 11.9282 0.0947266C18.3814 0.0947266 23.6324 5.34424 23.6324 11.7981C23.6324 18.252 18.3814 23.5015 11.9282 23.5015C5.4751 23.5015 0.224121 18.252 0.224121 11.7981ZM1.00513 11.7981C1.00513 17.8213 5.90502 22.722 11.9282 22.722C17.9515 22.722 22.8514 17.8213 22.8514 11.7981C22.8514 5.77489 17.9515 0.874271 11.9282 0.874271C5.90502 0.874271 1.00513 5.77489 1.00513 11.7981ZM12.5359 5.22886H14.4833C14.5327 5.22222 14.583 5.22709 14.6303 5.24309C14.6776 5.2591 14.7205 5.2858 14.7558 5.32113C14.791 5.35645 14.8176 5.39943 14.8335 5.44673C14.8495 5.49403 14.8542 5.54437 14.8475 5.59381V7.78354C14.873 7.89011 14.8292 7.99084 14.7533 8.06456C14.699 8.11729 14.6283 8.12596 14.5553 8.1349C14.5262 8.13846 14.4968 8.14206 14.4679 8.1485H13.1621C13.1022 8.14496 13.0506 8.14046 13.006 8.13657C12.7279 8.11233 12.7195 8.11159 12.6585 8.51345L12.6563 9.60832H14.4833C14.5328 9.60171 14.5831 9.6066 14.6304 9.6226C14.6777 9.6386 14.7206 9.66529 14.7559 9.7006C14.7912 9.7359 14.8179 9.77886 14.8339 9.82616C14.8499 9.87345 14.8548 9.92379 14.8482 9.97328V12.163C14.8548 12.2125 14.8499 12.2628 14.8339 12.3101C14.8179 12.3574 14.7912 12.4004 14.7559 12.4357C14.7206 12.471 14.6777 12.4977 14.6304 12.5137C14.5831 12.5297 14.5328 12.5346 14.4833 12.528H12.6585L12.657 18.0023C12.7256 18.2176 12.5512 18.3921 12.3359 18.3673H10.106C10.0565 18.3736 10.0061 18.3686 9.95882 18.3525C9.91152 18.3365 9.86852 18.3098 9.83309 18.2746C9.79767 18.2394 9.77076 18.1966 9.75443 18.1494C9.7381 18.1022 9.73277 18.0519 9.73885 18.0023V12.528H8.64398C8.5945 12.5346 8.54415 12.5297 8.49686 12.5137C8.44957 12.4977 8.4066 12.471 8.3713 12.4357C8.336 12.4004 8.30931 12.3574 8.29331 12.3101C8.2773 12.2628 8.27242 12.2125 8.27903 12.163V9.97328C8.27242 9.92379 8.2773 9.87345 8.29331 9.82616C8.30931 9.77886 8.336 9.7359 8.3713 9.7006C8.4066 9.66529 8.44957 9.6386 8.49686 9.6226C8.54415 9.6066 8.5945 9.60171 8.64398 9.60832H9.73885V8.40032C9.73885 6.73904 10.0556 5.20404 12.5359 5.22886ZM14.092 7.37769V5.98358H12.5351C10.7987 5.98358 10.468 6.76313 10.468 8.39959V9.97255C10.468 10.0762 10.4549 10.1755 10.3819 10.2492C10.3456 10.2854 10.3026 10.314 10.2553 10.3336C10.2079 10.3531 10.1572 10.3631 10.106 10.363H9.00894V11.7732H10.106C10.322 11.7732 10.4688 11.9477 10.4688 12.163V17.6373H11.9461L11.9468 12.1623C11.947 12.0588 11.9882 11.9597 12.0615 11.8866C12.1347 11.8135 12.2339 11.7725 12.3373 11.7725H14.1183V10.3623H12.3359C12.2846 10.3623 12.2339 10.3522 12.1865 10.3326C12.1392 10.3129 12.0962 10.2842 12.06 10.2479C12.0238 10.2116 11.9951 10.1686 11.9756 10.1212C11.956 10.0738 11.946 10.0231 11.9461 9.97182L11.949 8.58791C11.949 7.95799 12.0439 7.34268 13.1775 7.34268L14.092 7.37769Z" fill="#6D278E"/>
</g>
<defs>
<clipPath id="clip0_1234_4275">
<rect width="23.3571" height="23.3571" fill="white" transform="translate(0.25 0.119629)"/>
</clipPath>
</defs>
</svg>
