<svg width="19" height="19" viewBox="0 0 19 19" fill="none" xmlns="http://www.w3.org/2000/svg">
<g clip-path="url(#clip0_1234_4372)">
<path d="M1.26416 9.50002C1.26416 13.1844 3.62666 16.3063 6.88916 17.4594V1.54065C3.62666 2.69377 1.26416 5.81565 1.26416 9.50002Z" fill="#428BC1"/>
<path d="M18.1392 9.50002C18.1392 5.81565 15.8048 2.69377 12.5142 1.54065V17.4594C15.8048 16.3063 18.1392 13.1844 18.1392 9.50002Z" fill="#ED4C5C"/>
<path d="M6.88916 17.4594C7.76104 17.7687 8.71729 17.9375 9.70166 17.9375C10.686 17.9375 11.6423 17.7687 12.5142 17.4594V1.54063C11.6423 1.23125 10.7142 1.0625 9.70166 1.0625C8.68916 1.0625 7.76104 1.23125 6.88916 1.54063V17.4594Z" fill="white"/>
</g>
<defs>
<clipPath id="clip0_1234_4372">
<rect width="18" height="18" fill="white" transform="translate(0.72998 0.5)"/>
</clipPath>
</defs>
</svg>
