<svg width="40" height="38" viewBox="0 0 40 38" fill="none" xmlns="http://www.w3.org/2000/svg">
<path d="M19.7976 31.4862C20.2181 31.4862 20.559 31.1453 20.559 30.7248C20.559 30.3043 20.2181 29.9634 19.7976 29.9634C19.377 29.9634 19.0361 30.3043 19.0361 30.7248C19.0361 31.1453 19.377 31.4862 19.7976 31.4862Z" fill="#6D278E"/>
<path d="M37.1816 30.4084C35.9942 29.2796 34.436 28.5782 32.8298 28.4328C35.0767 28.1295 36.8149 26.1999 36.8149 23.871C36.8149 21.332 34.7494 19.2665 32.2104 19.2665C29.6714 19.2665 27.6059 21.332 27.6059 23.871C27.6059 26.1986 29.3421 28.1268 31.587 28.4322C29.8881 28.5822 28.2459 29.3329 27.0785 30.4744C26.8338 30.1557 26.5691 29.853 26.285 29.5683C24.7249 28.0075 22.7 27.0787 20.5224 26.9093C23.5614 26.55 25.9263 23.9583 25.9263 20.8246C25.9263 17.4456 23.1774 14.6973 19.799 14.6973C16.4206 14.6973 13.6716 17.4462 13.6716 20.8246C13.6716 23.961 16.0399 26.554 19.0822 26.91C17.7121 27.0173 16.3806 27.4287 15.1938 28.1195C14.157 28.7222 13.2476 29.5263 12.5188 30.4744C11.3513 29.3329 9.70915 28.5815 8.01029 28.4322C10.2552 28.1268 11.9914 26.1986 11.9914 23.871C11.9914 21.332 9.92584 19.2665 7.38688 19.2665C4.84792 19.2665 2.78235 21.332 2.78235 23.871C2.78235 26.1999 4.52055 28.1295 6.76748 28.4328C5.16129 28.5775 3.60312 29.2796 2.41565 30.4084C1.03015 31.7245 0.268066 33.4594 0.268066 35.2936V36.8165C0.268066 37.2565 0.624774 37.6139 1.06549 37.6139H38.5305C38.9705 37.6139 39.3279 37.2572 39.3279 36.8165V35.2936C39.3279 33.4594 38.5658 31.7245 37.1816 30.4084ZM29.2001 23.871C29.2001 22.2108 30.5502 20.8606 32.2104 20.8606C33.8706 20.8606 35.2207 22.2108 35.2207 23.871C35.2207 25.5312 33.8706 26.8813 32.2104 26.8813C30.5502 26.8813 29.2001 25.5312 29.2001 23.871ZM15.2645 20.8253C15.2645 18.3257 17.298 16.2921 19.7976 16.2921C22.2973 16.2921 24.3308 18.3257 24.3308 20.8253C24.3308 23.3249 22.2973 25.3585 19.7976 25.3585C17.298 25.3585 15.2645 23.3249 15.2645 20.8253ZM4.3752 23.871C4.3752 22.2108 5.72536 20.8606 7.38555 20.8606C9.04574 20.8606 10.3959 22.2108 10.3959 23.871C10.3959 25.5312 9.04574 26.8813 7.38555 26.8813C5.72536 26.8813 4.3752 25.5312 4.3752 23.871ZM1.86225 35.2936C1.86225 32.4233 4.39187 29.999 7.38555 29.999C9.01574 29.999 10.6319 30.7171 11.6387 31.8599C10.9793 33.1414 10.6306 34.5675 10.6246 36.019H1.86225V35.293V35.2936ZM12.2188 36.0197C12.2254 34.6682 12.5908 33.3447 13.2769 32.1893C14.6384 29.899 17.1373 28.4762 19.7976 28.4762C21.8225 28.4762 23.7261 29.2643 25.1569 30.6964C25.605 31.1445 25.9957 31.6465 26.3184 32.1893C27.0051 33.3447 27.3705 34.6689 27.3772 36.0197H12.2188ZM37.7337 36.0197H28.9714C28.966 34.5682 28.6167 33.142 27.9572 31.8606C28.964 30.7178 30.5802 29.9997 32.2104 29.9997C35.2041 29.9997 37.7337 32.4246 37.7337 35.2943V36.0204V36.0197Z" fill="#6D278E"/>
<path d="M16.2494 8.56644L15.6914 11.8215C15.64 12.1208 15.7634 12.4229 16.0087 12.6009C16.2541 12.7796 16.5795 12.8029 16.8482 12.6616L19.7705 11.1247L22.6935 12.6616C22.8102 12.7229 22.9375 12.7529 23.0642 12.7529C23.2296 12.7529 23.3943 12.7016 23.5329 12.6009C23.7783 12.4222 23.901 12.1202 23.8496 11.8208L23.2909 8.56577L25.6558 6.26084C25.8732 6.04881 25.9512 5.73211 25.8579 5.44341C25.7639 5.15471 25.5145 4.94469 25.2145 4.90068L21.9488 4.42663L20.4866 1.43695C20.3526 1.16359 20.0752 0.990234 19.7705 0.990234C19.4658 0.990234 19.1884 1.16359 19.0544 1.43695L17.5923 4.42663L14.3266 4.90068C14.0265 4.94402 13.7765 5.15471 13.6831 5.44341C13.5891 5.73211 13.6678 6.04881 13.8852 6.26084L16.2501 8.56577L16.2494 8.56644ZM18.2377 5.9448C18.4984 5.9068 18.7237 5.74278 18.8391 5.50609L19.7698 3.60253L20.7006 5.50609C20.8166 5.74278 21.0413 5.9068 21.302 5.9448L23.3856 6.2475L21.8774 7.71701C21.6894 7.90036 21.6034 8.16439 21.6481 8.42309L22.0048 10.4993L20.1405 9.51921C19.9085 9.3972 19.6312 9.3972 19.3985 9.51921L17.5349 10.4993L17.891 8.42309C17.9356 8.16439 17.8496 7.90036 17.6616 7.71767L16.1534 6.24817L18.237 5.94547L18.2377 5.9448Z" fill="#6D278E"/>
<path d="M29.9343 13.5257L29.5576 15.7233C29.5063 16.022 29.6289 16.3247 29.875 16.5027C30.1203 16.6814 30.4457 16.7048 30.7144 16.5634L32.6886 15.526L34.6629 16.5634C34.7795 16.6248 34.9069 16.6548 35.0336 16.6548C35.1989 16.6548 35.3636 16.6034 35.5023 16.5027C35.7476 16.3241 35.8703 16.022 35.8197 15.7233L35.4429 13.5257L37.0398 11.9689C37.2572 11.7569 37.3352 11.4402 37.2412 11.1515C37.1471 10.8628 36.8978 10.6527 36.5977 10.6087L34.3908 10.288L33.404 8.28847C33.27 8.01644 32.9927 7.84375 32.6893 7.84375C32.3859 7.84375 32.1086 8.01577 31.9745 8.2878L30.9871 10.288L28.7802 10.6087C28.4801 10.6521 28.2308 10.8628 28.1368 11.1515C28.0428 11.4402 28.1214 11.7569 28.3381 11.9689L29.935 13.5257H29.9343ZM31.6305 11.8062C31.8899 11.7682 32.1146 11.6055 32.2306 11.3702L32.688 10.4427L33.1453 11.3695C33.2614 11.6048 33.4861 11.7682 33.7454 11.8055L34.7689 11.9542L34.0281 12.6763C33.8401 12.8597 33.7547 13.123 33.7988 13.3817L33.9734 14.4005L33.058 13.9198C32.826 13.7978 32.5486 13.7978 32.3166 13.9198L31.4005 14.4012L31.5752 13.3824C31.6198 13.1237 31.5338 12.8603 31.3458 12.677L30.6051 11.9549L31.6285 11.8062H31.6305Z" fill="#6D278E"/>
<path d="M4.04417 13.5257L3.66746 15.7233C3.61612 16.022 3.73881 16.3247 3.98483 16.5027C4.12352 16.6034 4.2882 16.6548 4.45355 16.6548C4.58024 16.6548 4.70758 16.6248 4.82426 16.5634L6.79849 15.526L8.77272 16.5634C9.04141 16.7048 9.36678 16.6808 9.61215 16.5027C9.85751 16.3241 9.98019 16.022 9.92952 15.7233L9.55281 13.5257L11.1497 11.9689C11.367 11.7569 11.445 11.4402 11.351 11.1515C11.257 10.8628 11.0076 10.6527 10.7076 10.6087L8.50069 10.288L7.51391 8.28847C7.37989 8.01644 7.10252 7.84375 6.79916 7.84375C6.49579 7.84375 6.21842 8.01577 6.08441 8.2878L5.09696 10.288L2.89004 10.6087C2.59001 10.6521 2.34064 10.8628 2.24663 11.1515C2.15262 11.4402 2.2313 11.7569 2.44799 11.9689L4.04484 13.5257H4.04417ZM5.74037 11.8062C5.99973 11.7682 6.22442 11.6055 6.34044 11.3702L6.79782 10.4427L7.25521 11.3695C7.37122 11.6048 7.59591 11.7682 7.85528 11.8055L8.87873 11.9542L8.13798 12.6763C7.94996 12.8597 7.86461 13.123 7.90862 13.3817L8.0833 14.4005L7.16787 13.9198C6.93584 13.7978 6.65847 13.7978 6.42645 13.9198L5.51034 14.4012L5.68503 13.3824C5.7297 13.1237 5.64369 12.8603 5.45567 12.677L4.71492 11.9549L5.73837 11.8062H5.74037Z" fill="#6D278E"/>
<path d="M23.1552 30.9304C22.7871 30.6884 22.2931 30.7911 22.051 31.1591C21.809 31.5272 21.9117 32.0212 22.2797 32.2632C22.9785 32.7226 23.5372 33.362 23.8946 34.1135C24.0313 34.4002 24.3166 34.5682 24.6147 34.5682C24.7293 34.5682 24.846 34.5435 24.9567 34.4908C25.3541 34.3015 25.5234 33.8261 25.3341 33.4287C24.8514 32.4139 24.0979 31.5505 23.1552 30.9311V30.9304Z" fill="#6D278E"/>
</svg>
