<svg width="28" height="27" viewBox="0 0 28 27" fill="none" xmlns="http://www.w3.org/2000/svg">
<g clip-path="url(#clip0_1234_4461)">
<path d="M24.2739 9C22.6427 9 21.7314 10.62 22.1027 11.8238L18.1089 15.8287C17.7714 15.7275 17.2764 15.7275 16.9389 15.8287L14.0702 12.96C14.4527 11.7563 13.5414 10.125 11.8989 10.125C10.2677 10.125 9.34518 11.745 9.72768 12.96L4.59768 18.0787C3.39393 17.7075 1.77393 18.6187 1.77393 20.25C1.77393 21.4875 2.78643 22.5 4.02393 22.5C5.65518 22.5 6.56643 20.88 6.19518 19.6762L11.3139 14.5463C11.6514 14.6475 12.1464 14.6475 12.4839 14.5463L15.3527 17.415C14.9702 18.6187 15.8814 20.25 17.5239 20.25C19.1552 20.25 20.0777 18.63 19.6952 17.415L23.7002 13.4213C24.9039 13.7925 26.5239 12.8813 26.5239 11.25C26.5239 10.0125 25.5114 9 24.2739 9Z" fill="#6D278E"/>
<path d="M17.5239 10.125L18.5814 7.79625L20.8989 6.75L18.5814 5.70375L17.5239 3.375L16.4889 5.70375L14.1489 6.75L16.4889 7.79625L17.5239 10.125Z" fill="#6D278E"/>
<path d="M4.58643 12.375L5.14893 10.125L7.39893 9.5625L5.14893 9L4.58643 6.75L4.02393 9L1.77393 9.5625L4.02393 10.125L4.58643 12.375Z" fill="#6D278E"/>
</g>
<defs>
<clipPath id="clip0_1234_4461">
<rect width="27" height="27" fill="white" transform="translate(0.648926)"/>
</clipPath>
</defs>
</svg>
