<svg width="24" height="24" viewBox="0 0 24 24" fill="none" xmlns="http://www.w3.org/2000/svg">
<g clip-path="url(#clip0_1234_4285)">
<path fill-rule="evenodd" clip-rule="evenodd" d="M0.296875 11.7986C0.296875 5.34473 5.54785 0.0952148 12.001 0.0952148C18.4541 0.0952148 23.7051 5.34473 23.7051 11.7986C23.7051 18.2525 18.4541 23.502 12.001 23.502C5.54785 23.502 0.296875 18.2525 0.296875 11.7986ZM1.07788 11.7986C1.07788 17.8218 5.97777 22.7224 12.001 22.7224C18.0242 22.7224 22.9241 17.8218 22.9241 11.7986C22.9241 5.77538 18.0242 0.87476 12.001 0.87476C5.97777 0.87476 1.07788 5.77538 1.07788 11.7986ZM11.9995 6.72849C13.6506 6.72849 13.8464 6.73467 14.4983 6.76456C14.8904 6.76922 15.2787 6.84121 15.6464 6.97739C15.9132 7.08029 16.1555 7.23791 16.3576 7.44008C16.5598 7.64226 16.7174 7.88452 16.8203 8.15128C16.9565 8.51898 17.0285 8.90734 17.0332 9.29941C17.063 9.95129 17.0692 10.1471 17.0692 11.7987C17.0692 13.4503 17.063 13.6451 17.0332 14.297C17.0285 14.689 16.9565 15.0774 16.8203 15.4451C16.7174 15.7119 16.5598 15.9541 16.3576 16.1563C16.1555 16.3585 15.9132 16.5161 15.6464 16.619C15.2787 16.7552 14.8904 16.8272 14.4983 16.8318C13.8464 16.8617 13.6506 16.8679 11.9995 16.8679C10.3485 16.8679 10.1526 16.8617 9.50076 16.8318C9.10868 16.8272 8.72032 16.7552 8.35263 16.619C8.08587 16.5161 7.8436 16.3585 7.64143 16.1563C7.43925 15.9541 7.28164 15.7119 7.17873 15.4451C7.04255 15.0774 6.97056 14.689 6.96591 14.297C6.93602 13.6451 6.92983 13.4493 6.92983 11.7982C6.92983 10.1471 6.93602 9.95129 6.96591 9.29941C6.97056 8.90734 7.04255 8.51898 7.17873 8.15128C7.28164 7.88452 7.43925 7.64226 7.64143 7.44008C7.8436 7.23791 8.08587 7.08029 8.35263 6.97739C8.72032 6.84121 9.10868 6.76922 9.50076 6.76456C10.1526 6.73467 10.3485 6.72849 11.9995 6.72849ZM11.9995 5.61437C10.3201 5.61437 10.1093 5.62159 9.44974 5.65148C8.93688 5.66183 8.42949 5.75906 7.94913 5.93902C7.53828 6.0979 7.16516 6.34086 6.85368 6.65234C6.5422 6.96382 6.29924 7.33694 6.14037 7.74779C5.96035 8.22831 5.86312 8.73588 5.85282 9.24891C5.82293 9.90852 5.81572 10.1183 5.81572 11.7982C5.81572 13.4781 5.82293 13.6884 5.85282 14.348C5.86318 14.8608 5.9604 15.3682 6.14037 15.8486C6.29924 16.2594 6.5422 16.6326 6.85368 16.944C7.16516 17.2555 7.53828 17.4985 7.94913 17.6574C8.42965 17.8374 8.93722 17.9346 9.45025 17.9449C10.1099 17.9748 10.3201 17.982 11.9995 17.982C13.679 17.982 13.8897 17.9748 14.5493 17.9449C15.0624 17.9346 15.5699 17.8374 16.0504 17.6574C16.4613 17.4985 16.8344 17.2555 17.1459 16.944C17.4574 16.6326 17.7003 16.2594 17.8592 15.8486C18.0391 15.368 18.1361 14.8605 18.1462 14.3475C18.1761 13.6879 18.1833 13.4781 18.1833 11.7982C18.1833 10.1183 18.1761 9.908 18.1462 9.2484C18.1359 8.73554 18.0387 8.22815 17.8587 7.74779C17.6998 7.33694 17.4569 6.96382 17.1454 6.65234C16.8339 6.34086 16.4608 6.0979 16.0499 5.93902C15.5694 5.75918 15.0618 5.66213 14.5488 5.65199C13.8892 5.62107 13.6795 5.61437 11.9995 5.61437ZM16.0434 8.49733C16.0434 8.90713 15.711 9.23933 15.3011 9.23933C14.8911 9.23933 14.5588 8.90713 14.5588 8.49733C14.5588 8.08753 14.8911 7.75532 15.3011 7.75532C15.711 7.75532 16.0434 8.08753 16.0434 8.49733ZM10.2363 9.15783C10.7584 8.80894 11.3724 8.62272 12.0004 8.62272C12.8426 8.62272 13.6502 8.95725 14.2457 9.55271C14.8412 10.1482 15.1758 10.9558 15.1758 11.7979C15.1758 12.4259 14.9896 13.0398 14.6406 13.5619C14.2917 14.0841 13.7958 14.491 13.2156 14.7314C12.6353 14.9717 11.9969 15.0346 11.3809 14.9121C10.765 14.7895 10.1992 14.4871 9.75507 14.0431C9.31098 13.599 9.00855 13.0333 8.88603 12.4173C8.76351 11.8014 8.82639 11.163 9.06673 10.5828C9.30707 10.0026 9.71406 9.50673 10.2363 9.15783ZM10.8552 13.5117C11.1942 13.7381 11.5927 13.859 12.0004 13.859C12.5471 13.859 13.0714 13.6419 13.4579 13.2553C13.8445 12.8688 14.0617 12.3445 14.0617 11.7979C14.0617 11.3902 13.9408 10.9917 13.7143 10.6528C13.4878 10.3138 13.1659 10.0497 12.7892 9.89366C12.4126 9.73765 11.9981 9.69684 11.5983 9.77637C11.1984 9.8559 10.8311 10.0522 10.5429 10.3405C10.2546 10.6287 10.0583 10.996 9.97874 11.3958C9.89921 11.7956 9.94003 12.21 10.096 12.5867C10.2521 12.9633 10.5163 13.2852 10.8552 13.5117Z" fill="#6D278E"/>
</g>
<defs>
<clipPath id="clip0_1234_4285">
<rect width="23.3571" height="23.3571" fill="white" transform="translate(0.321289 0.119629)"/>
</clipPath>
</defs>
</svg>
