<svg width="24" height="24" viewBox="0 0 24 24" fill="none" xmlns="http://www.w3.org/2000/svg">
<g clip-path="url(#clip0_1234_4291)">
<path fill-rule="evenodd" clip-rule="evenodd" d="M0.33252 11.7986C0.33252 5.34473 5.5835 0.0952148 12.0366 0.0952148C18.4898 0.0952148 23.7408 5.34473 23.7408 11.7986C23.7408 18.2525 18.4898 23.502 12.0366 23.502C5.5835 23.502 0.33252 18.2525 0.33252 11.7986ZM1.11352 11.7986C1.11352 17.8218 6.01341 22.7224 12.0366 22.7224C18.0599 22.7224 22.9598 17.8218 22.9598 11.7986C22.9598 5.77538 18.0599 0.87476 12.0366 0.87476C6.01341 0.87476 1.11352 5.77538 1.11352 11.7986ZM6.06991 17.0114H8.55367V9.23518H6.06991V17.0114ZM5.87202 6.7627C5.87202 7.53486 6.51623 8.17443 7.31045 8.17443C8.10441 8.17443 8.74888 7.53486 8.74888 6.7627C8.74888 6.3918 8.59734 6.03609 8.32758 5.77383C8.05782 5.51156 7.69195 5.36423 7.31045 5.36423C6.92896 5.36423 6.56309 5.51156 6.29333 5.77383C6.02357 6.03609 5.87202 6.3918 5.87202 6.7627ZM15.3712 17.0114H17.8496H17.8523V12.7398C17.8523 10.6495 17.3902 9.04019 14.8765 9.04019C13.668 9.04019 12.858 9.68496 12.5264 10.2959H12.4916V9.23518H10.1095V17.0114H12.5906V13.161C12.5906 12.147 12.7885 11.1669 14.0798 11.1669C15.3525 11.1669 15.3712 12.3238 15.3712 13.226V17.0114Z" fill="#6D278E"/>
</g>
<defs>
<clipPath id="clip0_1234_4291">
<rect width="23.3571" height="23.3571" fill="white" transform="translate(0.356934 0.119629)"/>
</clipPath>
</defs>
</svg>
