<svg width="13" height="14" viewBox="0 0 13 14" fill="none" xmlns="http://www.w3.org/2000/svg">
<g clip-path="url(#clip0_1234_4329)">
<path d="M3.39099 11.5175H1.0385V4.25914H3.39099V11.5175ZM2.21348 3.26904C1.46123 3.26904 0.851074 2.67206 0.851074 1.95133C0.851074 1.60513 0.994613 1.27312 1.25011 1.02832C1.50561 0.783522 1.85215 0.645996 2.21348 0.645996C2.57481 0.645996 2.92135 0.783522 3.17685 1.02832C3.43235 1.27312 3.57589 1.60513 3.57589 1.95133C3.57589 2.67206 2.96548 3.26904 2.21348 3.26904ZM12.1956 11.5175H9.84818V7.98415C9.84818 7.14208 9.83045 6.06219 8.62508 6.06219C7.40198 6.06219 7.21455 6.97706 7.21455 7.92349V11.5175H4.86459V4.25914H7.12083V5.24924H7.15376C7.46783 4.67896 8.23502 4.07714 9.37961 4.07714C11.7605 4.07714 12.1981 5.57927 12.1981 7.53036V11.5175H12.1956Z" fill="white"/>
</g>
<defs>
<clipPath id="clip0_1234_4329">
<rect width="11.3471" height="12.4248" fill="white" transform="translate(0.851074 0.645508)"/>
</clipPath>
</defs>
</svg>
