<svg width="37" height="37" viewBox="0 0 37 37" fill="none" xmlns="http://www.w3.org/2000/svg">
<path d="M33.4893 18.8813C33.4893 18.0529 32.8177 17.3813 31.9893 17.3813H25.2393C24.4108 17.3813 23.7393 18.0529 23.7393 18.8813C23.7393 19.7098 24.4108 20.3813 25.2393 20.3813H31.9893C32.8177 20.3813 33.4893 19.7098 33.4893 18.8813Z" fill="#6D278E"/>
<path d="M28.986 8.00962C28.4002 7.42383 27.4505 7.42383 26.8647 8.00962L22.0917 12.7826C21.506 13.3684 21.506 14.3181 22.0917 14.9039C22.6775 15.4897 23.6273 15.4897 24.2131 14.9039L28.986 10.1309C29.5718 9.54515 29.5718 8.59541 28.986 8.00962Z" fill="#6D278E"/>
<path d="M24.213 22.8588C23.6272 22.273 22.6775 22.273 22.0917 22.8588C21.5059 23.4446 21.5059 24.3944 22.0917 24.9802L26.8647 29.7531C27.4505 30.3389 28.4002 30.3389 28.986 29.7531C29.5718 29.1673 29.5718 28.2176 28.986 27.6318L24.213 22.8588Z" fill="#6D278E"/>
<path d="M19.6142 26.0063C19.6142 25.1779 18.9426 24.5063 18.1142 24.5063C17.2858 24.5063 16.6142 25.1779 16.6142 26.0063V32.7563C16.6142 33.5848 17.2858 34.2563 18.1142 34.2563C18.9426 34.2563 19.6142 33.5848 19.6142 32.7563V26.0063Z" fill="#6D278E"/>
<path d="M19.6142 5.00635C19.6142 4.17792 18.9426 3.50635 18.1142 3.50635C17.2858 3.50635 16.6142 4.17792 16.6142 5.00635V11.7563C16.6142 12.5848 17.2858 13.2563 18.1142 13.2563C18.9426 13.2563 19.6142 12.5848 19.6142 11.7563V5.00635Z" fill="#6D278E"/>
<path d="M7.24245 8.00962C7.82824 7.42383 8.77798 7.42383 9.36377 8.00962L14.1367 12.7826C14.7225 13.3684 14.7225 14.3181 14.1367 14.9039C13.551 15.4897 12.6012 15.4897 12.0154 14.9039L7.24245 10.1309C6.65666 9.54515 6.65666 8.59541 7.24245 8.00962Z" fill="#6D278E"/>
<path d="M12.0155 22.8588C12.6013 22.273 13.551 22.273 14.1368 22.8588C14.7226 23.4446 14.7226 24.3944 14.1368 24.9802L9.36381 29.7531C8.77803 30.3389 7.82828 30.3389 7.24249 29.7531C6.65671 29.1673 6.65671 28.2176 7.24249 27.6318L12.0155 22.8588Z" fill="#6D278E"/>
<path d="M10.9893 17.3813C11.8177 17.3813 12.4893 18.0529 12.4893 18.8813C12.4893 19.7098 11.8177 20.3813 10.9893 20.3813H4.23926C3.41083 20.3813 2.73926 19.7098 2.73926 18.8813C2.73926 18.0529 3.41083 17.3813 4.23926 17.3813H10.9893Z" fill="#6D278E"/>
</svg>
