<svg width="132" height="90" viewBox="0 0 132 90" fill="none" xmlns="http://www.w3.org/2000/svg">
<path fill-rule="evenodd" clip-rule="evenodd" d="M48.0358 0L66.4032 33.1398L84.7689 0H93.4951L66.4032 48.8836L39.3096 0H48.0358Z" fill="url(#paint0_linear_1234_4245)"/>
<path fill-rule="evenodd" clip-rule="evenodd" d="M61.6032 0L73.1852 20.9006L84.769 0H93.4952L73.1852 36.6443L52.877 0H61.6032Z" fill="url(#paint1_linear_1234_4245)"/>
<path fill-rule="evenodd" clip-rule="evenodd" d="M22.381 0L44.0839 39.1587L37.4146 42.8664L13.6582 0H22.381Z" fill="url(#paint2_linear_1234_4245)"/>
<path fill-rule="evenodd" clip-rule="evenodd" d="M9.47622 0L33.9991 44.2524L44.6815 24.9786L51.3508 28.688L33.9991 59.9945L0.75 0H9.47622Z" fill="url(#paint3_linear_1234_4245)"/>
<path fill-rule="evenodd" clip-rule="evenodd" d="M35.7196 0L60.2442 44.2524L84.7688 0H93.495L60.2442 59.9945L26.9951 0H35.7196Z" fill="url(#paint4_linear_1234_4245)"/>
<path d="M1.07775 69.622H4.00697L6.2807 78.1843L6.60845 79.7616H6.77232L7.20249 78.1843L9.31235 71.5884H11.8933L14.0237 78.1843L14.4334 79.7411H14.5972L14.9045 78.1843L17.0348 69.622H19.9641L16.0721 84.2886H13.4092L11.1149 77.2216L10.6848 75.6033H10.5209L10.0907 77.2216L7.79652 84.2886H5.13359L1.07775 69.622ZM26.807 83.2234H26.6432C26.3291 83.6058 25.9467 83.9335 25.496 84.2066C25.0591 84.4798 24.4923 84.6163 23.7959 84.6163C23.2769 84.6163 22.7853 84.5276 22.321 84.35C21.8704 84.1862 21.4743 83.954 21.1329 83.6536C20.7915 83.3531 20.5252 82.9912 20.3341 82.5679C20.1429 82.1446 20.0473 81.6803 20.0473 81.175C20.0473 80.6561 20.1497 80.1918 20.3545 79.7821C20.5594 79.3587 20.8462 78.9969 21.2149 78.6964C21.5836 78.396 22.0138 78.1707 22.5054 78.0204C23.0106 77.8566 23.5569 77.7746 24.1441 77.7746C24.7996 77.7746 25.339 77.8293 25.7623 77.9385C26.1857 78.0341 26.5339 78.1365 26.807 78.2458V77.9385C26.807 77.4059 26.5954 76.9689 26.172 76.6275C25.7487 76.2725 25.2229 76.0949 24.5948 76.0949C23.6661 76.0949 22.8809 76.4841 22.2391 77.2625L20.2931 75.9311C21.3583 74.5928 22.8126 73.9236 24.6562 73.9236C26.213 73.9236 27.4011 74.2923 28.2204 75.0298C29.0398 75.7535 29.4495 76.8324 29.4495 78.2663V84.2886H26.807V83.2234ZM26.807 80.2122C26.4929 80.062 26.1652 79.9459 25.8238 79.864C25.4961 79.7684 25.1342 79.7206 24.7381 79.7206C24.0963 79.7206 23.5979 79.864 23.2428 80.1508C22.9014 80.4239 22.7307 80.7653 22.7307 81.175C22.7307 81.5847 22.8946 81.9124 23.2223 82.1582C23.5637 82.404 23.9529 82.5269 24.3899 82.5269C24.745 82.5269 25.0727 82.4655 25.3731 82.3426C25.6736 82.206 25.9262 82.0353 26.1311 81.8305C26.3496 81.612 26.5134 81.3662 26.6227 81.0931C26.7456 80.8063 26.807 80.5127 26.807 80.2122ZM31.583 84.2886V69.622H34.2664V84.2886H31.583ZM36.564 84.2886V69.622H39.2474V84.2886H36.564ZM50.9496 81.8715C50.4853 82.6908 49.8571 83.3531 49.0651 83.8584C48.2867 84.3637 47.3307 84.6163 46.1973 84.6163C45.4326 84.6163 44.7224 84.4866 44.0669 84.2271C43.4251 83.954 42.8652 83.5785 42.3873 83.1005C41.9093 82.6225 41.5338 82.0626 41.2606 81.4208C41.0012 80.7653 40.8714 80.0484 40.8714 79.27C40.8714 78.5462 41.0012 77.8634 41.2606 77.2216C41.5201 76.5661 41.882 75.9993 42.3463 75.5214C42.8106 75.0298 43.3568 74.6406 43.985 74.3538C44.6268 74.067 45.3301 73.9236 46.0949 73.9236C46.9006 73.9236 47.6175 74.0602 48.2457 74.3333C48.8739 74.5928 49.3996 74.9615 49.823 75.4395C50.2463 75.9038 50.5672 76.4568 50.7857 77.0987C51.0042 77.7405 51.1135 78.437 51.1135 79.188C51.1135 79.2836 51.1135 79.3656 51.1135 79.4338C51.0998 79.5158 51.093 79.5909 51.093 79.6592C51.0793 79.7275 51.0725 79.8026 51.0725 79.8845H43.5139C43.5685 80.2942 43.6778 80.6492 43.8416 80.9497C44.0192 81.2364 44.2308 81.4823 44.4766 81.6871C44.7361 81.8783 45.016 82.0217 45.3165 82.1173C45.6169 82.1992 45.9242 82.2402 46.2383 82.2402C46.8528 82.2402 47.3581 82.1036 47.7541 81.8305C48.1638 81.5437 48.4847 81.1886 48.7168 80.7653L50.9496 81.8715ZM48.512 77.9795C48.4983 77.8019 48.4369 77.6039 48.3276 77.3854C48.232 77.1669 48.0818 76.9621 47.877 76.7709C47.6858 76.5797 47.44 76.4227 47.1396 76.2998C46.8528 76.1769 46.5046 76.1154 46.0949 76.1154C45.5213 76.1154 45.016 76.2793 44.5791 76.607C44.1421 76.9348 43.8348 77.3923 43.6573 77.9795H48.512ZM53.6333 76.5456H51.8717V74.2514H53.6333V71.1788H56.3167V74.2514H58.7748V76.5456H56.3167V80.4376C56.3167 80.6697 56.3372 80.8882 56.3782 81.0931C56.4328 81.2842 56.5284 81.4481 56.665 81.5847C56.8562 81.8032 57.1293 81.9124 57.4843 81.9124C57.7165 81.9124 57.9009 81.8919 58.0374 81.851C58.174 81.7963 58.3037 81.7281 58.4266 81.6461L59.1845 84.0018C58.8704 84.152 58.529 84.2613 58.1603 84.3295C57.8053 84.4115 57.4092 84.4524 56.9722 84.4524C56.467 84.4524 56.0095 84.3773 55.5998 84.2271C55.2038 84.0632 54.8692 83.8448 54.5961 83.5716C53.9543 82.9571 53.6333 82.0831 53.6333 80.9497V76.5456ZM68.0412 76.2383H75.2311C75.272 76.4022 75.3062 76.6002 75.3335 76.8324C75.3608 77.0645 75.3745 77.2967 75.3745 77.5288C75.3745 78.4711 75.2311 79.3587 74.9443 80.1918C74.6575 81.0248 74.2069 81.769 73.5924 82.4245C72.9369 83.121 72.1516 83.6604 71.2367 84.0428C70.3217 84.4251 69.277 84.6163 68.1026 84.6163C67.0374 84.6163 66.0337 84.4251 65.0915 84.0428C64.1492 83.6604 63.3298 83.1278 62.6334 82.445C61.9369 81.7622 61.3838 80.9565 60.9742 80.0279C60.5645 79.0856 60.3596 78.0614 60.3596 76.9553C60.3596 75.8491 60.5645 74.8318 60.9742 73.9031C61.3838 72.9609 61.9369 72.1483 62.6334 71.4655C63.3298 70.7827 64.1492 70.2501 65.0915 69.8678C66.0337 69.4854 67.0374 69.2942 68.1026 69.2942C69.2907 69.2942 70.349 69.4991 71.2777 69.9087C72.2199 70.3184 73.0256 70.8852 73.6948 71.6089L71.7898 73.473C71.3118 72.9677 70.7792 72.5853 70.192 72.3259C69.6048 72.0527 68.9015 71.9162 68.0821 71.9162C67.413 71.9162 66.778 72.0391 66.1771 72.2849C65.5762 72.5171 65.0505 72.8516 64.5998 73.2886C64.1492 73.7256 63.7873 74.2582 63.5142 74.8864C63.2547 75.5009 63.125 76.1905 63.125 76.9553C63.125 77.72 63.2547 78.4165 63.5142 79.0446C63.7873 79.6592 64.1492 80.1849 64.5998 80.6219C65.0641 81.0589 65.5967 81.4003 66.1976 81.6461C66.7985 81.8783 67.4403 81.9944 68.1231 81.9944C68.9015 81.9944 69.557 81.8851 70.0896 81.6666C70.6358 81.4345 71.1001 81.1409 71.4825 80.7858C71.7556 80.54 71.9878 80.2327 72.1789 79.864C72.3838 79.4816 72.5408 79.0583 72.6501 78.594H68.0412V76.2383ZM77.6599 84.2886V69.622H82.8219C83.5183 69.622 84.167 69.738 84.7679 69.9702C85.3824 70.1887 85.915 70.5028 86.3656 70.9125C86.8163 71.3222 87.1713 71.8138 87.4308 72.3873C87.6903 72.9472 87.82 73.5686 87.82 74.2514C87.82 74.9478 87.6903 75.5828 87.4308 76.1564C87.1713 76.7163 86.8163 77.2011 86.3656 77.6108C85.915 78.0204 85.3824 78.3414 84.7679 78.5735C84.167 78.792 83.5183 78.9013 82.8219 78.9013H80.4252V84.2886H77.6599ZM82.8628 76.2793C83.5866 76.2793 84.1329 76.0745 84.5016 75.6648C84.8703 75.2551 85.0546 74.784 85.0546 74.2514C85.0546 73.9919 85.0068 73.7393 84.9112 73.4935C84.8293 73.2477 84.6928 73.036 84.5016 72.8585C84.324 72.6673 84.0987 72.5171 83.8256 72.4078C83.5525 72.2986 83.2316 72.2439 82.8628 72.2439H80.4252V76.2793H82.8628ZM92.8959 84.2886V72.2439H88.7991V69.622H99.758V72.2439H95.6612V84.2886H92.8959Z" fill="url(#paint5_linear_1234_4245)"/>
<path d="M109.345 73.2026C108.877 73.2026 108.448 73.103 108.058 72.9036C107.677 72.7043 107.382 72.44 107.174 72.1106H107.122V72.9946H105.978V63.6866H107.174V66.6246L107.122 67.5086H107.174C107.382 67.1793 107.677 66.915 108.058 66.7156C108.448 66.5163 108.877 66.4166 109.345 66.4166C110.186 66.4166 110.896 66.746 111.477 67.4046C112.075 68.072 112.374 68.8736 112.374 69.8096C112.374 70.7543 112.075 71.556 111.477 72.2146C110.896 72.8733 110.186 73.2026 109.345 73.2026ZM109.15 72.1106C109.722 72.1106 110.203 71.894 110.593 71.4606C110.983 71.036 111.178 70.4856 111.178 69.8096C111.178 69.1423 110.983 68.592 110.593 68.1586C110.203 67.7253 109.722 67.5086 109.15 67.5086C108.569 67.5086 108.084 67.7253 107.694 68.1586C107.313 68.592 107.122 69.1423 107.122 69.8096C107.122 70.4856 107.313 71.0403 107.694 71.4736C108.084 71.8983 108.569 72.1106 109.15 72.1106ZM116.328 73.2026C115.392 73.2026 114.621 72.882 114.014 72.2406C113.408 71.5993 113.104 70.789 113.104 69.8096C113.104 68.839 113.399 68.033 113.988 67.3916C114.578 66.7416 115.332 66.4166 116.25 66.4166C117.195 66.4166 117.945 66.7243 118.499 67.3396C119.063 67.9463 119.344 68.8 119.344 69.9006L119.331 70.0306H114.326C114.344 70.6546 114.552 71.1573 114.95 71.5386C115.349 71.92 115.826 72.1106 116.38 72.1106C117.143 72.1106 117.741 71.7293 118.174 70.9666L119.24 71.4866C118.954 72.024 118.556 72.4443 118.044 72.7476C117.542 73.051 116.97 73.2026 116.328 73.2026ZM114.417 69.0426H118.07C118.036 68.6006 117.854 68.2366 117.524 67.9506C117.204 67.656 116.77 67.5086 116.224 67.5086C115.774 67.5086 115.384 67.6473 115.054 67.9246C114.734 68.202 114.521 68.5746 114.417 69.0426ZM122.77 73.0986C122.25 73.0986 121.816 72.9383 121.47 72.6176C121.132 72.297 120.958 71.8506 120.95 71.2786V67.7166H119.832V66.6246H120.95V64.6746H122.146V66.6246H123.706V67.7166H122.146V70.8886C122.146 71.3133 122.228 71.6036 122.393 71.7596C122.557 71.907 122.744 71.9806 122.952 71.9806C123.047 71.9806 123.138 71.972 123.225 71.9546C123.32 71.9286 123.407 71.8983 123.485 71.8636L123.862 72.9296C123.55 73.0423 123.186 73.0986 122.77 73.0986ZM125.587 71.0446C125.587 71.3566 125.717 71.6166 125.977 71.8246C126.246 72.0326 126.558 72.1366 126.913 72.1366C127.416 72.1366 127.862 71.9503 128.252 71.5776C128.651 71.205 128.85 70.7673 128.85 70.2646C128.478 69.97 127.958 69.8226 127.29 69.8226C126.805 69.8226 126.398 69.9396 126.068 70.1736C125.748 70.4076 125.587 70.698 125.587 71.0446ZM127.134 66.4166C128.018 66.4166 128.716 66.655 129.227 67.1316C129.739 67.5996 129.994 68.2453 129.994 69.0686V72.9946H128.85V72.1106H128.798C128.304 72.8386 127.646 73.2026 126.822 73.2026C126.12 73.2026 125.531 72.9946 125.054 72.5786C124.586 72.1626 124.352 71.6426 124.352 71.0186C124.352 70.36 124.599 69.8356 125.093 69.4456C125.596 69.0556 126.263 68.8606 127.095 68.8606C127.806 68.8606 128.391 68.9906 128.85 69.2506V68.9776C128.85 68.5616 128.686 68.2106 128.356 67.9246C128.027 67.63 127.641 67.4826 127.199 67.4826C126.532 67.4826 126.003 67.7643 125.613 68.3276L124.56 67.6646C125.141 66.8326 125.999 66.4166 127.134 66.4166Z" fill="#B72610"/>
<defs>
<linearGradient id="paint0_linear_1234_4245" x1="39.3096" y1="24.4426" x2="93.4951" y2="24.4426" gradientUnits="userSpaceOnUse">
<stop stop-color="#FFE717"/>
<stop offset="1" stop-color="#F82E19"/>
</linearGradient>
<linearGradient id="paint1_linear_1234_4245" x1="52.877" y1="18.3213" x2="93.4952" y2="18.3213" gradientUnits="userSpaceOnUse">
<stop stop-color="#FFE717"/>
<stop offset="1" stop-color="#F82E19"/>
</linearGradient>
<linearGradient id="paint2_linear_1234_4245" x1="13.6582" y1="21.4332" x2="44.0839" y2="21.4332" gradientUnits="userSpaceOnUse">
<stop stop-color="#FFE717"/>
<stop offset="1" stop-color="#F82E19"/>
</linearGradient>
<linearGradient id="paint3_linear_1234_4245" x1="0.75" y1="29.9972" x2="51.3508" y2="29.9972" gradientUnits="userSpaceOnUse">
<stop stop-color="#FFE717"/>
<stop offset="1" stop-color="#F82E19"/>
</linearGradient>
<linearGradient id="paint4_linear_1234_4245" x1="26.9951" y1="29.9972" x2="93.495" y2="29.9972" gradientUnits="userSpaceOnUse">
<stop stop-color="#FFE717"/>
<stop offset="1" stop-color="#F82E19"/>
</linearGradient>
<linearGradient id="paint5_linear_1234_4245" x1="0.750001" y1="76.7886" x2="100.75" y2="76.7886" gradientUnits="userSpaceOnUse">
<stop stop-color="#FEDF17"/>
<stop offset="1" stop-color="#F83719"/>
</linearGradient>
</defs>
</svg>
