<svg width="79" height="55" viewBox="0 0 79 55" fill="none" xmlns="http://www.w3.org/2000/svg">
<path fill-rule="evenodd" clip-rule="evenodd" d="M28.5326 0.787415L39.5108 20.5951L50.488 0.787415H55.7036L39.5108 30.0052L23.3169 0.787415H28.5326Z" fill="url(#paint0_linear_1234_4350)"/>
<path fill-rule="evenodd" clip-rule="evenodd" d="M36.6419 0.787415L43.5645 13.2797L50.4882 0.787415H55.7038L43.5645 22.6898L31.4263 0.787415H36.6419Z" fill="url(#paint1_linear_1234_4350)"/>
<path fill-rule="evenodd" clip-rule="evenodd" d="M13.199 0.787415L26.1708 24.1926L22.1846 26.4087L7.98535 0.787415H13.199Z" fill="url(#paint2_linear_1234_4350)"/>
<path fill-rule="evenodd" clip-rule="evenodd" d="M5.48569 0.787415L20.143 27.2372L26.5279 15.7172L30.5142 17.9342L20.143 36.6462L0.27002 0.787415H5.48569Z" fill="url(#paint3_linear_1234_4350)"/>
<path fill-rule="evenodd" clip-rule="evenodd" d="M21.1712 0.787415L35.8296 27.2372L50.4879 0.787415H55.7036L35.8296 36.6462L15.9565 0.787415H21.1712Z" fill="url(#paint4_linear_1234_4350)"/>
<path d="M0.465913 42.4463H2.21671L3.57573 47.5641L3.77162 48.5068H3.86957L4.12668 47.5641L5.38774 43.6217H6.93041L8.20372 47.5641L8.44858 48.4946H8.54653L8.73018 47.5641L10.0035 42.4463H11.7543L9.42805 51.2126H7.83642L6.46516 46.9886L6.20805 46.0214H6.1101L5.85299 46.9886L4.48174 51.2126H2.8901L0.465913 42.4463ZM15.8443 50.5759H15.7464C15.5587 50.8045 15.3301 51.0004 15.0608 51.1636C14.7996 51.3269 14.4608 51.4085 14.0446 51.4085C13.7344 51.4085 13.4406 51.3554 13.163 51.2493C12.8937 51.1514 12.657 51.0126 12.4529 50.833C12.2489 50.6535 12.0897 50.4372 11.9754 50.1841C11.8612 49.9311 11.804 49.6536 11.804 49.3516C11.804 49.0414 11.8652 48.7639 11.9877 48.519C12.1101 48.266 12.2815 48.0497 12.5019 47.8701C12.7223 47.6906 12.9794 47.5559 13.2732 47.4661C13.5752 47.3682 13.9017 47.3192 14.2527 47.3192C14.6445 47.3192 14.9669 47.3518 15.2199 47.4171C15.473 47.4743 15.6811 47.5355 15.8443 47.6008V47.4171C15.8443 47.0988 15.7178 46.8376 15.4648 46.6336C15.2118 46.4214 14.8975 46.3152 14.5221 46.3152C13.967 46.3152 13.4977 46.5479 13.1141 47.0131L11.9509 46.2173C12.5876 45.4174 13.4569 45.0174 14.5588 45.0174C15.4893 45.0174 16.1994 45.2378 16.6891 45.6786C17.1789 46.1112 17.4237 46.756 17.4237 47.613V51.2126H15.8443V50.5759ZM15.8443 48.7762C15.6566 48.6864 15.4607 48.617 15.2567 48.568C15.0608 48.5109 14.8445 48.4823 14.6078 48.4823C14.2241 48.4823 13.9262 48.568 13.714 48.7394C13.5099 48.9027 13.4079 49.1067 13.4079 49.3516C13.4079 49.5965 13.5059 49.7924 13.7017 49.9393C13.9058 50.0862 14.1384 50.1597 14.3996 50.1597C14.6118 50.1597 14.8077 50.1229 14.9873 50.0495C15.1669 49.9678 15.3179 49.8658 15.4403 49.7434C15.5709 49.6128 15.6688 49.4659 15.7341 49.3026C15.8076 49.1312 15.8443 48.9557 15.8443 48.7762ZM18.699 51.2126V42.4463H20.3028V51.2126H18.699ZM21.6761 51.2126V42.4463H23.28V51.2126H21.6761ZM30.2744 49.7679C29.9969 50.2576 29.6214 50.6535 29.148 50.9555C28.6827 51.2575 28.1114 51.4085 27.4339 51.4085C26.9768 51.4085 26.5524 51.3309 26.1606 51.1759C25.777 51.0126 25.4423 50.7881 25.1567 50.5025C24.871 50.2168 24.6465 49.8821 24.4833 49.4985C24.3282 49.1067 24.2506 48.6782 24.2506 48.213C24.2506 47.7804 24.3282 47.3723 24.4833 46.9886C24.6384 46.5968 24.8547 46.2581 25.1322 45.9724C25.4097 45.6786 25.7362 45.446 26.1116 45.2746C26.4953 45.1031 26.9156 45.0174 27.3727 45.0174C27.8543 45.0174 28.2828 45.0991 28.6583 45.2623C29.0337 45.4174 29.348 45.6378 29.601 45.9235C29.854 46.201 30.0458 46.5315 30.1764 46.9152C30.307 47.2988 30.3723 47.7151 30.3723 48.164C30.3723 48.2211 30.3723 48.2701 30.3723 48.3109C30.3642 48.3599 30.3601 48.4048 30.3601 48.4456C30.3519 48.4864 30.3478 48.5313 30.3478 48.5803H25.83C25.8627 48.8251 25.928 49.0373 26.0259 49.2169C26.132 49.3883 26.2586 49.5352 26.4055 49.6577C26.5606 49.772 26.7279 49.8577 26.9075 49.9148C27.087 49.9638 27.2707 49.9882 27.4584 49.9882C27.8257 49.9882 28.1277 49.9066 28.3644 49.7434C28.6093 49.572 28.8011 49.3598 28.9399 49.1067L30.2744 49.7679ZM28.8174 47.4416C28.8093 47.3355 28.7725 47.2172 28.7072 47.0866C28.6501 46.956 28.5603 46.8335 28.4379 46.7193C28.3236 46.605 28.1767 46.5111 27.9971 46.4377C27.8257 46.3642 27.6176 46.3275 27.3727 46.3275C27.0299 46.3275 26.7279 46.4254 26.4667 46.6213C26.2055 46.8172 26.0219 47.0907 25.9157 47.4416H28.8174ZM31.8784 46.5846H30.8255V45.2133H31.8784V43.3768H33.4823V45.2133H34.9515V46.5846H33.4823V48.9108C33.4823 49.0496 33.4946 49.1802 33.5191 49.3026C33.5517 49.4169 33.6088 49.5148 33.6905 49.5965C33.8047 49.7271 33.968 49.7924 34.1802 49.7924C34.319 49.7924 34.4291 49.7801 34.5108 49.7556C34.5924 49.723 34.6699 49.6822 34.7434 49.6332L35.1964 51.0412C35.0087 51.131 34.8046 51.1963 34.5842 51.2371C34.372 51.286 34.1353 51.3105 33.8741 51.3105C33.5721 51.3105 33.2987 51.2656 33.0538 51.1759C32.8171 51.0779 32.6171 50.9473 32.4539 50.7841C32.0703 50.4168 31.8784 49.8944 31.8784 49.2169V46.5846ZM40.49 46.4009H44.7874C44.8119 46.4989 44.8323 46.6172 44.8487 46.756C44.865 46.8948 44.8731 47.0335 44.8731 47.1723C44.8731 47.7355 44.7874 48.266 44.616 48.7639C44.4446 49.2618 44.1753 49.7067 43.808 50.0984C43.4162 50.5147 42.9469 50.8371 42.4 51.0657C41.8531 51.2942 41.2287 51.4085 40.5268 51.4085C39.8901 51.4085 39.2902 51.2942 38.727 51.0657C38.1638 50.8371 37.6741 50.5188 37.2578 50.1107C36.8415 49.7026 36.5109 49.221 36.2661 48.666C36.0212 48.1028 35.8988 47.4906 35.8988 46.8295C35.8988 46.1683 36.0212 45.5602 36.2661 45.0052C36.5109 44.442 36.8415 43.9564 37.2578 43.5482C37.6741 43.1401 38.1638 42.8218 38.727 42.5933C39.2902 42.3647 39.8901 42.2504 40.5268 42.2504C41.2369 42.2504 41.8694 42.3729 42.4245 42.6177C42.9877 42.8626 43.4692 43.2013 43.8692 43.6339L42.7306 44.7481C42.4449 44.4461 42.1266 44.2175 41.7756 44.0625C41.4246 43.8992 41.0042 43.8176 40.5145 43.8176C40.1146 43.8176 39.735 43.8911 39.3759 44.038C39.0167 44.1767 38.7025 44.3767 38.4331 44.6379C38.1638 44.8991 37.9475 45.2174 37.7842 45.5929C37.6292 45.9602 37.5516 46.3724 37.5516 46.8295C37.5516 47.2865 37.6292 47.7028 37.7842 48.0783C37.9475 48.4456 38.1638 48.7598 38.4331 49.021C38.7107 49.2822 39.029 49.4863 39.3881 49.6332C39.7473 49.772 40.1309 49.8413 40.539 49.8413C41.0042 49.8413 41.396 49.776 41.7144 49.6454C42.0409 49.5067 42.3184 49.3312 42.5469 49.119C42.7102 48.9721 42.8489 48.7884 42.9632 48.568C43.0856 48.3395 43.1795 48.0864 43.2448 47.8089H40.49V46.4009ZM46.2391 51.2126V42.4463H49.3245C49.7407 42.4463 50.1284 42.5157 50.4876 42.6545C50.8549 42.7851 51.1732 42.9728 51.4426 43.2177C51.7119 43.4625 51.9241 43.7564 52.0792 44.0992C52.2343 44.4338 52.3118 44.8052 52.3118 45.2133C52.3118 45.6296 52.2343 46.0092 52.0792 46.352C51.9241 46.6866 51.7119 46.9764 51.4426 47.2213C51.1732 47.4661 50.8549 47.6579 50.4876 47.7967C50.1284 47.9273 49.7407 47.9926 49.3245 47.9926H47.892V51.2126H46.2391ZM49.349 46.4254C49.7816 46.4254 50.108 46.303 50.3284 46.0581C50.5488 45.8133 50.659 45.5317 50.659 45.2133C50.659 45.0583 50.6304 44.9073 50.5733 44.7603C50.5243 44.6134 50.4427 44.4869 50.3284 44.3808C50.2223 44.2665 50.0876 44.1767 49.9244 44.1114C49.7611 44.0461 49.5693 44.0135 49.349 44.0135H47.892V46.4254H49.349ZM55.3457 51.2126V44.0135H52.897V42.4463H59.4472V44.0135H56.9986V51.2126H55.3457Z" fill="url(#paint5_linear_1234_4350)"/>
<path d="M65.1776 43.7704C64.8978 43.7704 64.6414 43.7109 64.4083 43.5917C64.1804 43.4726 64.0043 43.3146 63.88 43.1178H63.8489V43.6461H63.1651V38.0827H63.88V39.8388L63.8489 40.3671H63.88C64.0043 40.1703 64.1804 40.0123 64.4083 39.8932C64.6414 39.774 64.8978 39.7144 65.1776 39.7144C65.68 39.7144 66.1048 39.9113 66.4519 40.305C66.8093 40.7038 66.988 41.183 66.988 41.7424C66.988 42.3071 66.8093 42.7862 66.4519 43.1799C66.1048 43.5736 65.68 43.7704 65.1776 43.7704ZM65.061 43.1178C65.4029 43.1178 65.6904 42.9882 65.9235 42.7292C66.1566 42.4754 66.2732 42.1465 66.2732 41.7424C66.2732 41.3436 66.1566 41.0146 65.9235 40.7556C65.6904 40.4966 65.4029 40.3671 65.061 40.3671C64.7139 40.3671 64.4239 40.4966 64.1908 40.7556C63.9628 41.0146 63.8489 41.3436 63.8489 41.7424C63.8489 42.1465 63.9628 42.478 64.1908 42.737C64.4239 42.9908 64.7139 43.1178 65.061 43.1178ZM69.3515 43.7704C68.792 43.7704 68.331 43.5788 67.9684 43.1955C67.6058 42.8121 67.4245 42.3278 67.4245 41.7424C67.4245 41.1623 67.6006 40.6805 67.9528 40.2972C68.3051 39.9087 68.7557 39.7144 69.3048 39.7144C69.8695 39.7144 70.3175 39.8983 70.6491 40.2661C70.9858 40.6287 71.1541 41.139 71.1541 41.7968L71.1464 41.8745H68.1549C68.1652 42.2475 68.2895 42.5479 68.5278 42.7759C68.7661 43.0038 69.051 43.1178 69.3825 43.1178C69.8384 43.1178 70.1958 42.8898 70.4548 42.434L71.092 42.7448C70.921 43.0659 70.6827 43.3172 70.3771 43.4985C70.0767 43.6798 69.7348 43.7704 69.3515 43.7704ZM68.2092 41.284H70.3926C70.3719 41.0198 70.2631 40.8023 70.0663 40.6313C69.8746 40.4552 69.6156 40.3671 69.2893 40.3671C69.0199 40.3671 68.7868 40.45 68.59 40.6158C68.3983 40.7815 68.2714 41.0043 68.2092 41.284ZM73.2014 43.7083C72.8906 43.7083 72.6316 43.6124 72.4244 43.4208C72.2224 43.2291 72.1188 42.9623 72.1136 42.6205V40.4915H71.4454V39.8388H72.1136V38.6732H72.8285V39.8388H73.7609V40.4915H72.8285V42.3874C72.8285 42.6412 72.8777 42.8147 72.9761 42.908C73.0745 42.996 73.1859 43.04 73.3102 43.04C73.3672 43.04 73.4216 43.0349 73.4734 43.0245C73.5304 43.009 73.5822 42.9908 73.6288 42.9701L73.8541 43.6073C73.6676 43.6746 73.4501 43.7083 73.2014 43.7083ZM74.8856 42.4806C74.8856 42.6671 74.9633 42.8225 75.1187 42.9468C75.2793 43.0711 75.4658 43.1333 75.6781 43.1333C75.9786 43.1333 76.2454 43.0219 76.4785 42.7992C76.7168 42.5764 76.8359 42.3148 76.8359 42.0144C76.6132 41.8383 76.3023 41.7502 75.9035 41.7502C75.6134 41.7502 75.3699 41.8201 75.1731 41.96C74.9814 42.0999 74.8856 42.2734 74.8856 42.4806ZM75.8102 39.7144C76.3386 39.7144 76.7556 39.8569 77.0612 40.1418C77.3669 40.4215 77.5197 40.8074 77.5197 41.2995V43.6461H76.8359V43.1178H76.8048C76.5096 43.5529 76.1159 43.7704 75.6238 43.7704C75.2042 43.7704 74.8519 43.6461 74.567 43.3975C74.2873 43.1488 74.1474 42.838 74.1474 42.4651C74.1474 42.0714 74.2951 41.758 74.5903 41.5249C74.8908 41.2918 75.2896 41.1752 75.7869 41.1752C76.2117 41.1752 76.5614 41.2529 76.8359 41.4083V41.2452C76.8359 40.9965 76.7375 40.7867 76.5406 40.6158C76.3438 40.4397 76.1133 40.3516 75.8491 40.3516C75.4502 40.3516 75.1342 40.5199 74.9011 40.8566L74.2718 40.4604C74.6188 39.9631 75.1317 39.7144 75.8102 39.7144Z" fill="#B72610"/>
<defs>
<linearGradient id="paint0_linear_1234_4350" x1="23.3169" y1="15.3968" x2="55.7036" y2="15.3968" gradientUnits="userSpaceOnUse">
<stop stop-color="#FFE717"/>
<stop offset="1" stop-color="#F82E19"/>
</linearGradient>
<linearGradient id="paint1_linear_1234_4350" x1="31.4263" y1="11.7381" x2="55.7038" y2="11.7381" gradientUnits="userSpaceOnUse">
<stop stop-color="#FFE717"/>
<stop offset="1" stop-color="#F82E19"/>
</linearGradient>
<linearGradient id="paint2_linear_1234_4350" x1="7.98535" y1="13.598" x2="26.1708" y2="13.598" gradientUnits="userSpaceOnUse">
<stop stop-color="#FFE717"/>
<stop offset="1" stop-color="#F82E19"/>
</linearGradient>
<linearGradient id="paint3_linear_1234_4350" x1="0.27002" y1="18.7168" x2="30.5142" y2="18.7168" gradientUnits="userSpaceOnUse">
<stop stop-color="#FFE717"/>
<stop offset="1" stop-color="#F82E19"/>
</linearGradient>
<linearGradient id="paint4_linear_1234_4350" x1="15.9565" y1="18.7168" x2="55.7036" y2="18.7168" gradientUnits="userSpaceOnUse">
<stop stop-color="#FFE717"/>
<stop offset="1" stop-color="#F82E19"/>
</linearGradient>
<linearGradient id="paint5_linear_1234_4350" x1="0.27002" y1="46.7126" x2="60.27" y2="46.7126" gradientUnits="userSpaceOnUse">
<stop stop-color="#FEDF17"/>
<stop offset="1" stop-color="#F83719"/>
</linearGradient>
</defs>
</svg>
