<svg width="5293" height="1336" viewBox="0 0 5293 1336" fill="none" xmlns="http://www.w3.org/2000/svg">
<path d="M17.6229 268.374H175.128L297.387 728.773L315.01 813.583H323.821L346.952 728.773L460.399 374.111H599.18L713.729 728.773L735.758 812.482H744.569L761.09 728.773L875.64 268.374H1033.14L823.872 1057H680.686L557.325 677.005L534.195 589.992H525.384L502.254 677.005L378.893 1057H235.707L17.6229 268.374ZM1401.09 999.725H1392.28C1375.39 1020.29 1354.83 1037.91 1330.6 1052.59C1307.1 1067.28 1276.63 1074.62 1239.18 1074.62C1211.28 1074.62 1184.84 1069.85 1159.88 1060.3C1135.65 1051.49 1114.35 1039.01 1096 1022.86C1077.64 1006.7 1063.32 987.243 1053.04 964.48C1042.76 941.717 1037.62 916.751 1037.62 889.582C1037.62 861.679 1043.13 836.713 1054.14 814.685C1065.15 791.922 1080.57 772.463 1100.4 756.309C1120.23 740.154 1143.36 728.039 1169.79 719.961C1196.96 711.15 1226.33 706.744 1257.91 706.744C1293.15 706.744 1322.16 709.681 1344.92 715.556C1367.68 720.696 1386.41 726.203 1401.09 732.077V715.556C1401.09 686.918 1389.71 663.421 1366.95 645.064C1344.18 625.972 1315.91 616.427 1282.14 616.427C1232.21 616.427 1189.98 637.354 1155.47 679.208L1050.84 607.615C1108.11 535.655 1186.31 499.675 1285.44 499.675C1369.15 499.675 1433.03 519.5 1477.09 559.152C1521.15 598.069 1543.18 656.078 1543.18 733.179V1057H1401.09V999.725ZM1401.09 837.815C1384.2 829.738 1366.58 823.496 1348.22 819.09C1330.6 813.95 1311.14 811.38 1289.85 811.38C1255.34 811.38 1228.53 819.09 1209.44 834.51C1191.09 849.196 1181.91 867.553 1181.91 889.582C1181.91 911.611 1190.72 929.234 1208.34 942.451C1226.7 955.668 1247.63 962.277 1271.12 962.277C1290.21 962.277 1307.84 958.972 1323.99 952.364C1340.15 945.021 1353.73 935.842 1364.74 924.828C1376.49 913.079 1385.3 899.862 1391.18 885.176C1397.79 869.756 1401.09 853.969 1401.09 837.815ZM2641.98 927.031C2617.01 971.088 2583.23 1006.7 2540.65 1033.87C2498.79 1061.04 2447.39 1074.62 2386.44 1074.62C2345.32 1074.62 2307.14 1067.65 2271.9 1053.7C2237.38 1039.01 2207.28 1018.82 2181.58 993.117C2155.88 967.417 2135.69 937.311 2121 902.799C2107.05 867.553 2100.07 829.003 2100.07 787.149C2100.07 748.232 2107.05 711.517 2121 677.005C2134.95 641.76 2154.41 611.287 2179.38 585.586C2204.34 559.152 2233.71 538.225 2267.49 522.805C2302 507.385 2339.82 499.675 2380.94 499.675C2424.26 499.675 2462.81 507.018 2496.59 521.703C2530.37 535.655 2558.64 555.481 2581.4 581.181C2604.16 606.147 2621.42 635.885 2633.17 670.397C2644.91 704.908 2650.79 742.357 2650.79 782.743C2650.79 787.883 2650.79 792.289 2650.79 795.96C2650.05 800.366 2649.69 804.405 2649.69 808.076C2648.95 811.747 2648.59 815.786 2648.59 820.192H2242.16C2245.09 842.22 2250.97 861.312 2259.78 877.466C2269.33 892.886 2280.71 906.104 2293.92 917.118C2307.88 927.398 2322.93 935.108 2339.08 940.248C2355.24 944.654 2371.76 946.857 2388.65 946.857C2421.69 946.857 2448.86 939.514 2470.15 924.828C2492.18 909.408 2509.44 890.316 2521.92 867.553L2641.98 927.031ZM2510.91 717.758C2510.17 708.213 2506.87 697.566 2500.99 685.817C2495.85 674.068 2487.78 663.054 2476.76 652.774C2466.48 642.494 2453.27 634.05 2437.11 627.441C2421.69 620.832 2402.97 617.528 2380.94 617.528C2350.1 617.528 2322.93 626.34 2299.43 643.962C2275.93 661.585 2259.41 686.184 2249.87 717.758H2510.91ZM2786.28 640.658H2691.56V517.298H2786.28V352.083H2930.57V517.298H3062.74V640.658H2930.57V849.931C2930.57 862.413 2931.67 874.162 2933.87 885.176C2936.81 895.456 2941.95 904.268 2949.29 911.611C2959.57 923.359 2974.26 929.234 2993.35 929.234C3005.83 929.234 3015.75 928.132 3023.09 925.929C3030.43 922.992 3037.41 919.321 3044.02 914.915L3084.77 1041.58C3067.88 1049.66 3049.52 1055.53 3029.7 1059.2C3010.61 1063.61 2989.31 1065.81 2965.82 1065.81C2938.65 1065.81 2914.05 1061.77 2892.02 1053.7C2870.73 1044.88 2852.74 1033.14 2838.05 1018.45C2803.54 985.407 2786.28 938.412 2786.28 877.466V640.658ZM3560.99 624.137H3947.6C3949.8 632.948 3951.64 643.595 3953.1 656.078C3954.57 668.561 3955.31 681.044 3955.31 693.527C3955.31 744.193 3947.6 791.922 3932.18 836.713C3916.76 881.505 3892.53 921.524 3859.48 956.77C3824.24 994.218 3782.02 1023.22 3732.82 1043.78C3683.62 1064.34 3627.45 1074.62 3564.3 1074.62C3507.02 1074.62 3453.05 1064.34 3402.39 1043.78C3351.72 1023.22 3307.66 994.585 3270.22 957.871C3232.77 921.157 3203.03 877.834 3181 827.902C3158.97 777.236 3147.96 722.164 3147.96 662.687C3147.96 603.209 3158.97 548.505 3181 498.573C3203.03 447.907 3232.77 404.217 3270.22 367.503C3307.66 330.788 3351.72 302.151 3402.39 281.591C3453.05 261.031 3507.02 250.751 3564.3 250.751C3628.18 250.751 3685.09 261.765 3735.02 283.794C3785.69 305.822 3829.01 336.295 3864.99 375.213L3762.56 475.443C3736.86 448.275 3708.22 427.714 3676.64 413.763C3645.07 399.077 3607.25 391.734 3563.2 391.734C3527.22 391.734 3493.07 398.343 3460.76 411.56C3428.46 424.043 3400.18 442.033 3375.95 465.53C3351.72 489.028 3332.26 517.665 3317.58 551.442C3303.63 584.485 3296.65 621.567 3296.65 662.687C3296.65 703.807 3303.63 741.256 3317.58 775.033C3332.26 808.076 3351.72 836.346 3375.95 859.843C3400.92 883.341 3429.56 901.698 3461.87 914.915C3494.17 927.398 3528.69 933.639 3565.4 933.639C3607.25 933.639 3642.5 927.765 3671.14 916.017C3700.51 903.534 3725.47 887.746 3746.04 868.655C3760.72 855.438 3773.2 838.916 3783.48 819.09C3794.5 798.53 3802.94 775.767 3808.82 750.801H3560.99V624.137ZM4078.19 1057V268.374H4355.76C4393.2 268.374 4428.08 274.615 4460.39 287.098C4493.43 298.847 4522.07 315.735 4546.3 337.764C4570.54 359.793 4589.63 386.227 4603.58 417.067C4617.53 447.173 4624.51 480.583 4624.51 517.298C4624.51 554.746 4617.53 588.891 4603.58 619.731C4589.63 649.837 4570.54 675.904 4546.3 697.933C4522.07 719.961 4493.43 737.217 4460.39 749.7C4428.08 761.449 4393.2 767.323 4355.76 767.323H4226.89V1057H4078.19ZM4357.96 626.34C4396.88 626.34 4426.25 615.325 4446.07 593.297C4465.9 571.268 4475.81 545.935 4475.81 517.298C4475.81 503.346 4473.24 489.762 4468.1 476.545C4463.7 463.327 4456.35 451.946 4446.07 442.4C4436.53 432.12 4424.41 424.043 4409.73 418.169C4395.04 412.294 4377.78 409.357 4357.96 409.357H4226.89V626.34H4357.96ZM4897.44 1057V409.357H4677.15V268.374H5266.42V409.357H5046.13V1057H4897.44Z" fill="url(#paint0_linear_1757_3032)"/>
<path d="M1703.55 822.111C1704.62 820.642 1705.46 819.137 1706.56 817.705C1705.46 819.106 1704.46 820.578 1703.55 822.111Z" fill="url(#paint1_linear_1757_3032)"/>
<path d="M1802 298L1658 383V716L1802 587.07V298Z" fill="#FCB317"/>
<path d="M1803 795L1658 915V1057H1803V795Z" fill="#FCB317"/>
<path d="M1872 290.5L2016 228V363L1872 413L1917 470L1872 518V413V290.5Z" fill="#FCB317"/>
<path d="M2017 1056H1872V749.191L2017 596V676.371V1056Z" fill="#FCB317"/>
<path d="M1909.4 429.593L1955.26 465.573C1955.26 465.573 1710.74 724.337 1503.67 862.456C1353.14 962.87 1209.04 989.198 1192 919C1178.53 863.341 1193.21 852.014 1200 841C1124.07 946.04 1156.98 1045.81 1248.21 1055.68C1342.39 1065.89 1485.02 1020.59 1705.31 845.751C1925.6 670.917 2039.63 528.025 2039.63 528.025L2082.92 563.381L2112.29 358L1909.4 429.593Z" fill="#FB8C18"/>
<defs>
<linearGradient id="paint0_linear_1757_3032" x1="3.94359e-05" y1="668" x2="5293" y2="668" gradientUnits="userSpaceOnUse">
<stop stop-color="#FEDF17"/>
<stop offset="1" stop-color="#F83719"/>
</linearGradient>
<linearGradient id="paint1_linear_1757_3032" x1="1703.55" y1="819.908" x2="1706.56" y2="819.908" gradientUnits="userSpaceOnUse">
<stop stop-color="#FEDF17"/>
<stop offset="1" stop-color="#F83719"/>
</linearGradient>
</defs>
</svg>
