<svg width="13" height="15" viewBox="0 0 13 15" fill="none" xmlns="http://www.w3.org/2000/svg">
<path d="M8.89199 1.42643C8.61756 1.32982 8.31525 1.28518 8.11485 1.31268C7.94307 1.33548 7.78961 1.42799 7.71057 1.55632C7.69072 1.58864 7.53129 1.93321 7.35716 2.32203L7.04116 3.02872L6.06148 4.15944L5.08084 5.28976L4.9608 5.25392C4.60201 5.14584 4.26821 5.14843 3.93629 5.26102C3.61869 5.36852 3.36806 5.5492 3.20827 5.7855C3.14298 5.88011 3.06202 6.07865 3.03833 6.19678C2.93861 6.70878 3.12877 7.35319 3.56457 7.98199C3.62067 8.06275 3.66798 8.13229 3.67161 8.13704C3.67428 8.14141 3.54504 8.30824 3.38488 8.50725C3.22509 8.70532 2.84845 9.17321 2.54816 9.54663C2.24788 9.92005 1.77617 10.5064 1.49917 10.85C1.22218 11.1936 0.928189 11.5598 0.844766 11.6634C0.718391 11.8205 0.69491 11.8535 0.701205 11.8681C0.712843 11.8914 0.740895 11.9127 0.756736 11.9093C0.763035 11.9075 1.1093 11.5987 1.52582 11.2213C1.94138 10.8436 2.61865 10.2307 3.03002 9.8578C3.44233 9.48528 3.88233 9.08583 4.00946 8.97056C4.19443 8.80351 4.24311 8.76329 4.25322 8.77396C4.31333 8.83124 4.50759 8.98801 4.61464 9.06661C4.9902 9.34099 5.37722 9.52175 5.73353 9.5895C6.23775 9.68479 6.66606 9.55144 6.965 9.20587C7.30174 8.81674 7.42818 8.32109 7.32025 7.81616L7.29623 7.70042L7.32524 7.67839C7.3743 7.64269 9.59919 6.11102 9.69253 6.0486C9.77461 5.99469 9.82061 5.9774 10.4955 5.75784C10.8897 5.62912 11.242 5.51285 11.2781 5.49807C11.5415 5.39249 11.6577 5.13736 11.6309 4.72558C11.5993 4.26269 11.3673 3.6908 10.9924 3.15563C10.7463 2.80405 10.387 2.41069 10.065 2.13852C9.6771 1.80993 9.25765 1.55588 8.89199 1.42643Z" fill="#6D278E"/>
</svg>
