<svg width="20" height="24" viewBox="0 0 20 24" fill="none" xmlns="http://www.w3.org/2000/svg">
<g clip-path="url(#clip0_1319_2981)">
<path d="M15.1928 5.14685H4.91287C3.60131 5.14685 2.53809 6.21548 2.53809 7.53369V15.5097C2.53809 16.828 3.60131 17.8966 4.91287 17.8966H15.1928C16.5043 17.8966 17.5676 16.828 17.5676 15.5097V7.53369C17.5676 6.21548 16.5043 5.14685 15.1928 5.14685Z" stroke="#6D278E" stroke-width="1.57157" stroke-miterlimit="10"/>
<path d="M6.50156 11.6797C7.47728 11.6797 8.26826 10.8847 8.26826 9.90403C8.26826 8.92335 7.47728 8.12836 6.50156 8.12836C5.52584 8.12836 4.73486 8.92335 4.73486 9.90403C4.73486 10.8847 5.52584 11.6797 6.50156 11.6797Z" stroke="#6D278E" stroke-width="1.57157" stroke-miterlimit="10"/>
<path d="M10.0147 2.74534C10.7049 2.74534 11.2643 2.18303 11.2643 1.4894C11.2643 0.795762 10.7049 0.233459 10.0147 0.233459C9.3246 0.233459 8.76514 0.795762 8.76514 1.4894C8.76514 2.18303 9.3246 2.74534 10.0147 2.74534Z" stroke="#6D278E" stroke-width="0.785787" stroke-miterlimit="10"/>
<path d="M13.5909 11.6797C14.5666 11.6797 15.3576 10.8847 15.3576 9.90403C15.3576 8.92335 14.5666 8.12836 13.5909 8.12836C12.6152 8.12836 11.8242 8.92335 11.8242 9.90403C11.8242 10.8847 12.6152 11.6797 13.5909 11.6797Z" stroke="#6D278E" stroke-width="1.57157" stroke-miterlimit="10"/>
<path d="M10.5045 2.62878H9.53809V4.84487H10.5045V2.62878Z" fill="#6D278E"/>
<path d="M9.12367 18.199H8.15723V22.0574H9.12367V18.199Z" fill="#6D278E"/>
<path d="M11.9967 18.199H11.0303V22.0574H11.9967V18.199Z" fill="#6D278E"/>
<path d="M2.46464 13.6895C2.19835 13.6953 1.93359 13.6475 1.68589 13.5491C1.4382 13.4506 1.21255 13.3035 1.02219 13.1162C0.831835 12.929 0.680593 12.7054 0.577339 12.4586C0.474085 12.2119 0.420898 11.9469 0.420898 11.6791C0.420898 11.4114 0.474085 11.1464 0.577339 10.8996C0.680593 10.6529 0.831835 10.4293 1.02219 10.2421C1.21255 10.0548 1.4382 9.90765 1.68589 9.80921C1.93359 9.71077 2.19835 9.66304 2.46464 9.6688" stroke="#6D278E" stroke-width="1.57157" stroke-miterlimit="10"/>
<path d="M17.5361 9.6687C18.0592 9.68003 18.557 9.8968 18.9229 10.2726C19.2888 10.6484 19.4937 11.1532 19.4937 11.679C19.4937 12.2048 19.2888 12.7097 18.9229 13.0855C18.557 13.4613 18.0592 13.6781 17.5361 13.6894" stroke="#6D278E" stroke-width="1.57157" stroke-miterlimit="10"/>
<path d="M2.53809 23.5983C4.38555 22.5019 7.06763 21.8123 10.0524 21.8123C12.6741 21.8123 15.0609 22.3442 16.8555 23.212" stroke="#6D278E" stroke-width="1.57157" stroke-miterlimit="10"/>
<path d="M13.9317 14.0638C12.9207 14.6638 11.453 15.0407 9.81995 15.0407C8.38561 15.0407 7.07939 14.7505 6.09717 14.2728" stroke="#6D278E" stroke-width="1.57157" stroke-miterlimit="10"/>
</g>
<defs>
<clipPath id="clip0_1319_2981">
<rect width="20" height="24" fill="white"/>
</clipPath>
</defs>
</svg>
