<svg width="107" height="113" viewBox="0 0 107 113" fill="none" xmlns="http://www.w3.org/2000/svg">
<path d="M48.2424 0.290527H50.5213C50.7225 0.327024 50.9257 0.351966 51.13 0.365223C53.5321 0.396505 55.9156 0.620592 58.2884 0.971724C62.5886 1.60504 66.7368 2.73377 70.698 4.46964C75.9504 6.77115 80.5202 9.96008 84.2663 14.1903C88.5138 18.9869 91.2045 24.4876 92.3384 30.6922C92.738 32.8814 92.6428 35.0054 91.7051 37.0592C91.5865 37.3184 91.6518 37.4933 91.803 37.6919C92.77 38.9598 93.695 40.2596 94.7059 41.4943C96.8796 44.1476 99.1073 46.7607 101.293 49.405C102.612 51.0011 103.882 52.6297 104.974 54.3783C105.472 55.1738 105.925 55.9916 106.22 56.879C106.317 57.1727 106.374 57.4785 106.45 57.7792V58.2753C106.412 58.3478 106.385 58.4249 106.369 58.5045C106.334 59.1071 106.021 59.5898 105.576 59.9632C105.095 60.3632 104.581 60.7247 104.039 61.0441C103.469 61.3837 102.861 61.6659 102.26 61.9545C102.002 62.0849 101.728 62.1826 101.443 62.245C100.818 62.3656 100.184 62.4403 99.5554 62.5444C98.9507 62.644 98.3907 62.84 97.9338 63.2556C97.5822 63.5748 97.4197 63.9687 97.4996 64.4201C97.581 64.825 97.6851 65.2254 97.8113 65.6197C97.9325 66.0327 98.1396 66.433 98.1916 66.8525C98.2881 67.6282 98.6531 68.257 99.1332 68.859C99.42 69.2101 99.6868 69.5758 99.9324 69.9546C100.367 70.6389 100.341 71.3508 99.9151 72.0237C99.7064 72.3461 99.449 72.637 99.1512 72.8868C98.7003 73.2699 98.1995 73.5987 97.7267 73.9587C97.3757 74.2262 97.3211 74.458 97.5715 74.8142C97.7713 75.0996 98.0304 75.3492 98.2621 75.6155C98.6264 76.0336 99.0293 76.4275 99.343 76.8783C99.7426 77.4528 99.676 77.8812 99.2051 78.4105C98.7123 78.964 98.1909 79.4958 97.726 80.0704C97.3774 80.5007 97.0686 80.9593 96.803 81.4411C96.3368 82.2825 96.2576 83.1686 96.5872 84.0822C96.863 84.8483 97.12 85.6195 97.3864 86.3869C97.8366 87.6721 98.3187 88.9476 98.5185 90.2992C98.7257 91.6928 98.5099 92.9806 97.6594 94.1744C96.2749 96.1203 94.4435 97.4693 92.1087 98.1882C91.3881 98.4097 90.6682 98.6466 89.895 98.651C84.5793 98.6836 79.2636 98.7276 73.9479 98.7378C73.3745 98.7378 72.9955 98.9147 72.7078 99.3526C72.5234 99.6323 72.3083 99.8972 72.1631 100.194C71.8341 100.867 71.4971 101.54 71.2381 102.237C70.2804 104.834 69.747 107.53 69.2622 110.236C69.1083 111.096 68.9685 111.96 68.824 112.811C68.7671 112.837 68.7072 112.855 68.6455 112.866C49.7295 112.87 30.8135 112.873 11.8975 112.873C11.795 112.87 11.6928 112.861 11.5912 112.848C11.5739 112.844 11.5581 112.836 11.5459 112.824C11.5318 112.802 11.5199 112.779 11.5106 112.755C11.5173 112.715 11.5266 112.652 11.5392 112.588C11.8289 111.194 12.1426 109.804 12.405 108.405C12.9597 105.444 13.5225 102.485 14.0159 99.5142C14.4282 97.0326 14.7731 94.5409 15.0968 92.0446C15.3345 90.2072 15.537 88.3635 15.6669 86.5165C15.7781 84.9339 15.7894 83.3436 15.7947 81.7564C15.8003 80.777 15.6182 79.805 15.2573 78.8886C14.8231 77.7925 14.3915 76.6912 13.8714 75.6327C12.8006 73.4569 11.3887 71.4734 9.9649 69.5C9.28695 68.5615 8.62098 67.6154 7.92372 66.6909C5.80463 63.8832 4.25693 60.8066 3.12347 57.5117C1.5165 52.841 0.407008 48.0797 0.112653 43.1638C-0.137749 38.9789 0.174587 34.8349 1.20883 30.7509C2.22841 26.7136 3.882 22.9354 6.24017 19.447C9.74513 14.2611 14.3836 10.2301 19.959 7.17145C26.3069 3.6863 33.1957 1.78635 40.4094 0.884899C42.8384 0.571881 45.2844 0.394738 47.7349 0.35437C47.9053 0.34314 48.0748 0.321819 48.2424 0.290527ZM46.9911 78.9985H61.4364C61.4364 78.7922 61.4324 78.6154 61.4364 78.4347C61.4817 76.8623 61.6023 75.2975 61.9093 73.7487C62.442 71.0558 63.5076 68.5928 65.2924 66.4311C66.3453 65.1543 67.5733 64.0402 68.8379 62.9606C70.2937 61.7176 71.7795 60.504 73.1933 59.2182C75.9424 56.7181 77.9503 53.7405 79.2536 50.3275C80.2379 47.7528 80.8459 45.0925 81.1942 42.3792C81.709 38.3616 81.8748 34.335 81.4979 30.2977C81.3005 28.0888 80.8744 25.9042 80.2259 23.7762C78.0482 16.7037 73.553 11.4502 66.6556 8.17441C60.614 5.3047 54.1655 4.17469 47.4472 4.3809C47.2943 4.39394 47.1422 4.41525 46.9917 4.44474L46.9911 78.9985ZM43.5913 45.6185C43.7045 45.4908 43.7911 45.3868 43.883 45.2904C44.7168 44.4343 45.0684 43.4249 45.0265 42.254C44.9685 40.6012 44.9812 38.9457 44.9179 37.2929C44.8893 36.6994 44.7944 36.1106 44.6349 35.5366C44.3019 34.2993 43.7312 33.1463 43.1631 31.9959C43.0546 31.7769 42.95 31.556 42.8341 31.3179C43.6539 30.9987 44.0815 30.3851 44.4125 29.6956C44.7248 29.0444 44.9452 28.3639 44.9652 27.6437C44.9925 26.8004 45.0231 25.9558 44.9932 25.1137C44.9619 24.5366 44.8855 23.9625 44.7647 23.3963C44.6575 22.8454 44.4984 22.3027 44.3425 21.7613C44.2453 21.4255 44.3319 21.1631 44.6382 20.9952C44.9825 20.8082 45.0378 20.5304 44.9985 20.1934C44.9259 19.5371 44.6655 18.9842 44.0928 18.5884C44.0115 18.5242 43.9341 18.4555 43.861 18.3828C44.4777 17.9825 44.9079 17.4711 45.2835 16.9144C45.5489 16.5236 45.6824 16.064 45.6658 15.598C45.6525 15.0355 45.466 14.5248 45.177 14.0485C44.8382 13.4914 44.4862 12.9419 44.1208 12.4001C43.8823 12.0471 43.8451 11.7081 44.0502 11.3282C44.6555 10.2046 44.6788 9.00819 44.481 7.79391C44.3119 6.75583 43.7412 6.00632 42.7309 5.55432C42.1981 5.31874 41.706 5.00975 41.1745 4.77608C40.9091 4.664 40.6228 4.60429 40.3328 4.60052C39.8669 4.60259 39.4016 4.62988 38.9389 4.68224C38.4215 4.73012 37.888 4.78758 37.4811 5.1253C37.0636 5.47197 36.5814 5.56518 36.0633 5.64881C34.7866 5.85502 33.5872 6.24063 32.6789 7.1989C32.6182 7.25777 32.5544 7.3136 32.4877 7.36617C32.2127 7.60494 31.9037 7.63622 31.578 7.483C31.3463 7.37383 31.1218 7.24933 30.8994 7.1242C29.7918 6.48556 28.4762 6.26418 27.208 6.50302C25.0436 6.89565 23.7104 8.25421 22.9132 10.142C22.5962 10.8934 22.5329 11.6819 22.8146 12.4729C22.8819 12.6606 22.9277 12.8548 22.9512 13.052C23.0038 13.5103 22.7913 13.7855 22.3198 13.8615C22.0973 13.8872 21.8733 13.8985 21.6492 13.8953C20.533 13.9311 19.7319 14.4303 19.345 15.4352C19.1452 15.9568 19.0273 16.5154 18.9354 17.0664C18.8295 17.7048 18.8022 18.3496 18.7236 18.9899C18.6111 19.8946 18.2575 20.6734 17.4583 21.2346C17.098 21.49 16.7684 21.7849 16.4314 22.069C14.9942 23.282 14.2777 24.8245 14.1531 26.6408C14.0539 28.0887 14.1631 29.5182 14.6 30.9112C14.7385 31.3536 14.6739 31.6588 14.2437 31.9193C13.7529 32.2161 13.4392 32.6739 13.1735 33.1693C12.6734 34.1001 12.5395 35.0807 12.6547 36.106C12.684 36.3646 12.686 36.6257 12.6993 36.8664C12.5941 36.9222 12.4921 36.9834 12.3937 37.0496C12.2988 37.12 12.211 37.1987 12.1313 37.2846C11.1157 38.3993 10.5416 39.7157 10.2606 41.1528C9.9942 42.5139 10.3771 43.3138 11.5925 44.055C11.7024 44.1221 11.803 44.2031 11.9195 44.2855C11.8049 44.4368 11.715 44.5562 11.6238 44.6756C11.1004 45.3593 10.6508 46.0839 10.3924 46.8998C9.79974 48.7679 10.0928 50.4693 11.5086 51.9223C12.0172 52.4399 12.5552 52.9301 13.1202 53.3907C13.6017 53.7859 13.8388 54.2206 13.637 54.8271C13.4659 55.3379 13.5278 55.8378 13.7702 56.321C13.9114 56.6032 13.8901 56.8956 13.8095 57.1925C13.6497 57.7837 13.4978 58.3768 13.364 58.9737C13.0117 60.5404 13.3154 61.9947 14.2057 63.3431C14.5287 63.8321 14.8591 64.3173 15.1774 64.8114C16.0152 66.1017 17.14 67.0204 18.7243 67.3466C19.2857 67.4622 19.5794 67.8031 19.6673 68.3311C19.6893 68.4587 19.7386 68.5864 19.7472 68.7205C19.8251 69.8416 20.3519 70.8132 20.8674 71.7849C21.1677 72.3512 21.6613 72.8018 22.2659 73.0618C22.6561 73.2373 23.0304 73.4512 23.4333 73.5936C23.962 73.7898 24.5055 73.9475 25.0589 74.0654C26.2177 74.2926 27.3565 74.1126 28.4873 73.8374C28.8869 73.7411 29.3004 73.7047 29.71 73.6632C29.8399 73.6494 29.9713 73.665 30.0938 73.7087C30.2162 73.7524 30.3263 73.8229 30.4153 73.9147C30.98 74.472 31.5854 75 32.0842 75.6065C32.6322 76.2749 33.2669 76.8004 34.0707 77.1483C34.3844 77.2849 34.6927 77.4337 35.0031 77.5773C36.4436 78.2445 37.9593 78.4366 39.5389 78.2553C40.2975 78.1685 40.9867 77.9674 41.4909 77.3615C41.5795 77.2562 41.7573 77.126 41.8678 77.1445C42.4618 77.2434 42.8927 76.9204 43.3509 76.6689C44.3072 76.1434 44.8693 75.3441 45.0824 74.3137C45.2735 73.3861 45.0931 72.4699 44.9759 71.5525C44.9694 71.4861 44.9388 71.4239 44.8893 71.377C44.503 71.0846 44.5869 70.6951 44.6702 70.3274C44.8933 69.343 45.149 68.3655 45.3768 67.3817C45.504 66.834 45.6545 66.2843 45.7004 65.7288C45.7717 64.8676 45.7324 64.0179 45.1836 63.253C44.3445 62.0841 44.3512 61.9877 45.0504 60.7377C45.335 60.2441 45.516 59.7019 45.5832 59.1416C45.7217 57.8992 45.6158 56.6594 45.4827 55.4292C45.3428 54.1274 44.9452 52.871 44.4837 51.6395C44.3505 51.2864 44.3279 50.9749 44.5976 50.6665C45.2596 49.9106 45.2929 49.0456 45.0531 48.1352C44.8052 47.1877 44.301 46.3196 43.5913 45.6185ZM31.7971 85.5448C32.4631 85.6547 61.0555 85.624 61.4085 85.5219V80.7279C61.3532 80.7038 61.2951 80.6864 61.2353 80.6762C51.5727 80.6724 41.9102 80.6698 32.248 80.6686C32.1283 80.6732 32.0089 80.6838 31.8904 80.7005C31.8739 80.704 31.8587 80.7118 31.8464 80.7228C31.8283 80.7428 31.8118 80.7642 31.7971 80.7867V85.5448ZM60.275 87.2999C59.4179 87.1952 34.1347 87.236 33.7797 87.3414C33.6831 88.3099 33.7251 91.8225 33.8376 92.1691H60.2763L60.275 87.2999ZM58.6034 98.9721V94.0646H35.6158C35.4986 94.5894 35.5172 98.6082 35.6357 98.9721H58.6034Z" fill="url(#paint0_linear_1234_4344)"/>
<path d="M20.2385 67.5981L23.1427 67.3376C23.1501 67.4947 23.1574 67.6683 23.166 67.8426C23.2286 69.0671 23.9998 69.9424 25.2532 70.1493C25.9824 70.2693 26.723 70.3682 27.4648 70.2131C27.614 70.1812 27.7785 70.1493 27.8964 70.065C27.9916 69.9973 28.0835 69.8466 28.0729 69.7458C28.0622 69.6449 27.9343 69.4904 27.8331 69.47C27.5474 69.4181 27.258 69.3876 26.9674 69.3787C26.5205 69.3493 26.0683 69.3659 25.6281 69.3002C24.8756 69.1884 24.3488 68.7511 24.0098 68.1101C23.7068 67.5356 23.7827 67.1672 24.2949 66.7477C24.5965 66.5013 24.9342 66.2957 25.2372 66.0506C25.6181 65.7416 25.9944 65.423 26.346 65.084C26.5798 64.8587 26.7256 64.5797 26.5591 64.1794C26.39 64.2521 26.2261 64.2968 26.0976 64.3849C25.9042 64.5232 25.7196 64.6724 25.5449 64.8318C25.3404 65.01 25.1453 65.1964 24.9455 65.3777C23.7035 66.4962 22.2097 66.9348 20.5328 66.869C19.6671 66.8352 18.8213 66.6845 18.0255 66.3302C17.3922 66.048 16.8094 65.6918 16.3559 65.1811C15.2637 63.9572 14.4246 62.5967 14.1269 60.9885C13.9242 59.9451 14.0616 58.8671 14.5205 57.9011C15.2531 58.0492 15.9503 58.2203 16.6609 58.3218C17.0605 58.378 17.4841 58.3391 17.8903 58.2944C18.1533 58.2657 18.1487 58.2267 18.3298 57.8711C18.1673 57.8289 18.0023 57.7961 17.8357 57.7728C17.492 57.7447 17.1464 57.723 16.8014 57.7204C15.4475 57.709 14.1716 56.3395 14.5252 54.8278C14.5939 54.5543 14.6455 54.2772 14.6797 53.9978C14.7383 53.4302 14.6797 53.3319 14.1469 53.1359C12.7884 52.6418 11.8826 51.7078 11.3319 50.4501C10.608 48.7998 10.8657 47.2146 11.7495 45.6887C11.874 45.4723 12.0491 45.2821 12.1717 45.0644C12.3302 44.7828 12.5713 44.7081 12.8669 44.7771C13.1678 44.8467 13.4627 44.9378 13.7493 45.0497C14.2029 45.2284 14.665 45.3414 15.1572 45.3204C15.3477 45.3069 15.5388 45.3365 15.7151 45.407C15.8914 45.4774 16.048 45.5866 16.1721 45.7258C16.5823 46.1727 16.9932 46.6196 17.3848 47.0786C17.8423 47.6168 18.2566 48.1907 18.7314 48.7136C19.4893 49.5435 20.4529 50.0262 21.615 50.0964C22.0213 50.1213 22.4368 50.1507 22.8957 49.9004C22.7219 49.7625 22.6033 49.6208 22.4495 49.5557C22.1038 49.4095 21.7442 49.2933 21.3839 49.1803C21.1715 49.1164 20.9497 49.0737 20.7306 49.027C19.7363 48.8138 18.9751 48.2884 18.4311 47.4642C18.2093 47.129 17.9742 46.8015 17.7351 46.4778C17.4334 46.0686 17.1804 45.6549 17.1471 45.1276C17.1198 44.7068 16.906 44.5651 16.4485 44.5721C16.2243 44.5782 16.0013 44.605 15.7825 44.6519C15.2399 44.7681 14.6728 44.7153 14.1636 44.5013C13.3684 44.1738 12.5892 43.8175 11.9406 43.2557C11.3872 42.7762 10.9383 42.2183 10.9823 41.4617C11.0555 40.1957 11.5623 39.0919 12.4647 38.1605C12.5371 38.0891 12.6167 38.025 12.7024 37.9689C13.0201 37.7531 13.102 37.7646 13.3411 38.0538C13.4796 38.223 13.6115 38.3967 13.7493 38.5646C13.9744 38.8423 14.2275 39.09 14.5918 39.196C14.8582 39.2732 14.9914 39.4513 15.0027 39.7067C15.0693 40.9108 15.8465 41.7733 16.5464 42.6716C16.6623 42.8277 16.8111 42.9587 16.9832 43.0563C17.1553 43.1538 17.3468 43.2157 17.5453 43.2378C17.6965 43.2538 17.9056 43.2123 18.0068 43.1178C18.1707 42.9639 18.0495 42.768 17.9249 42.6307C17.7784 42.4704 17.6206 42.3 17.4301 42.1998C15.8744 41.3845 15.3656 39.2202 15.8984 37.6312C16.2427 36.6097 16.7042 35.6629 17.5826 34.9498C17.7464 34.8164 17.8597 34.6268 18.0155 34.4391C17.6306 34.178 17.3049 34.2871 17.0299 34.4806C16.7843 34.6623 16.566 34.8756 16.3812 35.1145C15.7605 35.8851 15.3743 36.7661 15.1099 37.7001C15.056 37.8917 14.998 38.0787 14.9188 38.3475C14.7256 38.216 14.5532 38.1234 14.4126 37.9977C13.9298 37.5648 13.6488 37.0177 13.5176 36.4067C13.2006 34.9383 13.457 33.6123 14.6311 32.5334C14.681 32.4881 14.7343 32.4459 14.7889 32.4057C15.1432 32.1382 15.2178 32.1503 15.5081 32.4696C15.6864 32.6701 15.8751 32.8619 16.0735 33.0441C16.17 33.1394 16.2941 33.2046 16.4298 33.2312C16.563 33.2446 16.7069 33.1674 16.8454 33.1322C16.8101 33.0154 16.8128 32.8571 16.7322 32.7888C15.5907 31.8126 15.2218 30.4796 14.9341 29.1319C14.6741 27.9098 14.7128 26.6465 15.0473 25.4412C15.3243 24.4261 15.8791 23.5572 16.6503 22.8172C17.0769 22.4074 17.5138 22.0075 17.9609 21.6176C18.5802 21.0788 18.8386 21.0565 19.5812 21.4019C19.7941 21.5094 20.0194 21.5928 20.2525 21.6502C20.5388 21.7102 20.7233 21.5474 20.6334 21.2921C20.4729 20.8375 20.421 20.3114 19.8635 20.0676C19.5752 19.9399 19.444 19.6992 19.464 19.3781C19.5026 18.7013 19.4899 18.0201 19.5632 17.3472C19.6134 16.9045 19.7242 16.47 19.8928 16.0551C20.1679 15.3739 20.7 14.9091 21.4246 14.6678C21.9766 14.4826 22.542 14.3518 23.2167 14.3696C23.1574 14.588 23.1381 14.7648 23.0628 14.9161C22.6906 15.6631 22.7825 16.4707 22.7085 17.2566C22.7063 17.2896 22.7094 17.3228 22.7179 17.3549C22.7598 17.5464 22.7725 17.7763 23.0582 17.775C23.3245 17.775 23.3292 17.5496 23.3538 17.3792C23.4138 16.9699 23.4304 16.555 23.5037 16.1483C23.5703 15.7652 23.6922 15.3822 23.798 14.9672C23.9978 15.0355 24.137 15.0898 24.2789 15.1306C24.6118 15.227 24.8116 15.1613 24.9502 14.8491C25.0751 14.5595 25.1751 14.2606 25.2492 13.9553C25.2809 13.8185 25.3449 13.6904 25.4363 13.5811C25.5278 13.4717 25.6442 13.384 25.7766 13.3245C26.2521 13.0864 26.7216 12.8496 27.2677 12.7876C27.4217 12.7686 27.5688 12.7145 27.6966 12.6299C27.7385 12.5953 27.7721 12.5523 27.7951 12.5041C27.8181 12.4558 27.8299 12.4034 27.8298 12.3503C27.8265 12.2865 27.6893 12.1843 27.6153 12.1862C27.3603 12.1939 27.0826 12.1907 26.8561 12.2788C26.0417 12.5916 25.2412 12.9383 24.438 13.2779C24.2496 13.3577 24.0731 13.4624 23.8493 13.5767C23.3552 12.4058 22.9836 11.2484 23.7088 10.0654C24.0598 9.47843 24.4607 8.92025 24.9075 8.39656C26.009 7.13567 27.4382 6.81327 29.0685 7.19632C29.9892 7.41465 30.8537 7.81091 31.6091 8.3608C31.6145 8.3938 31.6145 8.4274 31.6091 8.4604C31.2515 9.37717 31.1742 9.42186 30.1327 9.39569C29.8516 9.38866 29.5406 9.3427 29.3548 9.70787C29.7211 9.99006 30.1473 10.0213 30.5715 10.0067C31.3141 9.98112 31.3314 9.97282 31.3774 10.7134C31.408 11.2069 31.3913 11.7036 31.4067 12.1984C31.4173 12.5444 31.4113 12.8962 31.4733 13.2345C31.5339 13.5537 31.8582 13.6176 32.0973 13.3801C32.3363 13.1426 32.3703 12.8476 32.3377 12.5463C32.2884 12.086 32.2131 11.6283 32.1532 11.1686C32.1066 10.8079 32.0506 10.4465 32.028 10.0833C31.9734 9.20735 32.3011 8.45976 32.9237 7.83219C33.8434 6.90712 35.0228 6.4749 36.3002 6.2406C36.3275 6.23549 36.3614 6.25976 36.4167 6.27891C36.3428 6.42766 36.2689 6.57386 36.1976 6.72133C35.9565 7.21867 35.7527 7.72685 35.7188 8.28228C35.6988 8.60149 35.5796 8.85111 35.2406 8.97816C34.9016 9.1052 34.7291 9.39505 34.7005 9.71298C34.6659 10.1031 34.6546 10.5123 34.7405 10.8909C34.9003 11.5931 35.3745 12.0068 36.123 12.0151C36.8715 12.0234 37.6287 11.904 38.38 11.8236C38.4338 11.8102 38.4834 11.7845 38.5245 11.7485C38.5656 11.7126 38.5969 11.6676 38.6157 11.6174C38.6457 11.4476 38.4825 11.3939 38.3413 11.3984C38.0989 11.3977 37.8569 11.4193 37.6188 11.4629C37.0021 11.5963 36.49 11.4054 36.0557 11.0083C35.6215 10.6112 35.6562 10.2276 36.0358 9.76406C36.2049 9.55912 36.2908 9.26098 36.3301 8.99412C36.4267 8.33527 36.5206 7.67386 36.8562 7.08651C37.102 6.65622 37.381 6.224 37.7326 5.87351C38.4073 5.19997 39.259 4.99185 40.202 5.26254C40.7135 5.40938 41.2163 5.58813 41.7111 5.7803C42.7467 6.18251 43.372 6.91158 43.6151 7.96626C43.8408 8.94496 43.8215 9.90196 43.4819 10.8507C43.4434 10.9592 43.3989 11.0658 43.3487 11.1699C43.3155 11.2168 43.2763 11.2597 43.2322 11.2975C42.5622 10.8009 41.8951 10.3063 41.2309 9.81385C40.9992 9.64212 40.7794 9.44995 40.529 9.3095C40.4185 9.24566 40.196 9.23417 40.1141 9.3012C40.0322 9.36823 40.0142 9.59679 40.0742 9.69511C40.2162 9.93691 40.3987 10.1547 40.6143 10.3399C40.8334 10.5193 41.1084 10.6406 41.3675 10.7715C41.9562 11.0677 42.4996 11.438 42.8819 11.9519C43.4468 12.7029 43.9703 13.4818 44.4502 14.2854C44.8951 15.0349 44.8211 15.8176 44.3436 16.5473C44.1536 16.8427 43.9424 17.1251 43.7116 17.3926C43.404 17.7443 43.0037 17.8541 42.5469 17.6799C42.2592 17.57 41.9788 17.4411 41.6951 17.3223C40.6895 16.9023 39.6626 16.5562 38.5424 16.7082C37.8765 16.7976 37.2172 16.9259 36.5639 17.0734C35.9272 17.217 35.2985 17.3926 34.6725 17.5809C34.3895 17.6652 34.0778 17.7526 33.9859 18.128C34.5247 18.2359 35.0102 18.1542 35.4863 18.0099C35.9459 17.8699 36.4025 17.7209 36.8562 17.563C37.8529 17.216 38.9335 17.1552 39.9656 17.3881C40.9102 17.5878 41.8212 17.9122 42.6727 18.3521C42.8244 18.4308 42.9705 18.5189 43.1103 18.6158C43.8322 19.1112 43.976 19.4623 43.6903 20.2699C43.4025 21.0766 43.4295 21.956 43.7663 22.7451C44.4622 24.4516 44.4389 26.206 44.1985 27.9763C44.1148 28.6036 43.8682 29.2007 43.4812 29.7128C43.2194 30.0739 42.8669 30.3659 42.4563 30.562C42.1193 30.2306 41.8463 29.7958 41.191 29.7958C41.2576 30.011 41.2842 30.2032 41.3708 30.3672C41.5294 30.6785 41.7129 30.9775 41.9195 31.2617C42.3892 31.8959 42.778 32.5818 43.0777 33.3046C43.3174 33.8715 43.5598 34.4372 43.7989 35.0047C44.2124 35.9853 44.3576 37.0209 44.3776 38.0641C44.4036 39.3703 44.3743 40.6778 44.3343 41.984C44.2897 43.4332 43.5971 44.576 42.4323 45.4723C41.6332 46.089 40.7161 46.5104 39.7685 46.8832C39.2124 47.1028 38.6617 47.3416 38.1302 47.6104C37.7906 47.7815 37.7793 47.8504 37.6887 48.1767C37.9324 48.3369 38.1615 48.2616 38.4066 48.155C38.8128 47.9788 39.2317 47.83 39.6413 47.6608C40.3996 47.3484 41.1561 47.032 41.9109 46.7115C42.1 46.631 42.2745 46.52 42.461 46.437C42.9058 46.2352 43.057 46.2295 43.3653 46.5723C44.0719 47.3576 44.4542 48.2552 44.1991 49.3131C44.1265 49.615 43.9993 49.9049 43.8708 50.2822C43.671 50.0121 43.5378 49.8066 43.382 49.6182C43.019 49.1822 42.4829 49.1222 41.9875 49.4956C42.1553 49.677 42.2998 49.8787 42.4916 50.0319C43.0437 50.4629 43.3813 51.0228 43.6737 51.6331C44.4003 53.1525 44.8678 54.7326 44.9823 56.4021C45.0869 57.9292 44.8058 59.4027 44.2537 60.8283C43.8941 61.7585 43.5152 62.6797 43.1582 63.6118C43.0885 63.7981 43.052 63.9943 43.0503 64.1921C43.0463 64.4762 43.2415 64.5816 43.4945 64.429C43.6363 64.3376 43.7534 64.2153 43.8362 64.0721C43.9526 63.8525 44.0571 63.6273 44.1492 63.3973C45.0149 63.938 45.306 65.1166 44.7379 66.0238C44.5101 66.3731 44.2165 66.6788 43.8721 66.9252C43.1936 67.4184 42.3712 67.6961 41.52 67.7194C40.565 67.7577 39.6226 67.706 38.7103 67.404C37.7879 67.0989 37.0707 66.5492 36.6411 65.709C36.4761 65.3651 36.3665 64.9992 36.3161 64.6237C36.1916 63.8244 36.0364 63.6661 35.2033 63.6259C34.8417 63.6086 34.4801 63.5946 34.1191 63.562C33.4585 63.5077 33.0123 63.1521 32.8445 62.5603C32.5448 61.505 32.5608 60.4669 33.2441 59.5189C33.3519 59.3695 33.4504 59.214 33.5391 59.0535C33.6596 58.8358 33.6356 58.6423 33.3526 58.4687C33.1868 58.5659 33.0271 58.6725 32.8744 58.7879C32.6394 58.9794 32.4183 59.1926 32.1978 59.4021C30.78 60.751 29.0405 61.3071 27.0786 61.2943C25.7187 61.286 24.4087 61.0141 23.1381 60.557C22.2204 60.2269 21.4878 59.6849 20.969 58.8734C20.1033 57.52 19.4673 56.0854 19.2182 54.5066C19.1031 53.8336 19.1907 53.143 19.4706 52.516C19.6851 52.0372 19.6038 51.8987 19.071 51.7212C18.5509 51.5475 18.0155 51.4071 17.5147 51.1926C16.6603 50.8261 16.0669 50.2056 15.7126 49.3654C15.5068 48.8783 15.5168 48.4359 15.8458 48.0075C16.1411 47.6359 16.3069 47.1848 16.32 46.7179C16.3253 46.4753 16.3726 46.172 16.0782 46.0673C15.7839 45.9626 15.5574 46.1803 15.3903 46.3967C15.2647 46.5746 15.15 46.7591 15.0466 46.9496C14.6417 47.627 14.2475 47.7591 13.5056 47.4604C13.2825 47.3716 13.0681 47.2618 12.8396 47.1878C12.5673 47.099 12.4174 47.1878 12.3229 47.4431C12.1171 48.0126 12.3695 48.501 12.9828 48.6242C13.3677 48.7015 13.7693 48.7098 14.1649 48.7276C14.7416 48.7538 14.8588 48.8362 14.9767 49.3577C15.3044 50.8095 16.6203 52.0225 18.1787 52.3085C18.3118 52.3328 18.445 52.3551 18.6089 52.3832C18.6187 52.4482 18.6187 52.5142 18.6089 52.5792C18.2879 53.5094 18.3345 54.4434 18.6268 55.3628C19.0862 56.7861 19.7261 58.1499 20.5322 59.4238C21.2368 60.5576 22.2896 61.2273 23.6056 61.5306C25.1034 61.8663 26.6434 61.9965 28.1794 61.9174C29.3781 61.8644 30.4663 61.4597 31.4739 60.8462C31.5905 60.7759 31.7077 60.7064 31.8282 60.6425C31.8529 60.6291 31.8948 60.6425 31.9681 60.6425C31.9681 61.0485 31.9634 61.4559 31.9681 61.8625C31.9684 62.4612 32.1269 63.0501 32.4289 63.5741C32.9663 64.4935 33.5997 64.7935 34.6978 64.6556C34.8976 64.6307 35.1028 64.6129 35.3318 64.5918C35.3638 64.7591 35.3878 64.9021 35.4198 65.0438C35.7854 66.6884 37.3584 68.0706 39.1045 68.3202C40.7608 68.5577 42.3717 68.3987 43.9534 67.8944C44.1119 67.8433 44.2737 67.8005 44.4768 67.7418C44.4768 68.271 44.3083 68.6828 43.9534 69.0256C43.4652 69.4981 42.9358 69.9194 42.3198 70.2329C41.9395 70.4244 41.5652 70.6338 41.1976 70.8496C40.9626 70.9875 40.7441 71.1516 40.6922 71.4344C40.858 71.663 41.0791 71.6093 41.2602 71.5321C41.7784 71.3112 42.2931 71.0801 42.792 70.8183C43.1669 70.621 43.5105 70.3714 43.9241 70.1046C43.9674 70.3599 43.9973 70.5591 44.036 70.7596C44.1405 71.2959 44.2591 71.8296 44.353 72.3678C44.5907 73.7302 44.2264 74.8921 43.0816 75.7827C42.792 76.0081 42.4923 76.2219 42.154 76.4728C42.092 76.0113 42.1346 75.5937 41.7344 75.2694C41.6212 75.4903 41.502 75.6876 41.4161 75.897C41.189 76.453 40.7794 76.8233 40.2173 77.0666C39.1325 77.5364 38.009 77.5537 36.8715 77.3219C35.3212 77.0097 33.9367 76.4007 32.8092 75.2854C32.1525 74.6354 31.4173 74.0577 30.6974 73.4301L34.3096 71.1803C35.8986 72.6097 37.0767 73.0892 37.9224 72.641C37.9051 72.3639 37.668 72.2644 37.4623 72.1603C37.082 71.9688 36.6877 71.7989 36.3002 71.6183C35.1614 71.089 34.4628 70.2533 34.3176 69.0231C34.2799 68.7112 34.2221 68.4018 34.1444 68.0967C34.0852 67.8592 34.0112 67.616 33.7375 67.4583C33.4232 67.7545 33.3952 68.1261 33.4532 68.5028C33.5094 68.812 33.5859 69.1176 33.6823 69.4176C33.882 70.1059 33.7116 70.5515 33.0649 70.9147C32.9557 70.9786 32.7413 70.9875 32.6427 70.9249C32.1426 70.6057 31.6111 70.3069 31.1922 69.9035C30.6168 69.3493 30.4876 68.6094 30.7001 67.8695C30.8399 67.383 31.113 66.9303 31.3367 66.4649C31.4526 66.2255 31.6151 66.0053 31.7097 65.7627C31.755 65.6452 31.743 65.4205 31.6651 65.3668C31.5958 65.3265 31.5184 65.3009 31.4379 65.2919C31.3575 65.2829 31.2759 65.2906 31.1989 65.3145C30.9925 65.398 30.807 65.5227 30.6548 65.6803C29.9842 66.3621 29.1084 66.583 28.1907 66.7056C28.0096 66.7299 27.8165 66.6756 27.6293 66.6558L26.9261 66.5779C26.9753 67.1002 27.311 67.4947 27.7918 67.5253C28.3339 67.5605 28.8813 67.5132 29.5167 67.4992C29.6372 67.8746 29.7964 68.3208 29.9222 68.776C30.0594 69.2701 30.122 69.7847 30.4277 70.2246C30.8592 70.8471 31.384 71.3527 32.2711 71.548C32.0833 71.7089 31.9567 71.8334 31.8142 71.9368C30.7434 72.7112 29.524 73.1466 28.21 73.3414C26.789 73.5536 25.3357 73.4401 23.9692 73.01C22.6579 72.604 21.7389 71.797 21.1468 70.6198C20.6707 69.6647 20.5142 68.6343 20.2385 67.5981ZM31.1489 33.0167C31.0637 33.0844 30.9924 33.1329 30.9318 33.191C30.2825 33.8083 30.0434 34.5534 30.2059 35.412C30.3937 36.4048 31.0317 37.0656 31.9468 37.4965C32.6906 37.847 33.4885 37.9581 34.3123 37.923C34.4974 37.9153 34.6825 37.923 34.8916 37.923C34.9376 38.5786 34.9822 39.2126 35.0248 39.844C32.6986 40.4715 31.362 41.922 31.0537 44.2082C30.9545 44.1993 30.9032 44.1999 30.8539 44.1897C30.7534 44.1693 30.6541 44.1476 30.5536 44.1182C29.7184 43.8628 28.88 43.8922 28.0549 44.1342C27.4462 44.3129 26.8561 44.544 26.2568 44.7522C26.0863 44.8115 25.9158 44.8722 25.7207 44.9437C25.4263 43.9541 24.8589 43.2372 23.9226 42.8216C22.8158 42.3313 21.6497 42.2802 21.1781 42.7207C21.5424 42.9122 21.934 42.9505 22.3203 42.9946C23.2466 43.1012 24.0098 43.4619 24.4653 44.2791C24.6218 44.5731 24.7554 44.8778 24.8649 45.1908C25.1433 45.9403 25.5242 46.112 26.1968 45.5738C26.987 44.9434 27.9726 44.5814 28.9999 44.544C29.5773 44.516 30.164 44.6277 30.744 44.7005C31.0317 44.7368 31.2009 44.9162 31.2015 45.2112C31.2015 45.3267 31.2229 45.4436 31.2122 45.5579C31.1456 46.2525 31.4053 46.8985 31.5618 47.5529C31.6471 47.9098 32.0986 48.1952 32.4582 48.1869C32.7246 48.1811 32.8391 48.0375 32.7519 47.8038C32.6973 47.6459 32.6209 47.4956 32.5248 47.3569C32.0959 46.7702 31.9254 46.1012 31.8136 45.4091C31.5359 43.6905 32.4049 41.7956 33.93 40.9172C35.3991 40.0706 36.43 40.2883 37.3357 41.6047C37.4396 41.7567 37.5402 41.9118 37.6587 42.0516C37.977 42.4302 38.2081 42.4768 38.6423 42.2374C38.8808 42.1053 39.0879 41.9182 39.3329 41.8014C39.6053 41.6737 39.897 41.546 40.194 41.4988C40.8387 41.396 41.3175 41.7146 41.7311 42.15C41.9861 42.4187 42.2359 42.6945 42.5142 42.9391C42.6707 43.077 42.8572 43.2314 43.1569 43.1114C43.1793 42.9919 43.1911 42.8708 43.1922 42.7494C43.1643 42.3503 43.0099 41.9689 42.7496 41.6562C42.4893 41.3436 42.1355 41.1147 41.7357 41.0002C41.1844 40.8516 40.6035 40.8341 40.0435 40.9491C39.4548 41.0589 38.8741 41.2096 38.2674 41.3475C38.0197 40.8852 37.7846 40.3694 37.2685 40.1345C36.7843 39.9148 36.2442 39.8069 35.6955 39.6397C35.6781 39.4201 35.6595 39.1577 35.6369 38.8953C35.5589 37.9945 35.8606 37.2354 36.5632 36.6282C36.7677 36.4508 36.9841 36.2809 37.1572 36.0773C37.2392 35.9809 37.2904 35.7919 37.2511 35.6853C37.1759 35.4989 36.9848 35.5391 36.805 35.5902C36.2102 35.76 35.7434 36.1067 35.4644 36.6174C35.1594 37.1754 34.7465 37.3873 34.1178 37.2347C34.0496 37.2251 33.9809 37.2194 33.912 37.2175C33.2727 37.1377 32.66 36.9749 32.1139 36.6372C31.1776 36.0626 30.9152 35.0635 31.4513 34.1429C31.5072 34.0401 31.5685 33.9402 31.6351 33.8434C31.9681 33.3927 31.9627 32.9586 31.5905 32.527C31.4649 32.39 31.3589 32.2376 31.2755 32.0737C31.115 31.729 30.9092 31.3823 30.8519 31.0178C30.6868 29.958 30.8746 28.9748 31.7303 28.1915C32.5921 27.4002 33.2904 26.4602 33.7888 25.4207C34.0945 24.797 34.4981 24.2077 34.9123 23.6427C35.6022 22.6985 36.5819 22.1578 37.7693 22.0339C38.5684 21.9503 39.3842 21.9701 40.1927 21.9464C40.4591 21.9388 40.7435 22.0307 40.9705 21.8188C40.8374 21.49 40.7981 21.4261 40.5463 21.3789C40.326 21.346 40.1033 21.3302 39.8804 21.3316C39.614 21.324 39.3476 21.3316 39.0905 21.3316C39.0842 21.3016 39.0811 21.271 39.0812 21.2403C39.1798 20.7507 39.3316 20.2827 39.6233 19.8588C39.7512 19.673 39.9523 19.4502 39.6899 19.1565C39.1411 19.38 38.7635 19.7707 38.4552 20.2335C38.2175 20.5904 37.989 20.9543 38.2135 21.3859C37.7999 21.4497 37.421 21.4861 37.054 21.5723C35.9425 21.8341 35.0162 22.3882 34.3542 23.291C33.9786 23.8017 33.6583 24.3539 33.324 24.894C33.0336 25.3633 32.7672 25.8459 32.4742 26.3139C32.0951 26.9078 31.6023 27.4277 31.0217 27.8461C29.6459 28.8618 27.9197 28.8139 26.6071 27.7184C26.3114 27.472 26.0197 27.2211 25.7273 26.9734C25.0853 27.6603 25.1713 28.2445 25.9404 28.6703C26.0572 28.741 26.1824 28.7981 26.3134 28.8401C26.7602 28.9614 27.2058 29.107 27.6626 29.1734C28.4618 29.2902 29.2669 29.3547 30.0881 29.4428C29.512 30.8563 30.2652 31.9212 31.1489 33.0167ZM16.28 29.6579C16.4132 29.9995 16.6563 30.041 16.8933 30.0755C17.1491 30.1131 17.4088 30.1227 17.6659 30.1546C18.0801 30.197 18.4738 30.3498 18.802 30.5958C19.1643 30.8761 19.5026 31.1844 19.8622 31.4672C20.1179 31.669 20.1885 31.8924 20.1119 32.2104C19.8649 33.2433 19.9428 34.2808 20.1299 35.3144C20.265 36.1286 20.5986 36.9007 21.1036 37.568C20.4388 37.725 19.821 38.0272 19.2981 38.4509C18.816 38.8429 18.5576 39.3575 18.4064 39.9282C18.3565 40.1198 18.2945 40.3458 18.5356 40.4562C18.7441 40.552 18.8912 40.3879 19.0211 40.2577C19.1393 40.1379 19.2482 40.0098 19.3468 39.8746C19.5166 39.6454 19.6897 39.4169 19.8362 39.1724C20.1606 38.6342 20.71 38.3941 21.2621 38.156C21.3551 38.1088 21.4629 38.0958 21.5652 38.1193C21.6676 38.1428 21.7575 38.2012 21.8181 38.2837C21.9047 38.3865 21.9953 38.4873 22.0732 38.5965C22.6062 39.3336 23.314 39.939 24.1384 40.363C24.5872 40.5992 25.0847 40.7537 25.5662 40.9287C25.6955 40.9749 25.8357 40.9857 25.9711 40.9599C26.0736 40.9382 26.2088 40.8482 26.2341 40.7627C26.2594 40.6771 26.1822 40.5316 26.1009 40.4786C25.8885 40.3385 25.6621 40.219 25.425 40.1217C24.402 39.7138 23.4795 39.1049 22.7172 38.3341C21.2481 36.8198 20.4756 35.052 20.6753 32.9586C20.8964 30.6354 21.8841 28.6346 23.5223 26.9242C24.0631 26.3599 24.6698 25.8727 25.4263 25.5835C25.5527 25.5303 25.673 25.4646 25.7853 25.3875C26.0763 25.2018 26.1995 24.9406 26.0943 24.6157C26.0017 24.3335 25.9065 24.0411 25.752 23.7908C25.3084 23.0701 25.2858 22.3174 25.4956 21.5359C25.5622 21.2806 25.6587 21.0297 25.7127 20.7698C25.7678 20.5284 25.7966 20.2821 25.7986 20.035C25.7986 19.7962 25.698 19.5849 25.3824 19.5166C25.3031 19.6215 25.2333 19.7328 25.1739 19.8492C24.6828 21.0237 24.5471 22.307 24.7823 23.5521C24.8909 24.1266 24.8143 24.5972 24.4314 25.0287C24.0318 25.482 23.6182 25.9289 23.2067 26.3752C23.1151 26.4604 23.0182 26.5402 22.9163 26.6139C22.6666 26.1428 22.4275 25.7202 22.2171 25.2892C21.8175 24.4657 21.7575 23.6063 21.9373 22.7189C22.0905 21.9624 22.4035 21.3074 23.0635 20.8266C23.19 20.7347 23.2433 20.5496 23.3299 20.4072L23.246 20.3217C23.0562 20.3791 22.8464 20.4059 22.6792 20.4991C21.7156 21.0348 21.031 21.7479 21.0709 22.9079C21.0823 23.2322 21.0556 23.5585 21.0456 23.8892C20.8811 23.9 20.7792 23.9153 20.6767 23.9128C19.8189 23.8917 18.9985 24.089 18.1886 24.3226C17.9438 24.398 17.7147 24.5143 17.512 24.6661C17.3289 24.8015 17.3375 25.0702 17.4761 25.2528C17.6146 25.4354 17.7937 25.4412 17.9802 25.348C18.194 25.2413 18.4018 25.1226 18.6049 24.9987C19.3741 24.5276 20.1885 24.5474 21.0383 24.7434C21.1642 25.5989 21.6583 26.2411 22.1391 26.8846C22.3955 27.2268 22.4355 27.3194 22.223 27.6744C22.141 27.8199 22.0376 27.9534 21.916 28.0708C21.1628 28.7578 20.7939 29.6439 20.4822 30.5607C20.4376 30.6922 20.3857 30.8211 20.3151 31.0114C19.2229 29.7799 17.9749 29.1472 16.28 29.6579ZM37.2578 57.0175C37.2578 57.5002 37.2372 57.9452 37.2618 58.387C37.3357 59.713 38.368 60.165 39.56 60.0928C39.7145 60.0832 39.9077 59.9358 39.9843 59.8011C40.0209 59.7372 39.8511 59.517 39.7292 59.4289C39.4791 59.2512 39.2114 59.0974 38.93 58.9698C38.1755 58.6283 37.8585 58.076 37.9757 57.2838C37.9859 57.2015 37.9915 57.1189 37.9924 57.0361C38.0063 56.7315 38.1442 56.5253 38.4366 56.3689C38.9173 56.1104 39.3841 55.8287 39.8351 55.5249C40.0846 55.3487 40.3153 55.1492 40.5237 54.9293C40.6569 54.7958 40.7514 54.619 40.5723 54.446C40.3932 54.273 40.1974 54.2851 40.0129 54.4236C39.8352 54.5544 39.6678 54.6976 39.5121 54.852C38.9673 55.4023 38.3134 55.7918 37.5875 56.0771C36.1816 56.63 34.7298 56.8133 33.2267 56.5694C32.1818 56.4002 31.1676 56.1384 30.2852 55.5479C29.9908 55.3506 29.7418 55.0921 29.4667 54.8673C29.1537 54.612 29.0245 54.5986 28.6969 54.8035C28.1015 55.1789 27.4375 55.341 26.7376 55.3608C25.0061 55.41 24.0298 54.2806 24.4067 52.6571C24.5259 52.1425 24.7344 51.6484 24.8856 51.1402C24.9981 50.7572 25.0854 50.3741 25.1812 49.9872C25.2128 49.8886 25.2095 49.7828 25.1721 49.6861C25.1347 49.5895 25.0651 49.5073 24.9741 49.4522C24.4567 49.8225 24.2656 50.3722 24.1257 50.9359C23.9532 51.6273 23.8074 52.3245 23.6715 53.0229C23.6149 53.3319 23.5842 53.6446 23.5796 53.9582C23.5616 54.7141 23.9126 55.2919 24.5519 55.7196C25.7 56.4857 27.666 56.4979 28.7821 55.7452C31.388 57.527 34.2543 57.6483 37.2578 57.0175ZM36.0731 33.7662C36.2828 33.7802 36.4653 33.8115 36.6445 33.8C37.1259 33.7707 37.6121 33.756 38.0856 33.6723C39.0626 33.5044 39.8837 33.8 40.6262 34.3746C40.7861 34.5023 40.9306 34.6427 41.0884 34.7711C41.2168 34.8808 41.354 34.9807 41.4987 35.0699C41.7071 35.1899 41.9189 35.2192 42.1386 34.9422C42.0054 34.7609 41.8829 34.5476 41.7151 34.374C40.9319 33.5606 39.9836 33.078 38.8022 33.0907C38.5731 33.0907 38.3433 33.0665 38.0749 33.0518C38.1382 32.9082 38.1695 32.8335 38.2035 32.76C38.9227 31.1793 38.9227 29.6579 37.7959 28.224C37.7446 28.1602 37.7067 28.0823 37.6554 28.0159C37.4809 27.7912 37.5169 27.592 37.718 27.3998C37.8938 27.2406 38.058 27.0699 38.2095 26.8891C38.5478 26.4633 38.9227 26.0885 39.4268 25.837C39.5927 25.7546 39.7159 25.5957 39.9097 25.4271C39.5061 25.2305 39.1884 25.2356 38.8914 25.3977C38.5944 25.5599 38.318 25.7597 38.033 25.943C37.6041 26.2181 37.1892 26.5175 36.743 26.7614C36.5567 26.8674 36.3499 26.9364 36.1352 26.9643C35.9205 26.9921 35.7021 26.9783 35.493 26.9236C35.2823 26.8795 35.0694 26.8463 34.855 26.824C34.6692 27.5097 34.8797 27.864 35.5316 27.9897C35.7677 28.0372 36.0094 28.054 36.2502 28.0395C36.7257 28.0057 37.036 28.2062 37.2571 28.5892C37.5455 29.0885 37.692 29.6273 37.7899 30.1853C37.9557 31.1531 37.6068 32.0476 37.361 32.9554C37.3324 33.0633 37.2025 33.1725 37.0906 33.2254C36.9332 33.2899 36.7671 33.3329 36.5972 33.3531C36.3641 33.3953 36.1716 33.4719 36.0697 33.7662H36.0731ZM29.3595 49.9681C29.185 50.6269 29.243 50.9257 29.6692 51.2685C30.3718 51.838 31.1343 52.3188 32.0493 52.5243C33.1668 52.7746 34.3069 52.7963 35.4457 52.7886C35.7543 52.7743 36.0553 52.6922 36.3255 52.5486C36.8742 52.2728 37.397 52.2166 37.9464 52.5269C38.1399 52.6356 38.344 52.726 38.5558 52.7969C39.0592 52.9661 39.5634 53.1366 40.0768 53.2706C40.3978 53.3543 40.7148 53.2955 41.0311 53.0102C40.8314 52.9035 40.6782 52.8014 40.511 52.7407C40.2703 52.6498 40.0216 52.5798 39.7678 52.5313C39.2757 52.4445 38.8614 52.2511 38.5245 51.8827C38.2101 51.5392 37.7846 51.4045 37.3124 51.432C37.0201 51.4492 36.7297 51.4958 36.438 51.522C35.8926 51.5737 35.6488 51.4371 35.4344 50.9474C35.3788 50.8088 35.3323 50.667 35.2952 50.5229C35.162 50.0696 35.2799 49.6406 35.4284 49.2109C35.5216 48.9364 35.6801 48.667 35.5703 48.3139C35.4231 48.3401 35.2866 48.3439 35.1707 48.3893C34.6732 48.5808 34.4241 48.953 34.3715 49.4548C34.2743 50.3403 34.2716 51.2092 34.8484 51.9772C34.8543 51.9855 34.8417 52.0059 34.827 52.0564C34.3316 52.1796 33.8241 52.1202 33.3206 52.0219C32.034 51.778 30.7993 51.4403 29.9442 50.3728C29.8104 50.2183 29.5919 50.1283 29.3595 49.9681ZM32.7959 22.6793C33.338 22.5223 33.5024 22.1526 33.603 21.7702C33.7365 21.2732 33.9887 20.8127 34.3396 20.4251C34.4983 20.2508 34.6308 20.0561 34.7331 19.8467C34.7937 19.7132 34.8237 19.486 34.7465 19.3947C34.6133 19.2357 34.4301 19.3813 34.2976 19.4802C34.0665 19.6532 33.8428 19.8352 33.625 20.0235C33.4072 20.2118 33.1681 20.2789 32.8671 20.1965C32.2035 20.0125 31.5769 19.7226 31.0137 19.3391C30.8206 19.2116 30.659 19.0449 30.5406 18.8508C30.4222 18.6567 30.3497 18.4401 30.3285 18.2161C30.2279 17.2585 30.4097 16.3717 31.0937 15.6241C31.3441 15.3509 31.5991 15.0815 31.8382 14.7999C31.9248 14.6978 31.9714 14.565 32.0946 14.3409C31.7676 14.4047 31.5505 14.4047 31.3774 14.4884C30.4384 14.9404 29.7597 15.6375 29.5326 16.6284C29.4088 17.1672 29.466 17.7437 29.4481 18.3036C29.4434 18.4313 29.4607 18.559 29.4694 18.7135C28.8227 18.7025 28.1802 18.6111 27.5581 18.4415C27.3839 18.4035 27.2076 18.3753 27.03 18.3572C27.0539 19.0837 27.3217 19.433 27.9763 19.5281C28.3792 19.5868 28.7994 19.5587 29.2103 19.5358C29.5606 19.516 29.853 19.5849 30.0921 19.8447C30.6648 20.4685 31.4167 20.706 32.2558 20.7545C32.5068 20.7692 32.7566 20.8062 33.0243 20.8343C32.9217 21.4568 32.6114 22.0064 32.7959 22.6793Z" fill="url(#paint1_linear_1234_4344)"/>
<defs>
<linearGradient id="paint0_linear_1234_4344" x1="0.0307625" y1="56.5818" x2="106.45" y2="56.5818" gradientUnits="userSpaceOnUse">
<stop stop-color="#FEDF17"/>
<stop offset="1" stop-color="#F83719"/>
</linearGradient>
<linearGradient id="paint1_linear_1234_4344" x1="10.9116" y1="41.3075" x2="45.0308" y2="41.3075" gradientUnits="userSpaceOnUse">
<stop stop-color="#FEDF17"/>
<stop offset="1" stop-color="#F83719"/>
</linearGradient>
</defs>
</svg>
