<svg width="23" height="42" viewBox="0 0 23 42" fill="none" xmlns="http://www.w3.org/2000/svg">
<g opacity="0.5" clip-path="url(#clip0_1271_3055)">
<path d="M11.5 0C14.6588 0 17.5343 1.23182 19.6189 3.21356L19.6241 3.2193C21.707 5.20185 23 7.93678 23 10.9413V23.335C23 26.3404 21.7053 29.0753 19.6224 31.0587L19.6172 31.0636C17.5325 33.0453 14.658 34.2755 11.5 34.2755C8.34116 34.2755 5.46573 33.0445 3.38109 31.0619L3.37592 31.057C1.293 29.0736 0 26.3387 0 23.335V10.9413C0 7.93596 1.29472 5.20103 3.37764 3.21684L3.38281 3.21192C5.46745 1.231 8.34202 0 11.5 0ZM8.51 36.6613L11.4991 39.5069L14.4943 36.6613L15.8002 37.9103L11.4948 42L7.19719 37.9103L8.51 36.6613ZM11.5 25.9338C12.5768 25.9338 13.4589 25.0954 13.4589 24.071V21.5844C13.4589 20.5591 12.5768 19.7206 11.5 19.7206C10.4232 19.7206 9.54198 20.5591 9.54198 21.5844V24.071C9.54198 25.0954 10.4232 25.9338 11.5 25.9338ZM11.5 1.76701C8.84595 1.76701 6.43483 2.79885 4.69045 4.45931C2.9409 6.12305 1.85723 8.41705 1.85723 10.9413V23.335C1.85723 25.8593 2.9409 28.1533 4.687 29.8137C6.43483 31.4775 8.84595 32.5085 11.5 32.5085C14.154 32.5085 16.5652 31.4775 18.3096 29.8162C20.0582 28.1533 21.1428 25.8593 21.1428 23.335V10.9413C21.1428 8.41705 20.0582 6.12305 18.313 4.46259C16.5652 2.79885 14.154 1.76701 11.5 1.76701Z" fill="#6D278E"/>
</g>
<defs>
<clipPath id="clip0_1271_3055">
<rect width="23" height="42" fill="white"/>
</clipPath>
</defs>
</svg>
