<svg width="22" height="21" viewBox="0 0 22 21" fill="none" xmlns="http://www.w3.org/2000/svg">
<g clip-path="url(#clip0_1234_4569)">
<path d="M16.72 2.37259L11.3471 0.581054C11.1712 0.522461 10.981 0.522461 10.8051 0.581054L5.43216 2.37259C4.5779 2.65636 3.83479 3.20212 3.30842 3.93233C2.78204 4.66255 2.49918 5.54007 2.5 6.44022V10.8286C2.5 17.3147 10.39 20.8969 10.7279 21.0461C10.8375 21.0948 10.9561 21.12 11.0761 21.12C11.196 21.12 11.3146 21.0948 11.4243 21.0461C11.7622 20.8969 19.6521 17.3147 19.6521 10.8286V6.44022C19.653 5.54007 19.3701 4.66255 18.8437 3.93233C18.3174 3.20212 17.5742 2.65636 16.72 2.37259ZM17.9369 10.8286C17.9369 15.5068 12.5177 18.5754 11.0761 19.3095C9.63272 18.5779 4.21522 15.5189 4.21522 10.8286V6.44022C4.21527 5.90017 4.38526 5.37382 4.70111 4.93576C5.01695 4.4977 5.46264 4.17013 5.97503 3.99948L11.0761 2.29884L16.1771 3.99948C16.6895 4.17013 17.1352 4.4977 17.451 4.93576C17.7669 5.37382 17.9369 5.90017 17.9369 6.44022V10.8286Z" fill="#6D278E"/>
<path d="M7.5 7.53711L9.34211 13.5371L11 9.03711L12.6579 13.5371L14.5 7.53711" stroke="#6D278E"/>
</g>
<defs>
<clipPath id="clip0_1234_4569">
<rect width="20.5826" height="20.5826" fill="white" transform="translate(0.432129 0.208618)"/>
</clipPath>
</defs>
</svg>
