<svg width="24" height="24" viewBox="0 0 24 24" fill="none" xmlns="http://www.w3.org/2000/svg">
<g clip-path="url(#clip0_1234_4295)">
<path fill-rule="evenodd" clip-rule="evenodd" d="M0.368164 11.7986C0.368164 5.34473 5.61914 0.0952148 12.0723 0.0952148C18.5254 0.0952148 23.7764 5.34473 23.7764 11.7986C23.7764 18.2525 18.5254 23.502 12.0723 23.502C5.61914 23.502 0.368164 18.2525 0.368164 11.7986ZM1.14917 11.7986C1.14917 17.8218 6.04906 22.7224 12.0723 22.7224C18.0955 22.7224 22.9954 17.8218 22.9954 11.7986C22.9954 5.77538 18.0955 0.87476 12.0723 0.87476C6.04906 0.87476 1.14917 5.77538 1.14917 11.7986ZM4.88308 11.778L7.88597 12.7946L9.36093 16.6717C9.36093 16.6717 9.5493 17.0422 9.751 17.0422C9.76827 17.0422 9.80606 17.0205 9.86072 16.9808C9.94544 17.0908 10.1448 17.0918 10.6037 16.6534C11.1595 16.1224 11.7009 15.6652 12.0406 15.3878C13.1042 16.1506 14.2547 16.9984 14.7491 17.4403C14.8314 17.5233 14.9289 17.5883 15.0358 17.6313C15.1428 17.6742 15.257 17.6944 15.3716 17.6906C15.838 17.6723 15.9682 17.14 15.9682 17.14C15.9682 17.14 18.144 8.04248 18.2167 6.82351C18.2195 6.77731 18.2226 6.73759 18.2255 6.7015C18.23 6.64436 18.2338 6.5963 18.2344 6.54599C18.2382 6.45108 18.2292 6.35609 18.2077 6.26376C18.1968 6.21149 18.1727 6.16317 18.1379 6.12375C18.1031 6.08433 18.0589 6.05522 18.0097 6.0394C17.8109 5.96091 17.4738 6.07893 17.4738 6.07893C17.4738 6.07893 5.53619 10.5374 4.8544 11.0312C4.7073 11.1372 4.65813 11.1989 4.63375 11.2714C4.51534 11.6229 4.88308 11.778 4.88308 11.778ZM15.6127 8.0927C15.6001 8.13888 15.5473 8.2191 15.4615 8.32714L14.0373 8.96106C14.8364 8.45126 15.42 8.08866 15.5236 8.04903C15.5812 8.0309 15.6241 8.05132 15.6127 8.0927Z" fill="#6D278E"/>
</g>
<defs>
<clipPath id="clip0_1234_4295">
<rect width="23.3571" height="23.3571" fill="white" transform="translate(0.393066 0.119629)"/>
</clipPath>
</defs>
</svg>
