<svg width="76" height="17" viewBox="0 0 76 17" fill="none" xmlns="http://www.w3.org/2000/svg">
<path d="M0.570485 0.512695H10.8488V2.43036H6.80736V13.2105H4.58503V2.43036H0.561523V0.512695H0.570485ZM10.4097 4.01646H12.3094V5.79075H12.3453C12.408 5.53984 12.5245 5.29789 12.6948 5.0649C12.865 4.83192 13.0711 4.60789 13.3131 4.41971C13.555 4.22256 13.8239 4.07023 14.1196 3.94477C14.4153 3.82828 14.72 3.76555 15.0246 3.76555C15.2576 3.76555 15.4279 3.77451 15.5175 3.78347C15.6071 3.79244 15.6967 3.81036 15.7953 3.81932V5.77283C15.6519 5.74594 15.5085 5.72802 15.3562 5.7101C15.2039 5.69218 15.0605 5.68321 14.9171 5.68321C14.5766 5.68321 14.254 5.7549 13.9493 5.88932C13.6446 6.02373 13.3848 6.22984 13.1607 6.48971C12.9367 6.75854 12.7575 7.08114 12.6231 7.47542C12.4887 7.86971 12.4259 8.31776 12.4259 8.82854V13.2015H10.4007V4.01646H10.4097ZM25.1058 13.2105H23.1165V11.9291H23.0806C22.8297 12.395 22.4623 12.7624 21.9694 13.0402C21.4766 13.318 20.9748 13.4614 20.464 13.4614C19.2542 13.4614 18.3761 13.1657 17.8384 12.5653C17.3007 11.9649 17.0319 11.0598 17.0319 9.8501V4.01646H19.0571V9.65296C19.0571 10.4594 19.2094 11.033 19.5231 11.3645C19.8278 11.6961 20.2668 11.8663 20.8224 11.8663C21.2526 11.8663 21.602 11.8036 21.8888 11.6692C22.1755 11.5348 22.4085 11.3645 22.5788 11.1405C22.758 10.9254 22.8835 10.6566 22.9641 10.3519C23.0448 10.0472 23.0806 9.71568 23.0806 9.35724V4.02542H25.1058V13.2105ZM28.5558 10.2623C28.6185 10.8537 28.8426 11.2659 29.2279 11.5079C29.6222 11.7409 30.0881 11.8663 30.6348 11.8663C30.8229 11.8663 31.038 11.8484 31.28 11.8215C31.5219 11.7946 31.7549 11.7319 31.961 11.6513C32.1761 11.5706 32.3463 11.4452 32.4897 11.2839C32.6241 11.1226 32.6868 10.9165 32.6779 10.6566C32.6689 10.3967 32.5703 10.1817 32.3911 10.0204C32.2119 9.8501 31.9879 9.72464 31.7101 9.61711C31.4323 9.51854 31.1187 9.42893 30.7602 9.35724C30.4018 9.28555 30.0433 9.2049 29.6759 9.12425C29.2996 9.0436 28.9322 8.93607 28.5827 8.81958C28.2332 8.70308 27.9196 8.54179 27.6418 8.33568C27.364 8.13854 27.14 7.87867 26.9787 7.56503C26.8084 7.2514 26.7278 6.86607 26.7278 6.4001C26.7278 5.89828 26.8532 5.48607 27.0952 5.14555C27.3371 4.80503 27.6507 4.5362 28.0181 4.3301C28.3945 4.12399 28.8067 3.98062 29.2637 3.89101C29.7207 3.81036 30.1598 3.76555 30.572 3.76555C31.047 3.76555 31.504 3.81932 31.9341 3.91789C32.3642 4.01646 32.7585 4.17776 33.108 4.41075C33.4575 4.63477 33.7442 4.93049 33.9772 5.28893C34.2102 5.64737 34.3536 6.08646 34.4163 6.59724H32.3015C32.2029 6.11334 31.9879 5.78179 31.6384 5.62049C31.2889 5.45023 30.8857 5.36958 30.4376 5.36958C30.2942 5.36958 30.124 5.37854 29.9268 5.40542C29.7297 5.43231 29.5505 5.47711 29.3713 5.53984C29.201 5.60256 29.0576 5.70114 28.9322 5.82659C28.8157 5.95204 28.7529 6.11334 28.7529 6.31945C28.7529 6.57036 28.8426 6.7675 29.0128 6.91984C29.1831 7.07218 29.4071 7.19763 29.6849 7.30516C29.9627 7.40373 30.2763 7.49334 30.6348 7.56503C30.9932 7.63672 31.3606 7.71737 31.737 7.79802C32.1044 7.87867 32.4628 7.9862 32.8213 8.10269C33.1797 8.21919 33.4933 8.38049 33.7711 8.58659C34.0489 8.79269 34.2729 9.0436 34.4432 9.34828C34.6135 9.65295 34.7031 10.0383 34.7031 10.4863C34.7031 11.033 34.5776 11.49 34.3267 11.8753C34.0758 12.2517 33.7532 12.5653 33.3589 12.7983C32.9646 13.0313 32.5166 13.2105 32.0327 13.318C31.5488 13.4256 31.0649 13.4793 30.59 13.4793C30.0075 13.4793 29.4698 13.4166 28.977 13.2822C28.4841 13.1478 28.054 12.9506 27.6955 12.6907C27.3371 12.4219 27.0504 12.0904 26.8442 11.6961C26.6381 11.3018 26.5306 10.8269 26.5127 10.2802H28.5558V10.2623ZM35.2407 4.01646H36.7731V1.25646H38.7983V4.01646H40.6263V5.53088H38.7983V10.4415C38.7983 10.6566 38.8072 10.8358 38.8251 10.9971C38.8431 11.1494 38.8879 11.2839 38.9506 11.3914C39.0133 11.4989 39.1119 11.5796 39.2463 11.6333C39.3807 11.6871 39.551 11.714 39.784 11.714C39.9274 11.714 40.0707 11.714 40.2141 11.705C40.3575 11.6961 40.5009 11.6781 40.6442 11.6423V13.2105C40.4202 13.2374 40.1962 13.2553 39.9901 13.2822C39.775 13.3091 39.56 13.318 39.3359 13.318C38.7983 13.318 38.3681 13.2643 38.0455 13.1657C37.7229 13.0671 37.4631 12.9148 37.2839 12.7176C37.0957 12.5205 36.9792 12.2785 36.9075 11.9828C36.8448 11.6871 36.8 11.3466 36.791 10.9702V5.5488H35.2587V4.01646H35.2407ZM42.0601 4.01646H43.9777V5.26205H44.0136C44.3003 4.72438 44.6946 4.34802 45.2054 4.11503C45.7162 3.88205 46.2628 3.76555 46.8632 3.76555C47.589 3.76555 48.2163 3.89101 48.754 4.15088C49.2916 4.40179 49.7397 4.75127 50.0981 5.19932C50.4566 5.64737 50.7164 6.16711 50.8957 6.75854C51.0749 7.34997 51.1645 7.9862 51.1645 8.65828C51.1645 9.27659 51.0839 9.87698 50.9226 10.4505C50.7613 11.033 50.5193 11.5437 50.1967 11.9918C49.8741 12.4398 49.4619 12.7893 48.9601 13.0581C48.4583 13.327 47.8758 13.4614 47.1948 13.4614C46.8991 13.4614 46.6033 13.4345 46.3076 13.3807C46.0119 13.327 45.7252 13.2374 45.4563 13.1209C45.1875 13.0044 44.9276 12.852 44.7036 12.6639C44.4706 12.4757 44.2824 12.2606 44.1211 12.0187H44.0853V16.6067H42.0601V4.01646ZM49.1393 8.62244C49.1393 8.21023 49.0855 7.80698 48.978 7.4127C48.8705 7.01841 48.7092 6.67789 48.4941 6.37321C48.279 6.06854 48.0102 5.82659 47.6966 5.64737C47.374 5.46815 47.0066 5.36958 46.5944 5.36958C45.7431 5.36958 45.0979 5.66529 44.6677 6.25672C44.2376 6.84815 44.0226 7.63672 44.0226 8.62244C44.0226 9.08841 44.0763 9.51854 44.1928 9.91282C44.3093 10.3071 44.4706 10.6476 44.7036 10.9344C44.9276 11.2211 45.1965 11.4452 45.5101 11.6065C45.8237 11.7767 46.1911 11.8574 46.6033 11.8574C47.0693 11.8574 47.4546 11.7588 47.7772 11.5706C48.0998 11.3824 48.3597 11.1315 48.5658 10.8358C48.7719 10.5311 48.9242 10.1906 49.0138 9.80529C49.0945 9.41997 49.1393 9.02568 49.1393 8.62244ZM52.7148 0.512695H54.74V2.43036H52.7148V0.512695ZM52.7148 4.01646H54.74V13.2105H52.7148V4.01646ZM56.5501 0.512695H58.5753V13.2105H56.5501V0.512695ZM64.7853 13.4614C64.0505 13.4614 63.3963 13.3359 62.8228 13.094C62.2493 12.852 61.7654 12.5115 61.3622 12.0904C60.9679 11.6602 60.6632 11.1494 60.4571 10.558C60.251 9.96659 60.1435 9.31243 60.1435 8.60451C60.1435 7.90555 60.251 7.26036 60.4571 6.66893C60.6632 6.0775 60.9679 5.56672 61.3622 5.13659C61.7565 4.70646 62.2493 4.3749 62.8228 4.13295C63.3963 3.89101 64.0505 3.76555 64.7853 3.76555C65.5201 3.76555 66.1742 3.89101 66.7477 4.13295C67.3213 4.3749 67.8052 4.71542 68.2084 5.13659C68.6027 5.56672 68.9074 6.0775 69.1135 6.66893C69.3196 7.26036 69.4271 7.90555 69.4271 8.60451C69.4271 9.31243 69.3196 9.96659 69.1135 10.558C68.9074 11.1494 68.6027 11.6602 68.2084 12.0904C67.8141 12.5205 67.3213 12.852 66.7477 13.094C66.1742 13.3359 65.5201 13.4614 64.7853 13.4614ZM64.7853 11.8574C65.2333 11.8574 65.6276 11.7588 65.9592 11.5706C66.2907 11.3824 66.5596 11.1315 66.7746 10.8268C66.9897 10.5222 67.142 10.1727 67.2496 9.78737C67.3481 9.40205 67.4019 9.00776 67.4019 8.60451C67.4019 8.21023 67.3481 7.8249 67.2496 7.43062C67.151 7.03633 66.9897 6.69581 66.7746 6.39114C66.5596 6.08646 66.2907 5.84451 65.9592 5.65633C65.6276 5.46815 65.2333 5.36958 64.7853 5.36958C64.3372 5.36958 63.9429 5.46815 63.6114 5.65633C63.2798 5.84451 63.011 6.09542 62.7959 6.39114C62.5809 6.69581 62.4285 7.03633 62.321 7.43062C62.2224 7.8249 62.1687 8.21023 62.1687 8.60451C62.1687 9.00776 62.2224 9.40205 62.321 9.78737C62.4196 10.1727 62.5809 10.5222 62.7959 10.8268C63.011 11.1315 63.2798 11.3824 63.6114 11.5706C63.9429 11.7678 64.3372 11.8574 64.7853 11.8574ZM70.0185 4.01646H71.5509V1.25646H73.5761V4.01646H75.4041V5.53088H73.5761V10.4415C73.5761 10.6566 73.585 10.8358 73.6029 10.9971C73.6209 11.1494 73.6657 11.2839 73.7284 11.3914C73.7911 11.4989 73.8897 11.5796 74.0241 11.6333C74.1585 11.6871 74.3288 11.714 74.5618 11.714C74.7052 11.714 74.8485 11.714 74.9919 11.705C75.1353 11.6961 75.2787 11.6781 75.422 11.6423V13.2105C75.198 13.2374 74.974 13.2553 74.7679 13.2822C74.5528 13.3091 74.3378 13.318 74.1137 13.318C73.5761 13.318 73.1459 13.2643 72.8233 13.1657C72.5007 13.0671 72.2409 12.9148 72.0616 12.7176C71.8735 12.5205 71.757 12.2785 71.6853 11.9828C71.6226 11.6871 71.5778 11.3466 71.5688 10.9702V5.5488H70.0365V4.01646H70.0185Z" fill="#6D278E"/>
</svg>
