<svg width="14" height="14" viewBox="0 0 14 14" fill="none" xmlns="http://www.w3.org/2000/svg">
<path d="M11.7512 4.67682C11.7588 4.77194 11.7588 4.86708 11.7588 4.96221C11.7588 7.86358 9.28882 11.2066 4.77445 11.2066C3.38366 11.2066 2.09168 10.8465 1.00488 10.2214C1.20249 10.2418 1.39247 10.2486 1.59768 10.2486C2.74525 10.2486 3.80165 9.90205 4.64525 9.3109C3.56606 9.29051 2.66166 8.65859 2.35006 7.78885C2.50207 7.80922 2.65406 7.82282 2.81367 7.82282C3.03406 7.82282 3.25448 7.79563 3.45966 7.74809C2.33488 7.54422 1.49126 6.66091 1.49126 5.59412V5.56695C1.81804 5.73003 2.19807 5.83195 2.60084 5.84552C1.93964 5.45142 1.50646 4.77874 1.50646 4.01771C1.50646 3.61003 1.62804 3.23632 1.84085 2.91016C3.04925 4.24195 4.86564 5.11167 6.9024 5.20681C6.86441 5.04373 6.8416 4.87388 6.8416 4.70401C6.8416 3.49452 7.936 2.50928 9.29638 2.50928C10.0032 2.50928 10.6416 2.77427 11.09 3.20235C11.6447 3.10723 12.1767 2.92376 12.648 2.67235C12.4655 3.18198 12.0779 3.61005 11.5688 3.88183C12.0628 3.83428 12.5416 3.71195 12.9823 3.5421C12.648 3.97695 12.23 4.36424 11.7512 4.67682Z" fill="white"/>
</svg>
