<svg width="104" height="48" viewBox="0 0 104 48" fill="none" xmlns="http://www.w3.org/2000/svg">
<path d="M97.0344 18.131C92.9599 12.6035 88.2998 7.57206 83.1212 3.10409C82.3319 2.45636 82.4754 1.23285 83.1929 0.513145C83.9105 -0.206561 84.9869 -0.13459 85.7045 0.513145C92.4072 6.26554 98.1784 12.9523 103.018 20.3164C103.717 20.7359 104.183 21.5087 103.931 22.3922C103.863 22.5808 103.749 22.7693 103.605 22.9423C103.388 23.3849 103.005 23.7358 102.496 23.8316C94.6024 25.1271 86.8526 27.2142 79.3181 30.0211C78.3852 30.381 77.3088 29.6613 77.0936 28.7976C76.8065 27.79 77.3806 26.9264 78.3135 26.5665C83.9983 24.4487 89.8057 22.7816 95.7048 21.5034C89.564 19.7228 83.1494 18.938 76.7348 18.7218C69.0567 18.4339 61.3787 18.7217 53.7007 19.1536C46.0226 19.5854 38.3446 20.3771 30.9535 22.6082C18.97 26.2067 7.27356 34.2674 3.47042 46.7183C2.8246 48.9494 -0.61976 48.0138 0.0978153 45.8547C2.3223 38.6576 6.98653 32.5401 12.8706 27.934C25.0694 18.3619 40.7125 16.2028 55.7816 15.4831L55.9318 15.4761C69.4869 14.8496 83.8496 14.1856 97.0344 18.131Z" fill="#6D278D"/>
</svg>
