<svg width="71" height="90" viewBox="0 0 71 90" fill="none" xmlns="http://www.w3.org/2000/svg">
<path d="M8.74437 82.8722C15.3452 84.7654 22.1073 85.9081 28.9364 86.288C29.957 86.3196 30.5898 87.3765 30.4605 88.3845C30.3311 89.3926 29.4344 89.9923 28.4707 89.917C19.6503 89.4494 10.9979 87.6732 2.67034 84.7919C1.86053 84.886 1.02012 84.5578 0.680426 83.7043C0.619536 83.5132 0.594122 83.2947 0.602914 83.0696C0.505216 82.5863 0.593989 82.075 0.939189 81.6882C6.40234 75.8455 11.2687 69.4632 15.5254 62.642C16.0449 61.7877 17.3368 61.7011 18.0343 62.254C18.8765 62.8772 18.9487 63.9117 18.4292 64.766C15.2175 69.9126 11.6337 74.7769 7.74001 79.3891C13.6916 77.0528 19.2526 73.7606 24.4666 70.0179C30.7253 65.561 36.6327 60.648 42.4523 55.6209C48.2719 50.5938 53.8719 45.2816 58.3662 39.0042C65.6646 28.8412 70.0128 15.318 65.4287 3.13301C64.579 0.971329 67.8788 -0.389067 68.6277 1.75938C71.2568 8.8187 71.2942 16.5114 69.443 23.751C65.6189 38.778 54.5428 50.0337 43.0433 59.7987L42.9286 59.8958C32.5716 68.6632 21.5976 77.9529 8.74437 82.8722Z" fill="#6D278D"/>
</svg>
