<svg width="77" height="87" viewBox="0 0 77 87" fill="none" xmlns="http://www.w3.org/2000/svg">
<path d="M68.4363 77.5823C62.0204 80.0301 55.3801 81.7439 48.608 82.7035C47.5938 82.8217 47.0532 83.9286 47.2678 84.922C47.4825 85.9154 48.4269 86.4367 49.3808 86.2796C58.1294 85.0634 66.5993 82.5575 74.6516 78.9782C75.4665 79.0031 76.2759 78.6046 76.5418 77.7253C76.5862 77.5297 76.5929 77.3099 76.565 77.0863C76.6212 76.5965 76.4893 76.0945 76.1124 75.7385C70.1721 70.3818 64.7804 64.4366 59.9588 58.0023C59.3685 57.1953 58.074 57.2189 57.426 57.8291C56.6398 58.5216 56.6559 59.5585 57.2462 60.3656C60.8841 65.2203 64.8687 69.7621 69.1407 74.0263C63.0119 72.2048 57.191 69.3976 51.6775 66.112C45.0623 62.2037 38.7584 57.8111 32.5322 53.2973C26.3061 48.7835 20.2745 43.967 15.2625 38.0946C7.12595 28.5893 1.64301 15.4851 5.17394 2.9543C5.83666 0.728172 2.43314 -0.34658 1.8697 1.85779C-0.149315 9.11517 0.467809 16.7832 2.92822 23.839C8.01675 38.4863 20.0102 48.7589 32.2988 57.5102L32.4214 57.5972C43.4866 65.4517 55.2111 73.7743 68.4363 77.5823Z" fill="#6D278D"/>
</svg>
