<svg width="43" height="38" viewBox="0 0 43 38" fill="none" xmlns="http://www.w3.org/2000/svg">
<path d="M28.3483 13.5475C26.5108 12.8388 24.4393 13.1855 22.9318 14.4529L21.4564 15.6937L19.9809 14.4476C18.4741 13.1855 16.3966 12.8388 14.5644 13.5422C12.7269 14.2503 11.4221 15.8964 11.1508 17.8459V17.8673C10.6927 22.027 10.7454 26.1013 11.3101 29.9684C11.3101 29.9737 11.3101 29.979 11.3154 29.9844V30.001C11.5708 31.4118 12.8069 32.4186 14.213 32.4186C14.3304 32.4186 14.4424 32.4126 14.5591 32.3973C14.8624 32.3599 15.1451 32.2806 15.4111 32.1632L15.5125 36.1896C15.5238 36.6797 15.9285 37.0737 16.4179 37.0737H16.4392C16.94 37.063 17.334 36.647 17.3233 36.1469L17.158 29.5537C17.158 29.4737 17.158 29.3937 17.1526 29.309C17.1526 29.293 17.1473 29.2823 17.1473 29.2716L16.908 19.8128C16.8973 19.3121 16.4819 18.918 15.9812 18.9287C15.4805 18.9394 15.0864 19.3547 15.0971 19.8554L15.3425 29.5437C15.3105 30.087 14.8951 30.5404 14.3464 30.6038C13.755 30.6724 13.2116 30.2731 13.1003 29.6877C12.5616 25.986 12.5089 22.0816 12.9509 18.0873C13.1316 16.7985 14.0004 15.7017 15.2198 15.2324C16.4392 14.7636 17.8194 14.993 18.8201 15.8344L20.8757 17.5706C20.881 17.5766 20.8917 17.5819 20.897 17.5872C20.9077 17.5979 20.9183 17.6032 20.9283 17.6132C20.9443 17.6239 20.9603 17.6346 20.9763 17.6452C20.987 17.6506 20.9923 17.6559 21.003 17.6612C21.0297 17.6772 21.0563 17.6879 21.0823 17.7039C21.0863 17.7039 21.0901 17.7057 21.0937 17.7092C21.1197 17.7199 21.1417 17.7306 21.1677 17.7413C21.173 17.7413 21.1837 17.7466 21.189 17.7466C21.2103 17.7519 21.231 17.7573 21.253 17.7626C21.2637 17.7626 21.2684 17.7679 21.279 17.7679C21.3004 17.7739 21.3217 17.7739 21.349 17.7793C21.3544 17.7793 21.3644 17.7793 21.3704 17.7846C21.4024 17.7899 21.4284 17.7899 21.4604 17.7899C21.4924 17.7899 21.519 17.7899 21.551 17.7846C21.5564 17.7846 21.567 17.7846 21.5724 17.7793C21.5937 17.7739 21.6151 17.7739 21.6417 17.7679C21.6524 17.7679 21.6577 17.7626 21.6684 17.7626C21.6897 17.7573 21.7111 17.7519 21.7324 17.7466C21.7377 17.7466 21.7484 17.7413 21.7537 17.7413C21.7804 17.7306 21.8011 17.7252 21.8284 17.7092C21.832 17.7092 21.8355 17.7075 21.8391 17.7039C21.8657 17.6932 21.8924 17.6772 21.9184 17.6612C21.9297 17.6559 21.9397 17.6506 21.9457 17.6452C21.9611 17.6346 21.9771 17.6239 21.9931 17.6132C22.0038 17.6079 22.0144 17.5972 22.0251 17.5872C22.0304 17.5819 22.0411 17.5766 22.0464 17.5706L24.1026 15.8344C25.1034 14.993 26.4835 14.7636 27.7029 15.2324C28.9224 15.7011 29.7905 16.7985 29.9711 18.0926C30.5099 21.9643 30.4559 25.8627 29.8225 29.6763C29.7158 30.2624 29.1677 30.6671 28.571 30.5978C27.9796 30.5284 27.5376 30.0064 27.5696 29.4103C27.5749 29.3463 27.5696 29.277 27.5589 29.2183L27.7936 19.9775C27.8043 19.4767 27.4102 19.062 26.9095 19.0507C26.4088 19.04 25.9928 19.4341 25.9821 19.9348L25.5721 36.1529C25.5614 36.6537 25.9561 37.069 26.4562 37.079H26.4775C26.9675 37.079 27.3722 36.6903 27.3829 36.1949L27.4843 32.1579C27.7563 32.2806 28.0436 32.3653 28.353 32.4026C28.4697 32.4186 28.5877 32.4239 28.699 32.4239C30.0998 32.4239 31.3413 31.4172 31.596 30.0064V29.9957C32.2674 25.9953 32.3207 21.911 31.7613 17.8519C31.49 15.9024 30.1852 14.2569 28.3477 13.5489L28.3483 13.5475Z" fill="#6D278E"/>
<path d="M21.4663 12.6413C24.1193 12.6413 26.2761 10.4845 26.2761 7.83224C26.2761 5.17999 24.1193 3.02246 21.4663 3.02246C18.8134 3.02246 16.6572 5.17933 16.6572 7.83224C16.6519 10.4791 18.8148 12.6413 21.4663 12.6413ZM21.4663 4.82796C23.1232 4.82796 24.4653 6.17542 24.4653 7.8269C24.4653 9.47839 23.1178 10.8252 21.4663 10.8252C19.8149 10.8252 18.4681 9.47772 18.4681 7.8269C18.4681 6.17608 19.8102 4.82796 21.4663 4.82796Z" fill="#6D278E"/>
<path d="M11.7095 14.9056C12.0342 14.5216 11.9808 13.9522 11.6035 13.6268L9.54195 11.8907C8.03515 10.6286 5.95696 10.2825 4.12545 10.9853C2.28795 11.6933 0.983168 13.3395 0.711143 15.289C0.151759 19.3474 0.205094 23.4324 0.871156 27.4321V27.4428C1.12651 28.8549 2.36263 29.8617 3.76876 29.8617C3.8861 29.8617 3.99811 29.8557 4.11479 29.8397C4.41882 29.803 4.70084 29.7223 4.96686 29.6056L5.06821 33.6107C5.07888 34.1007 5.48291 34.4948 5.97296 34.4948H5.99429C6.49501 34.4841 6.88904 34.0687 6.87838 33.568L6.71302 26.9901C6.71302 26.9107 6.71303 26.836 6.70769 26.756C6.70769 26.7454 6.70236 26.7347 6.70236 26.7194L6.46767 17.2492C6.457 16.7485 6.0423 16.3544 5.54159 16.3651C5.04087 16.3758 4.64684 16.7918 4.65751 17.2918L4.90219 26.9801C4.87019 27.5234 4.45482 27.9762 3.9061 28.0455C3.31471 28.1148 2.766 27.7101 2.65465 27.1241C2.02059 23.3104 1.96726 19.412 2.50531 15.5403C2.68599 14.2462 3.55474 13.1488 4.77418 12.6801C5.99363 12.2114 7.37375 12.4401 8.37451 13.2815L10.4307 15.0176C10.6067 15.151 10.8141 15.2256 11.0168 15.2256C11.2721 15.2256 11.5281 15.1136 11.7088 14.9063L11.7095 14.9056Z" fill="#6D278E"/>
<path d="M11.028 10.0744C13.6803 10.0744 15.8371 7.91692 15.8371 5.26467C15.8371 2.61243 13.6803 0.455566 11.028 0.455566C8.37579 0.455566 6.21826 2.61243 6.21826 5.26467C6.21826 7.91692 8.37579 10.0744 11.028 10.0744ZM11.028 2.2664C12.6842 2.2664 14.0263 3.61386 14.0263 5.26467C14.0263 6.91549 12.6789 8.26362 11.028 8.26362C9.37722 8.26362 8.0291 6.91616 8.0291 5.26467C8.0291 3.61319 9.37655 2.2664 11.028 2.2664Z" fill="#6D278E"/>
<path d="M31.9006 10.0744C34.5535 10.0744 36.7097 7.91692 36.7097 5.26467C36.7097 2.61243 34.5535 0.455566 31.9006 0.455566C29.2477 0.455566 27.0908 2.61243 27.0908 5.26467C27.0908 7.91692 29.2477 10.0744 31.9006 10.0744ZM31.9006 2.2664C33.5574 2.2664 34.8995 3.61386 34.8995 5.26467C34.8995 6.91549 33.5514 8.26362 31.9006 8.26362C30.2498 8.26362 28.9017 6.91616 28.9017 5.26467C28.9017 3.61319 30.2438 2.2664 31.9006 2.2664Z" fill="#6D278E"/>
<path d="M42.1957 15.2887C41.9243 13.3392 40.6195 11.693 38.782 10.985C36.9445 10.2769 34.8723 10.6229 33.3655 11.8904L31.3047 13.6265C30.9206 13.9512 30.8733 14.5213 31.198 14.9053C31.3793 15.118 31.6347 15.2247 31.8907 15.2247C32.0987 15.2247 32.3061 15.1553 32.4714 15.0113L34.527 13.2752C35.5277 12.4338 36.9079 12.2051 38.1273 12.6738C39.3467 13.1418 40.2148 14.2393 40.3962 15.5334C40.9342 19.4057 40.8809 23.3041 40.2475 27.1178C40.1408 27.7032 39.5928 28.1085 38.9954 28.0385C38.4047 27.9699 37.9626 27.4471 37.9946 26.8511C38 26.7824 37.9946 26.7131 37.9839 26.6491L38.218 17.2915C38.2293 16.7908 37.8353 16.3755 37.3346 16.3648C36.8332 16.3495 36.4185 16.7488 36.4078 17.2489L35.9978 33.5677C35.9864 34.0684 36.3805 34.4838 36.8812 34.4944H36.9032C37.3932 34.4944 37.7979 34.1057 37.8079 33.6104L37.9093 29.5947C38.1806 29.7167 38.4733 29.8027 38.7827 29.8394C38.9 29.8554 39.0167 29.8614 39.1287 29.8614C40.5295 29.8614 41.771 28.8546 42.0263 27.4425V27.4318C42.7077 23.4321 42.7611 19.3471 42.1963 15.2887H42.1957Z" fill="#6D278E"/>
</svg>
