<svg width="18" height="12" viewBox="0 0 18 12" fill="none" xmlns="http://www.w3.org/2000/svg">
<path fill-rule="evenodd" clip-rule="evenodd" d="M9.229 0.274048L12.6417 6.43146L16.054 0.274048H17.6754L12.6417 9.35665L7.60767 0.274048H9.229Z" fill="url(#paint0_linear_1114_1424)"/>
<path fill-rule="evenodd" clip-rule="evenodd" d="M11.7498 0.274048L13.9017 4.1574L16.054 0.274048H17.6753L13.9017 7.08259L10.1284 0.274048H11.7498Z" fill="url(#paint1_linear_1114_1424)"/>
<path fill-rule="evenodd" clip-rule="evenodd" d="M4.4625 0.274048L8.49492 7.54977L7.25576 8.23865L2.8418 0.274048H4.4625Z" fill="url(#paint2_linear_1114_1424)"/>
<path fill-rule="evenodd" clip-rule="evenodd" d="M2.0647 0.274048L6.62107 8.49619L8.60587 4.9151L9.84503 5.6043L6.62107 11.4211L0.443359 0.274048H2.0647Z" fill="url(#paint3_linear_1114_1424)"/>
<path fill-rule="evenodd" clip-rule="evenodd" d="M6.9406 0.274048L11.4973 8.49619L16.054 0.274048H17.6753L11.4973 11.4211L5.31958 0.274048H6.9406Z" fill="url(#paint4_linear_1114_1424)"/>
<defs>
<linearGradient id="paint0_linear_1114_1424" x1="7.60767" y1="4.81551" x2="17.6754" y2="4.81551" gradientUnits="userSpaceOnUse">
<stop stop-color="#FFE717"/>
<stop offset="1" stop-color="#F82E19"/>
</linearGradient>
<linearGradient id="paint1_linear_1114_1424" x1="10.1284" y1="3.67816" x2="17.6753" y2="3.67816" gradientUnits="userSpaceOnUse">
<stop stop-color="#FFE717"/>
<stop offset="1" stop-color="#F82E19"/>
</linearGradient>
<linearGradient id="paint2_linear_1114_1424" x1="2.8418" y1="4.25635" x2="8.49492" y2="4.25635" gradientUnits="userSpaceOnUse">
<stop stop-color="#FFE717"/>
<stop offset="1" stop-color="#F82E19"/>
</linearGradient>
<linearGradient id="paint3_linear_1114_1424" x1="0.443359" y1="5.84756" x2="9.84503" y2="5.84756" gradientUnits="userSpaceOnUse">
<stop stop-color="#FFE717"/>
<stop offset="1" stop-color="#F82E19"/>
</linearGradient>
<linearGradient id="paint4_linear_1114_1424" x1="5.31958" y1="5.84756" x2="17.6753" y2="5.84756" gradientUnits="userSpaceOnUse">
<stop stop-color="#FFE717"/>
<stop offset="1" stop-color="#F82E19"/>
</linearGradient>
</defs>
</svg>
