<svg xmlns="http://www.w3.org/2000/svg" xmlns:xlink="http://www.w3.org/1999/xlink" viewBox="0 0 763.12 621.36"><defs><style>.cls-1{fill:url(#Dégradé_sans_nom_8);}.cls-2{fill:url(#Dégradé_sans_nom_8-2);}.cls-3{fill:#ffe717;}</style><linearGradient id="Dégradé_sans_nom_8" x1="150.55" y1="615.77" x2="150.55" y2="173.54" gradientUnits="userSpaceOnUse"><stop offset="0" stop-color="#ffe717"/><stop offset="0.36" stop-color="#fda818"/><stop offset="1" stop-color="#f82e19"/></linearGradient><linearGradient id="Dégradé_sans_nom_8-2" x1="430.13" y1="614.4" x2="430.13" y2="63.47" xlink:href="#Dégradé_sans_nom_8"/></defs><g id="Calque_2" data-name="Calque 2"><g id="Calque_4" data-name="Calque 4"><polygon class="cls-1" points="0 223 149.28 179.12 301.1 621.36 136.75 621.36 0 223"/><polygon class="cls-2" points="454.48 70.43 593.77 621.36 432.57 621.36 266.48 130.34 454.48 70.43"/><polygon class="cls-3" points="266.48 130.34 454.48 70.43 301.1 621.36 136.75 621.36 266.48 130.34"/><polygon class="cls-3" points="592.51 621.36 437.57 621.36 465.08 517.35 621.07 517.35 592.51 621.36"/><polygon class="cls-3" points="687.48 275.46 663.53 366.03 506.37 366.03 531.23 275.46 687.48 275.46"/><polygon class="cls-3" points="656.39 393.02 630.18 492.13 471.75 492.13 498.96 393.02 656.39 393.02"/><polygon class="cls-3" points="695.38 246.71 536.66 246.71 562.3 159.76 719.25 159.76 695.38 246.71"/><polygon class="cls-3" points="726.51 133.32 566.65 133.32 582.06 75.02 741.2 75.02 726.51 133.32"/><polygon class="cls-3" points="591.1 40.85 589.03 48.7 749.75 48.7 763.12 0 591.1 40.85"/></g></g></svg>