<?xml version="1.0" standalone="no"?>
<!DOCTYPE svg PUBLIC "-//W3C//DTD SVG 20010904//EN"
 "http://www.w3.org/TR/2001/REC-SVG-20010904/DTD/svg10.dtd">
<svg version="1.0" xmlns="http://www.w3.org/2000/svg"
 width="5293.000000pt" height="5293.000000pt" viewBox="0 0 5293.000000 5293.000000"
 preserveAspectRatio="xMidYMid meet">
<metadata>
Created by potrace 1.14, written by Peter Selinger 2001-2017
</metadata>
<g transform="translate(0.000000,5293.000000) scale(0.100000,-0.100000)"
fill="#000000" stroke="none">
<path d="M20045 30819 c-374 -161 -885 -383 -910 -394 -67 -30 -147 -65 -277
-121 l-138 -58 0 -613 c0 -337 2 -613 4 -613 3 0 17 5 33 11 15 6 129 46 253
89 124 43 245 85 270 94 25 9 86 30 135 47 258 89 322 111 340 119 11 4 103
36 205 71 102 34 188 65 193 69 4 3 6 308 5 677 l-3 670 -110 -48z"/>
<path d="M35638 30646 c-1 -2 -82 -6 -178 -10 -171 -6 -208 -9 -320 -22 -30
-3 -66 -7 -80 -9 -48 -5 -125 -16 -140 -20 -8 -2 -32 -6 -53 -9 -21 -4 -73
-13 -115 -22 -42 -9 -84 -17 -92 -19 -187 -38 -521 -149 -735 -243 -614 -270
-1084 -624 -1521 -1144 -102 -121 -261 -353 -361 -524 -214 -367 -366 -746
-459 -1144 -24 -105 -60 -310 -70 -400 -2 -25 -7 -57 -9 -73 -23 -140 -27
-721 -6 -912 19 -179 23 -206 47 -335 2 -14 7 -43 10 -65 9 -68 80 -344 119
-465 46 -143 122 -336 181 -457 24 -50 44 -94 44 -96 0 -3 21 -42 46 -88 26
-46 60 -109 76 -139 87 -159 306 -467 452 -636 60 -70 322 -334 386 -389 520
-453 1193 -787 1859 -926 25 -5 55 -11 66 -13 11 -3 63 -12 115 -20 52 -9 105
-18 117 -20 12 -3 53 -8 90 -11 37 -4 82 -9 98 -11 85 -10 280 -18 440 -18
167 0 473 12 485 19 3 1 41 6 85 9 44 4 87 9 95 11 8 2 39 7 69 10 30 4 63 9
75 11 12 2 37 7 56 10 19 3 87 17 150 31 63 13 124 26 135 29 132 27 430 130
625 216 60 26 302 148 315 158 6 4 33 20 60 36 228 126 492 331 721 559 312
312 524 620 709 1030 128 283 250 741 290 1080 3 28 8 64 10 80 4 30 14 149
21 240 5 74 5 453 0 505 -3 25 -8 76 -11 115 -4 38 -8 77 -10 85 -1 8 -6 40
-11 70 -4 30 -8 57 -9 60 0 3 -7 35 -14 72 l-13 67 -1934 0 -1934 1 0 -635 0
-635 1239 0 1239 0 -20 -72 c-10 -40 -23 -86 -27 -103 -69 -250 -232 -586
-377 -777 -199 -260 -494 -485 -869 -660 -95 -44 -305 -119 -370 -132 -17 -3
-61 -12 -100 -20 -38 -8 -88 -17 -110 -20 -22 -4 -53 -9 -70 -11 -109 -17
-296 -29 -475 -29 -145 1 -358 11 -382 18 -7 3 -37 7 -66 11 -30 3 -74 10 -99
16 -25 5 -58 11 -72 13 -78 11 -294 74 -420 124 -228 88 -542 273 -726 427
-279 232 -482 487 -657 825 -89 173 -140 312 -199 540 -14 58 -58 311 -64 375
-3 33 -8 85 -11 115 -7 71 -7 407 0 485 8 85 14 143 22 200 4 28 8 59 10 70 7
54 48 240 71 320 92 322 282 679 500 943 82 98 276 287 373 363 84 65 227 162
305 207 42 23 233 117 273 133 12 5 32 13 45 19 224 96 526 175 752 195 39 4
81 8 95 11 68 12 449 4 580 -12 307 -37 517 -92 765 -202 251 -111 531 -296
715 -472 25 -24 69 -66 97 -94 l52 -50 49 50 c43 43 529 519 854 836 l119 116
-88 89 c-328 327 -632 544 -1053 749 -298 146 -611 254 -910 313 -30 6 -66 14
-80 16 -14 3 -54 10 -90 15 -36 5 -76 12 -90 14 -44 8 -113 16 -180 22 -36 3
-78 7 -95 10 -16 2 -113 7 -215 10 -102 3 -190 7 -197 9 -6 2 -13 2 -15 1z"/>
<path d="M180 30458 c0 -4 23 -89 51 -190 28 -101 58 -208 65 -238 8 -30 28
-102 44 -160 17 -58 44 -154 61 -215 17 -60 32 -114 33 -120 1 -5 8 -30 15
-55 7 -25 46 -166 87 -315 80 -294 90 -328 110 -395 14 -48 103 -375 109 -400
2 -8 14 -49 25 -90 12 -41 23 -82 25 -90 2 -8 24 -89 50 -180 162 -581 165
-592 230 -830 31 -113 67 -243 80 -290 25 -89 93 -334 100 -360 2 -8 35 -127
73 -265 77 -278 211 -762 297 -1075 31 -113 72 -259 90 -325 30 -110 125 -452
162 -585 8 -30 18 -68 23 -85 50 -178 82 -293 85 -305 2 -8 19 -71 39 -140 53
-192 166 -599 181 -656 8 -28 35 -127 61 -220 25 -93 54 -196 63 -229 l16 -60
717 -3 717 -2 56 172 c31 95 106 326 166 513 61 187 139 428 174 535 35 107
116 357 180 555 64 198 143 441 175 540 95 291 209 642 247 760 20 61 49 150
65 199 17 49 31 94 32 100 1 6 33 103 70 216 57 172 90 282 111 370 2 8 45
172 96 363 l93 348 45 -3 45 -3 17 -65 c9 -36 28 -108 42 -160 54 -203 80
-300 119 -445 22 -82 42 -158 43 -168 4 -16 129 -403 342 -1052 47 -143 86
-264 87 -270 3 -12 143 -446 196 -605 21 -63 61 -185 88 -270 82 -256 272
-841 292 -900 10 -30 62 -190 115 -355 53 -165 102 -316 110 -335 l13 -35 715
-3 716 -2 11 42 c6 24 23 86 37 138 14 52 26 102 28 111 2 9 12 47 23 85 11
38 52 193 92 344 39 151 80 304 90 340 10 36 42 155 70 265 29 110 61 231 72
269 11 38 21 76 23 85 3 15 56 218 90 341 41 153 87 325 90 339 2 9 30 117 63
241 34 124 72 268 86 320 13 52 45 174 71 270 26 96 48 182 50 190 2 8 11 42
20 75 23 85 12 45 116 435 5 19 11 42 13 50 2 8 16 58 30 110 14 52 41 156 61
230 20 74 56 212 81 305 24 94 46 177 48 185 2 8 34 128 71 265 37 138 68 257
70 265 2 8 11 42 20 75 9 33 30 112 46 175 17 63 44 165 60 225 17 61 32 117
34 125 2 8 26 101 55 207 28 106 53 200 55 210 2 10 16 61 30 113 14 52 27
102 30 111 2 9 22 86 45 170 23 85 43 161 45 169 2 9 26 101 54 205 81 305
211 796 211 798 0 1 -354 2 -787 2 l-787 0 -18 -70 c-10 -38 -20 -79 -22 -90
-2 -11 -12 -49 -21 -85 -9 -36 -18 -72 -20 -80 -2 -8 -22 -89 -45 -180 -22
-91 -43 -172 -45 -180 -2 -8 -31 -127 -65 -265 -34 -137 -64 -257 -66 -265 -1
-8 -55 -224 -119 -480 -64 -256 -118 -472 -120 -481 -3 -15 -13 -53 -36 -139
-20 -74 -101 -407 -110 -450 -5 -25 -15 -67 -23 -95 -8 -27 -22 -78 -31 -113
-15 -59 -19 -75 -30 -127 -3 -11 -86 -346 -186 -745 -146 -585 -265 -1113
-305 -1345 -2 -16 -15 -79 -27 -140 l-22 -110 -45 0 -45 0 -11 50 c-12 53 -89
344 -124 470 -4 17 -22 86 -40 155 -25 99 -156 525 -200 650 -9 26 -69 211
-215 665 -107 332 -174 540 -258 800 -36 110 -106 328 -157 485 -50 157 -118
366 -150 465 -32 99 -92 284 -133 410 l-74 230 -696 2 c-643 1 -697 0 -701
-15 -2 -9 -19 -63 -36 -119 -18 -56 -32 -106 -32 -110 0 -4 -5 -17 -10 -27 -6
-10 -18 -46 -28 -80 -10 -34 -75 -239 -145 -456 -70 -217 -140 -435 -155 -485
-32 -102 -86 -272 -155 -485 -26 -80 -62 -192 -80 -250 -18 -58 -75 -233 -125
-390 -153 -477 -190 -591 -219 -685 -16 -49 -54 -170 -85 -268 -50 -157 -249
-864 -280 -993 -6 -29 -10 -31 -51 -30 -25 0 -45 1 -45 2 0 1 -15 76 -34 166
-30 140 -68 324 -82 393 -2 11 -6 29 -8 40 -7 30 -46 215 -50 239 -2 11 -11
46 -19 76 -9 30 -25 91 -37 135 -12 44 -33 123 -46 175 -14 52 -27 102 -29
110 -2 8 -20 76 -40 150 -20 74 -38 142 -40 150 -2 8 -34 128 -70 265 -37 138
-69 257 -70 265 -2 8 -24 92 -49 185 -26 94 -64 240 -87 325 -22 85 -44 169
-49 185 -5 17 -13 48 -19 70 -17 62 -56 210 -85 320 -14 55 -44 165 -65 245
-22 80 -56 208 -76 285 -20 77 -50 190 -66 250 -17 61 -31 117 -33 125 -2 8
-16 60 -31 115 -15 55 -35 132 -45 170 -10 39 -26 97 -35 130 -9 33 -32 121
-51 195 -20 74 -44 167 -55 205 -10 39 -37 140 -59 225 -23 85 -48 178 -57
206 l-15 50 -784 0 c-431 0 -784 -4 -784 -8z"/>
<path d="M40785 30461 c-2 -4 -3 -1778 -3 -3943 l0 -3938 744 0 744 0 0 1448
0 1448 693 0 c616 1 878 6 942 18 11 2 49 7 85 11 190 20 559 115 670 172 14
7 30 13 36 13 21 0 289 137 386 196 405 249 719 592 923 1009 94 192 173 431
199 600 2 17 8 50 12 75 33 200 36 468 9 743 -13 129 -82 412 -124 512 -58
137 -102 233 -135 295 -43 83 -140 242 -159 262 -7 7 -28 36 -47 63 -19 28
-39 55 -45 61 -5 6 -35 39 -65 74 -75 85 -143 154 -219 220 -35 30 -69 60 -75
65 -65 59 -265 189 -404 262 -340 178 -726 290 -1137 330 -70 7 -3026 10
-3030 4z m3000 -1415 c22 -4 67 -12 100 -17 131 -23 296 -89 415 -168 69 -45
199 -168 255 -241 62 -80 140 -244 160 -334 2 -11 9 -39 14 -61 20 -80 23
-112 25 -230 5 -241 -55 -443 -192 -649 -80 -121 -229 -258 -352 -325 -45 -24
-201 -82 -248 -92 -96 -19 -159 -29 -227 -35 -75 -7 -1432 -12 -1452 -6 -10 3
-13 228 -13 1081 0 593 2 1080 5 1083 8 7 1465 2 1510 -6z"/>
<path d="M46770 29764 l0 -702 23 -3 c12 -2 507 -4 1099 -3 751 0 1078 -3
1081 -10 1 -6 3 -1463 2 -3238 l0 -3228 742 0 743 0 0 353 c0 193 1 1650 3
3237 l2 2885 1095 0 c602 0 1097 3 1100 7 4 5 5 1358 1 1393 -1 7 -921 11
-2946 11 l-2945 0 0 -702z"/>
<path d="M17697 29979 c-176 -104 -323 -189 -328 -189 -5 0 -9 -4 -9 -10 0 -5
-5 -10 -10 -10 -6 0 -67 -34 -138 -77 -70 -42 -136 -81 -147 -87 -16 -9 -206
-121 -315 -187 -8 -4 -50 -29 -92 -55 l-78 -45 0 -1665 0 -1665 187 168 c104
92 203 182 222 198 19 17 39 35 45 41 6 5 58 52 116 104 58 52 110 99 116 104
6 6 42 38 79 71 38 33 73 65 79 70 6 6 76 69 156 140 80 71 161 144 180 161
19 18 44 41 56 51 38 33 177 158 191 171 11 11 13 261 13 1458 0 794 -1 1444
-2 1443 -2 0 -146 -85 -321 -190z"/>
<path d="M27863 28810 c0 -451 -3 -823 -6 -826 -4 -4 -217 -7 -474 -8 l-468
-1 0 -615 0 -615 460 -2 c253 0 467 -2 475 -2 13 -1 15 -148 15 -1259 0 -691
4 -1297 8 -1347 10 -119 36 -280 62 -385 66 -263 211 -535 385 -724 215 -234
552 -428 834 -482 12 -2 32 -6 46 -9 24 -5 44 -8 115 -20 79 -13 174 -18 335
-19 156 0 385 10 400 19 3 1 28 5 56 9 43 5 95 14 234 42 21 4 58 13 120 28
91 23 242 75 342 118 43 19 45 23 38 47 -5 14 -45 141 -90 281 -45 140 -85
264 -90 275 -4 11 -18 54 -30 95 -12 41 -26 84 -30 95 -5 11 -18 52 -30 90
-19 63 -114 360 -126 394 -3 9 -8 10 -17 3 -6 -5 -51 -30 -100 -56 -107 -57
-199 -75 -380 -75 -211 0 -327 44 -449 170 -100 103 -159 222 -173 349 -3 30
-9 73 -12 95 -11 72 -9 2265 2 2266 5 0 303 2 660 2 l650 2 0 615 0 615 -635
2 c-349 1 -646 2 -660 2 l-25 1 0 825 0 825 -721 0 -721 0 0 -820z"/>
<path d="M21090 29558 c-14 -5 -106 -38 -205 -73 -99 -34 -252 -88 -340 -119
-88 -32 -164 -58 -170 -60 -5 -2 -17 -6 -25 -9 -26 -10 -474 -169 -485 -171
-5 -2 -23 -8 -38 -14 -16 -7 -31 -12 -35 -12 -5 0 -93 -31 -192 -68 -8 -3 -17
-6 -20 -7 -3 -1 -12 -4 -20 -7 -8 -3 -51 -18 -95 -33 -44 -15 -89 -31 -100
-35 -11 -5 -75 -28 -142 -51 -86 -30 -120 -46 -116 -56 3 -7 9 -13 13 -13 4 0
67 -48 141 -106 74 -59 169 -133 211 -166 47 -36 75 -65 71 -72 -37 -60 -1195
-1205 -1512 -1495 -14 -13 -82 -77 -151 -141 -140 -131 -155 -145 -260 -240
-41 -37 -87 -79 -101 -91 -98 -90 -143 -131 -204 -184 -37 -33 -73 -65 -79
-70 -49 -47 -471 -411 -590 -510 -26 -22 -53 -45 -59 -50 -7 -6 -52 -44 -102
-85 -49 -41 -92 -77 -95 -80 -3 -3 -23 -19 -45 -36 -21 -16 -46 -36 -55 -44
-9 -8 -31 -26 -50 -40 -18 -14 -49 -40 -69 -57 -20 -18 -39 -33 -43 -33 -4 0
-15 -8 -25 -18 -10 -11 -49 -43 -88 -72 -38 -29 -72 -55 -75 -59 -3 -3 -50
-40 -105 -81 -55 -41 -104 -78 -110 -83 -5 -4 -35 -26 -65 -48 -30 -23 -66
-49 -80 -60 -14 -10 -52 -39 -85 -63 l-60 -44 -2 36 c-2 20 -4 323 -7 672 -2
349 -6 649 -9 665 -3 17 -8 53 -12 80 -6 56 -11 86 -25 160 -5 28 -11 61 -14
75 -28 170 -128 435 -234 627 -86 155 -263 362 -422 495 -136 113 -370 251
-540 318 -139 56 -408 135 -525 154 -149 25 -292 45 -380 51 -22 2 -78 6 -125
10 -103 8 -450 8 -540 1 -115 -10 -248 -25 -285 -32 -11 -2 -40 -7 -65 -10
-72 -9 -296 -63 -400 -96 -302 -96 -557 -227 -814 -417 -62 -46 -69 -52 -150
-121 -107 -91 -283 -276 -364 -382 -11 -14 -1 -24 85 -82 54 -36 118 -80 143
-97 25 -18 115 -79 200 -137 85 -58 255 -175 378 -259 l223 -153 122 123 c136
138 169 166 277 237 41 28 80 54 85 58 53 42 334 153 420 166 22 4 47 8 55 11
121 35 406 38 595 5 384 -65 728 -329 855 -655 8 -19 23 -75 36 -135 4 -14 8
-96 11 -182 l5 -157 -103 35 c-152 52 -350 106 -554 150 -89 19 -230 39 -355
49 -150 13 -188 14 -385 14 -242 0 -282 -2 -465 -25 -293 -36 -739 -187 -926
-313 -25 -17 -47 -31 -50 -31 -20 0 -218 -163 -309 -254 -281 -283 -451 -649
-481 -1036 -32 -420 54 -793 259 -1125 248 -400 692 -701 1223 -829 54 -13
122 -27 149 -31 28 -4 61 -9 75 -11 133 -21 385 -25 549 -8 66 7 128 15 138
18 10 2 34 7 53 10 19 3 60 12 90 20 30 9 66 18 80 22 14 3 39 12 55 19 17 6
55 22 86 34 31 12 87 40 125 62 52 31 99 47 197 70 130 30 280 73 443 128 51
17 95 31 98 31 3 0 6 -56 6 -125 l0 -125 710 0 710 0 2 482 3 483 47 30 c26
16 89 57 140 89 131 84 406 267 517 345 51 36 113 80 136 96 24 17 53 38 66
47 337 249 740 555 759 578 3 3 73 59 155 125 83 66 152 122 155 125 3 3 30
25 60 50 30 25 64 53 75 62 135 112 171 143 181 152 6 6 31 27 54 45 23 19 48
40 54 45 6 6 58 51 116 101 58 49 107 92 110 95 4 4 79 70 189 166 38 33 45
39 171 154 51 47 105 95 119 108 219 197 635 598 916 882 132 134 185 188 319
331 167 177 196 209 276 299 47 52 90 99 95 106 18 19 113 128 140 159 14 17
42 51 63 77 20 26 44 47 52 48 8 0 29 -13 45 -28 17 -15 77 -66 135 -112 58
-46 111 -90 118 -97 32 -31 132 -103 133 -96 1 10 5 38 24 168 8 55 17 120 20
145 8 55 15 106 20 132 3 11 7 46 10 77 4 31 8 63 10 71 2 8 7 38 10 65 3 28
8 61 10 75 8 44 14 83 25 170 6 47 13 96 15 110 6 31 55 373 61 420 7 51 64
451 68 476 9 48 18 134 15 133 -2 0 -15 -5 -29 -11z m-7967 -4532 c43 -4 88
-9 100 -12 12 -2 39 -6 62 -10 22 -3 67 -12 100 -20 33 -8 67 -16 75 -18 182
-44 422 -128 520 -181 23 -13 25 -20 25 -77 1 -138 -50 -327 -135 -498 -114
-230 -349 -460 -530 -518 -105 -34 -299 -80 -414 -98 -21 -3 -48 -7 -59 -10
-39 -7 -193 -17 -267 -17 -200 1 -299 25 -436 107 -139 83 -204 154 -233 255
-61 206 -81 457 -47 586 43 167 233 344 459 429 117 45 235 71 362 82 39 3 71
7 72 8 5 5 274 -2 346 -8z"/>
<path d="M18720 28495 c0 -454 4 -553 22 -506 2 5 58 67 124 137 67 71 136
145 154 164 17 19 59 63 92 97 l60 62 -74 93 c-71 89 -203 256 -317 401 -29
37 -55 67 -57 67 -2 0 -4 -232 -4 -515z"/>
<path d="M23717 28154 c-1 -1 -49 -4 -107 -8 -58 -3 -116 -8 -130 -10 -14 -3
-52 -7 -85 -11 -272 -30 -637 -149 -910 -298 -93 -51 -314 -196 -374 -244
-127 -104 -178 -150 -274 -247 -217 -218 -368 -424 -503 -686 -116 -222 -227
-530 -268 -740 -2 -14 -9 -48 -15 -77 -6 -29 -13 -74 -16 -100 -4 -26 -8 -55
-10 -63 -19 -72 -26 -511 -12 -687 30 -373 126 -732 276 -1030 421 -838 1210
-1403 2121 -1518 30 -4 63 -9 73 -11 126 -23 608 -23 781 1 17 2 51 7 76 10
37 4 139 22 235 40 11 2 35 7 54 10 18 4 60 15 93 26 34 10 65 19 69 19 26 0
280 100 379 149 330 165 668 430 901 706 19 22 37 42 40 45 31 27 204 275 288
412 l22 38 -596 295 c-328 162 -600 295 -603 295 -4 0 -27 -35 -52 -76 -131
-220 -384 -460 -599 -569 -60 -30 -191 -79 -241 -90 -183 -42 -241 -49 -430
-49 -306 -2 -502 40 -734 156 -181 90 -310 195 -442 360 -119 148 -171 243
-228 415 -29 86 -78 312 -71 324 3 3 906 7 2007 7 1102 1 2015 1 2029 1 14 1
26 7 26 14 0 6 4 50 9 97 15 142 7 594 -11 692 -3 11 -7 45 -11 76 -3 30 -7
60 -9 66 -1 6 -5 34 -10 61 -34 218 -120 511 -210 715 -190 429 -497 798 -870
1046 -313 209 -767 373 -1130 409 -33 4 -67 8 -75 10 -32 9 -445 25 -453 19z
m273 -1188 c112 -9 184 -24 298 -62 196 -65 356 -161 494 -299 136 -134 207
-245 287 -450 9 -25 40 -157 41 -176 0 -6 -2591 -9 -2602 -2 -17 9 90 266 154
368 163 257 406 455 683 552 90 32 227 62 318 69 40 4 73 7 74 8 5 4 177 -2
253 -8z"/>
<path d="M20143 27166 c-7 -12 -111 -123 -323 -346 -25 -26 -79 -83 -120 -126
-41 -44 -147 -156 -236 -249 -88 -94 -192 -203 -230 -243 -147 -157 -447 -473
-486 -514 l-28 -29 0 -1534 0 -1535 725 0 725 0 0 2295 c0 1443 -4 2295 -10
2295 -5 0 -13 -6 -17 -14z"/>
<path d="M17930 25118 c-52 -44 -207 -173 -345 -286 -137 -114 -259 -214 -270
-224 -11 -9 -146 -121 -300 -248 -319 -264 -301 -249 -378 -314 l-57 -48 0
-709 0 -709 725 0 725 0 0 1310 c0 721 -1 1310 -2 1309 -2 0 -46 -37 -98 -81z"/>
</g>
</svg>
